<?xml version="1.0" encoding="utf-8"?>
<!-- Generator: Adobe Illustrator 26.3.1, SVG Export Plug-In . SVG Version: 6.00 Build 0)  -->
<svg version="1.1" id="Layer_1" xmlns="http://www.w3.org/2000/svg" xmlns:xlink="http://www.w3.org/1999/xlink" x="0px" y="0px"
	 viewBox="0 0 492.3 492.3" style="enable-background:new 0 0 492.3 492.3;" xml:space="preserve">
<g>
	<g>
		<polygon points="464.2,195.4 464.2,175.7 330.5,175.7 492.3,13.9 478.4,0 316.6,161.8 316.6,28.2 296.9,28.2 296.9,195.4 		"/>
	</g>
</g>
<g>
	<g>
		<polygon points="161.8,175.7 28.2,175.7 28.2,195.4 195.4,195.4 195.4,28.2 175.7,28.2 175.7,161.8 13.9,0 0,13.9 		"/>
	</g>
</g>
<g>
	<g>
		<polygon points="316.6,464.2 316.6,330.5 478.4,492.3 492.3,478.4 330.5,316.6 464.2,316.6 464.2,296.9 296.9,296.9 296.9,464.2 
					"/>
	</g>
</g>
<g>
	<g>
		<polygon points="0,478.4 13.9,492.3 175.7,330.5 175.7,464.2 195.4,464.2 195.4,296.9 28.2,296.9 28.2,316.6 161.8,316.6 		"/>
	</g>
</g>
</svg>
