<svg width="100%" height="100%" viewBox="0 0 33 34" version="1.1" xmlns="http://www.w3.org/2000/svg" xmlns:xlink="http://www.w3.org/1999/xlink" xml:space="preserve" xmlns:serif="http://www.serif.com/" style="fill-rule:evenodd;clip-rule:evenodd;stroke-linejoin:round;stroke-miterlimit:2;">
    <g id="Symbols" style="fill-rule:evenodd;clip-rule:evenodd;stroke-linejoin:round;stroke-miterlimit:2;">
        <path id="Fill-1" d="M32.947,33.536C32.643,30.646 32.292,27.084 32.105,25.342C31.689,21.454 28.736,19.214 24.299,19.194C21.884,19.183 19.439,19.181 16.993,19.183L16.046,19.183C13.6,19.181 11.154,19.183 8.739,19.194C4.303,19.214 1.35,21.454 0.933,25.342C0.747,27.084 0.396,30.646 0.092,33.536L32.947,33.536ZM24.57,8.472C24.57,12.827 21.04,16.357 16.685,16.357C12.331,16.357 8.801,12.827 8.801,8.472C8.801,4.117 12.331,0.587 16.685,0.587C21.04,0.587 24.57,4.117 24.57,8.472Z" style="fill:white;"/>
    </g>
</svg>
