<svg width="100%" height="100%" viewBox="0 0 84 98" version="1.1" xmlns="http://www.w3.org/2000/svg" xmlns:xlink="http://www.w3.org/1999/xlink" xml:space="preserve" xmlns:serif="http://www.serif.com/" style="fill-rule:evenodd;clip-rule:evenodd;stroke-linejoin:round;stroke-miterlimit:2;">
    <g transform="matrix(1,0,0,1,-578.943,-251.916)">
        <path d="M602.076,277.298L591.342,277.298C587.723,277.298 584.283,278.879 581.928,281.628C579.572,284.376 578.535,288.017 579.089,291.594C580.922,303.438 583.929,322.86 585.83,335.146C587.105,343.381 594.195,349.458 602.528,349.458L619.711,349.458C621.642,349.458 623.211,347.889 623.211,345.958C623.211,344.026 621.642,342.458 619.711,342.458L602.528,342.458C597.647,342.458 593.495,338.899 592.748,334.075C592.748,334.075 586.006,290.523 586.006,290.523C585.765,288.966 586.217,287.38 587.243,286.183C588.268,284.986 589.766,284.298 591.342,284.298L602.076,284.298L602.076,296.32C602.076,298.252 603.644,299.82 605.576,299.82C607.508,299.82 609.076,298.252 609.076,296.32L609.076,284.298L632.394,284.298L632.394,296.32C632.394,298.252 633.962,299.82 635.894,299.82C637.825,299.82 639.394,298.252 639.394,296.32L639.394,284.298L649.872,284.298C651.569,284.298 653.181,285.035 654.292,286.317C655.402,287.6 655.9,289.302 655.657,290.981C654.549,298.628 653.253,307.578 653.253,307.578C652.976,309.49 654.304,311.266 656.215,311.543C658.127,311.82 659.904,310.493 660.181,308.581C660.181,308.581 661.477,299.632 662.585,291.984C663.119,288.295 662.024,284.555 659.584,281.736C657.144,278.917 653.6,277.298 649.872,277.298L639.394,277.298L639.394,270.575C639.394,260.277 631.033,251.916 620.735,251.916C610.437,251.916 602.076,260.277 602.076,270.575L602.076,277.298ZM632.394,277.298L632.394,270.575C632.394,264.14 627.17,258.916 620.735,258.916C614.3,258.916 609.076,264.14 609.076,270.575L609.076,277.298L632.394,277.298Z"/>
    </g>
</svg>
