<svg width="100%" height="100%" viewBox="0 0 30 33" version="1.1" xmlns="http://www.w3.org/2000/svg" xmlns:xlink="http://www.w3.org/1999/xlink" xml:space="preserve" xmlns:serif="http://www.serif.com/">
    <g id="Artboard1" transform="matrix(0.872696,0,0,1,0,0)" style="fill-rule:evenodd;clip-rule:evenodd;stroke-linejoin:round;stroke-miterlimit:2;">
        <g id="bag-icon" transform="matrix(1.14587,0,0,1,0,0)">
            <path d="M4.684,9.748C5.102,7.134 5.936,5.127 7.056,3.633C9.016,1.015 11.838,0 14.784,0C17.733,0 20.564,1.016 22.532,3.637C23.654,5.131 24.491,7.136 24.911,9.748L29.199,9.748L29.199,32.837L0.555,32.837L0.555,9.748L4.684,9.748ZM5.416,14.609L5.416,27.976L24.338,27.976L24.338,14.609L5.416,14.609ZM20.839,9.748L8.755,9.748C9.062,8.206 9.564,6.977 10.267,6.038C11.404,4.52 13.076,4.012 14.784,4.012C16.498,4.012 18.18,4.523 19.324,6.046C20.027,6.983 20.531,8.21 20.839,9.748Z"/>
        </g>
    </g>
</svg>
