<svg width="100%" height="100%" viewBox="0 0 77 74" version="1.1" xmlns="http://www.w3.org/2000/svg" xmlns:xlink="http://www.w3.org/1999/xlink" xml:space="preserve" xmlns:serif="http://www.serif.com/" style="fill-rule:evenodd;clip-rule:evenodd;stroke-linejoin:round;stroke-miterlimit:2;">
    <g transform="matrix(1,0,0,1,-146.709,-261.721)">
        <path d="M197.528,316.407L216.049,334.175C217.841,335.894 220.692,335.835 222.411,334.043C224.131,332.25 224.072,329.399 222.279,327.68L203.515,309.679C206.726,304.8 208.596,298.958 208.596,292.683C208.596,275.594 194.73,261.721 177.652,261.721C160.575,261.721 146.709,275.594 146.709,292.683C146.709,309.772 160.575,323.645 177.652,323.645C185.216,323.645 192.149,320.924 197.528,316.407ZM177.652,268.721C190.868,268.721 201.596,279.459 201.596,292.683C201.596,305.908 190.868,316.645 177.652,316.645C164.437,316.645 153.709,305.908 153.709,292.683C153.709,279.459 164.437,268.721 177.652,268.721Z"/>
    </g>
</svg>
