<svg xmlns="http://www.w3.org/2000/svg" width="280" height="280" viewBox="0 0 280 280">
    <g fill="none" fill-rule="evenodd">
        <circle cx="140" cy="140" r="140" fill="#FF2B00"/>
        <path fill="#FFF" fill-rule="nonzero" d="M66.2 161v-28.28h.22L75.3 161h6.723l8.881-28.28h.22V161H99.9l.001-39.27H86.24l-7.327 25.38h-.22l-7.328-25.38h-13.72V161h8.555zm60.212.88c11.46 0 19.649-7.51 19.649-20.515 0-13.004-8.189-20.515-19.65-20.515-11.46 0-19.649 7.51-19.649 20.515s8.19 20.515 19.65 20.515zm0-7.474c-5.67 0-10.13-3.833-10.13-13.041 0-9.207 4.46-13.041 10.13-13.041 5.67 0 10.13 3.834 10.13 13.041 0 9.208-4.46 13.041-10.13 13.041zM162.309 161v-13.805h7.075l7.9 13.805h10.867l-9.03-14.794c5.167-1.787 8.041-5.917 8.041-11.744 0-7.943-5.342-12.732-14.555-12.732h-19.648V161h9.35zm8.79-21.072h-8.79v-10.93h8.79c4.33 0 6.545 2.06 6.545 5.464 0 3.404-2.215 5.466-6.545 5.466zM223.354 161v-7.491h-19.93v-9.126h18.931v-7.01h-18.932v-8.376h19.93v-7.267h-29.31V161h29.31z"/>
    </g>
</svg>
