<svg width="100%" height="100%" viewBox="0 0 70 92" version="1.1" xmlns="http://www.w3.org/2000/svg" xmlns:xlink="http://www.w3.org/1999/xlink" xml:space="preserve" xmlns:serif="http://www.serif.com/" style="fill-rule:evenodd;clip-rule:evenodd;stroke-linejoin:round;stroke-miterlimit:2;">
    <g transform="matrix(1,0,0,1,-369.136,-255.37)">
        <path d="M438.45,343.212L438.45,332.638C438.45,318.817 427.246,307.614 413.425,307.614C407.194,307.614 400.392,307.614 394.16,307.614C380.339,307.614 369.136,318.817 369.136,332.638C369.136,338.474 369.136,343.212 369.136,343.212C369.136,345.144 370.704,346.712 372.636,346.712C374.567,346.712 376.136,345.144 376.136,343.212C376.136,343.212 376.136,338.474 376.136,332.638C376.136,322.683 384.205,314.614 394.16,314.614C394.16,314.614 413.425,314.614 413.425,314.614C423.38,314.614 431.45,322.683 431.45,332.638L431.45,343.212C431.45,345.144 433.018,346.712 434.95,346.712C436.881,346.712 438.45,345.144 438.45,343.212ZM403.621,255.37C390.204,255.37 379.311,266.263 379.311,279.681C379.311,293.098 390.204,303.991 403.621,303.991C417.039,303.991 427.932,293.098 427.932,279.681C427.932,266.263 417.039,255.37 403.621,255.37ZM403.621,262.37C413.175,262.37 420.932,270.127 420.932,279.681C420.932,289.234 413.175,296.991 403.621,296.991C394.068,296.991 386.311,289.234 386.311,279.681C386.311,270.127 394.068,262.37 403.621,262.37Z"/>
    </g>
</svg>