<svg width="100%" height="100%" viewBox="0 0 54 53" version="1.1" xmlns="http://www.w3.org/2000/svg" xmlns:xlink="http://www.w3.org/1999/xlink" xml:space="preserve" xmlns:serif="http://www.serif.com/" style="fill-rule:evenodd;clip-rule:evenodd;stroke-linejoin:round;stroke-miterlimit:2;" fill-rule="evenodd">
    <g id="Artboard1" transform="matrix(0.0662581,0,0,0.087681,0,0)">
        <rect x="0" y="0" width="800" height="600" style="fill:none;"/>
        <g transform="matrix(2.45137,0,0,1.85243,-456.219,-206.43)">
            <circle cx="348.873" cy="273.439" r="160.602" style="fill-opacity:0.3;"/>
        </g>
        <g transform="matrix(2.45137,0,0,1.85243,-569.595,-261.35)" fill-rule="evenodd">
            <path d="M358.174,240.384C358.172,240.318 358.171,240.251 358.17,240.184L358.17,230.412C358.17,230.153 358.186,229.895 358.217,229.638L358.215,229.654C360.307,211.731 375.031,197.937 393.052,197.016C393.712,196.982 394.369,196.966 395.021,196.967C395.673,196.966 396.33,196.982 396.99,197.016C415.011,197.937 429.735,211.731 431.827,229.654L431.825,229.638C431.856,229.895 431.871,230.153 431.871,230.412L431.871,240.184C431.871,240.251 431.87,240.317 431.868,240.384L439.581,240.384C450.382,240.384 459.151,249.153 459.151,259.954L466.071,363.574C466.071,374.376 457.302,383.145 446.501,383.145L343.774,383.145C332.973,383.145 324.203,374.376 324.203,363.574L330.629,259.954C330.629,249.153 339.399,240.384 350.2,240.384L358.174,240.384ZM417.843,276.678C419.728,273.87 423.498,272.96 426.475,274.67C428.25,275.69 429.362,277.423 429.657,279.302C429.709,279.621 429.736,279.96 429.736,280.306L429.736,280.308C429.737,281.268 429.525,282.238 429.082,283.149C423.197,295.702 410.821,303.95 396.963,304.547C396.406,304.571 395.85,304.582 395.296,304.581C394.741,304.582 394.185,304.571 393.628,304.547C379.77,303.95 367.395,295.702 361.51,283.149C361.066,282.238 360.854,281.268 360.855,280.308L360.855,280.306C360.855,279.96 360.882,279.621 360.934,279.302C361.23,277.423 362.342,275.69 364.117,274.67C367.093,272.96 370.863,273.87 372.748,276.678C372.855,276.828 372.962,277.002 373.069,277.204L374.341,279.416C378.666,286.944 386.668,291.559 395.296,291.581C403.923,291.559 411.925,286.944 416.251,279.416L417.522,277.204C417.629,277.002 417.736,276.828 417.843,276.678ZM428.967,283.373L428.668,283.899C428.771,283.733 428.871,283.558 428.967,283.373ZM361.625,283.373C361.672,283.466 361.721,283.556 361.771,283.643C361.821,283.731 361.872,283.816 361.923,283.899L361.625,283.373ZM418.875,240.384L371.167,240.384L371.17,240.206L371.17,231.125L371.698,228.748C374.137,217.753 383.874,209.999 395.021,209.967C406.168,209.999 415.905,217.753 418.344,228.748L418.871,231.125L418.871,240.175L418.875,240.384ZM358.355,228.867C358.303,229.066 358.259,229.3 358.225,229.571C358.25,229.381 358.283,229.192 358.325,229.004L358.355,228.867ZM431.687,228.867L431.717,229.004C431.759,229.192 431.792,229.381 431.817,229.571C431.782,229.3 431.738,229.066 431.687,228.867Z" style="fill:white;"/>
        </g>
    </g>
</svg>
