<svg xmlns="http://www.w3.org/2000/svg" width="180" height="180" viewBox="0 0 180 180">
    <g fill="none" fill-rule="evenodd">
        <circle cx="90" cy="90" r="90" fill="#121212" opacity=".202"/>
        <path fill="#FFF" fill-rule="nonzero" d="M90.052 0c49.705 0 90 40.294 90 90s-40.295 90-90 90c-49.706 0-90-40.294-90-90s40.294-90 90-90zm0 8c-45.288 0-82 36.713-82 82s36.712 82 82 82c45.287 0 82-36.713 82-82s-36.713-82-82-82z"/>
        <g fill="#FFF" fill-rule="nonzero">
            <path d="M44.837.606l4.95 4.95-19.641 19.64 19.248 19.248-4.95 4.95-19.248-19.248L5.949 49.394l-4.95-4.95 19.247-19.248L.606 5.556l4.95-4.95 19.64 19.64L44.837.607z" transform="rotate(45 -20.962 135.962)"/>
        </g>
    </g>
</svg>
