<svg xmlns="http://www.w3.org/2000/svg" width="280" height="280" viewBox="0 0 280 280">
    <g fill="none" fill-rule="evenodd">
        <circle cx="140" cy="140" r="140" fill="#CF0"/>
        <path fill="#121212" fill-rule="nonzero" d="M72.906 161v-13.373h9.439c9.213 0 14.5-4.87 14.5-12.948 0-8.08-5.287-12.949-14.5-12.949H63.556V161h9.35zm7.82-20.64h-7.82v-11.363h7.82c4.33 0 6.6 2.142 6.6 5.681 0 3.54-2.27 5.682-6.6 5.682zM133.079 161v-7.786H112.81V121.73h-9.379V161h29.648zm13.89 0l2.912-8.796h15.34l2.954 8.796h10.018l-14.31-39.27h-12.478L137.094 161h9.874zm15.962-15.62h-10.79l5.249-15.85h.22l5.321 15.85zM204.926 161v-14.838l14.097-24.432h-10.051l-8.636 16.337-8.607-16.337h-10.25l14.097 24.457V161h9.35z"/>
    </g>
</svg>
