<svg xmlns="http://www.w3.org/2000/svg" width="356" height="355" viewBox="0 0 356 355">
    <g fill="none" fill-rule="evenodd">
        <g fill="#121212">
            <path d="M320.08 138.36c-1.496-5.377-.314-9.07 6.073-10.927l1.156 4.173c-3.449 1.11-4.197 3.018-3.5 5.531.709 2.546 2.276 3.723 4.841 3.037 3.028-.809 3.74-3.694 4.453-6.848.878-3.805 1.746-7.95 6.724-9.28 4.547-1.212 7.928.772 9.415 6.113 1.493 5.373-.305 8.816-6.222 10.396l-1.169-4.208c3.067-.819 4.356-2.037 3.472-5.22-.667-2.406-1.995-3.418-4.269-2.812-2.782.742-3.235 3.98-4.01 7.34-.844 3.644-2.082 7.433-6.881 8.712-4.946 1.32-8.609-.702-10.082-6.008M348.969 176.543c.902-.52 1.388-1.564 1.346-3.09l-.151-5.143-10.892.339s.141 4.815.148 5.018c.052 1.896.633 2.741 1.68 3.2.765.35 1.722.36 3.788.297 2.111-.065 3.492-.314 4.08-.62m-11.253 4.344c-1.666-1.187-2.517-3.176-2.72-5.97-.059-.78-.172-6.09-.172-6.09l-11.85.366-.14-4.936 31.6-.98.324 11.066c.083 2.966-.778 4.844-2.255 6.002-1.477 1.159-3.733 1.683-7.39 1.793-3.574.114-5.971-.224-7.397-1.25M324.998 213.691c1.176 1.125 5.676 2.475 8.635 3.132 3.616.803 6.446 1.354 8.81.856 1.596-.311 2.59-1.227 3.053-3.4.466-2.21-.198-3.415-1.496-4.33-2.127-1.53-5.588-2.34-8.37-2.957-3.545-.783-7.122-1.225-9.133-.77-1.204.282-2.373 1.278-2.79 3.262-.428 2.024.265 3.275 1.291 4.207m18.086 8.56c-2.882.422-6.446-.095-10.247-.938-4.238-.94-7.997-2.167-10.468-4.048-2.24-1.712-3.486-4.34-2.56-8.724.913-4.306 3.156-6.24 5.623-6.868 2.746-.687 6.744-.229 11.312.783 4.018.893 7.916 2.187 9.635 3.47 2.555 1.862 4.022 4.696 3.07 9.192-.923 4.38-3.248 6.69-6.365 7.134M329.377 256.93c1.196.188 2.227-.287 2.872-1.616l2.327-4.778s-8.264-4.058-8.62-4.235c0 0-2.396 4.924-2.468 5.066-.417 1.038-.32 1.935.183 2.538.482.55 1.74 1.343 2.668 1.8 1.107.544 2.593 1.14 3.038 1.226m-9.168.17c-.938-1.174-1.306-2.6-1.069-3.73l-15.418-1.921 2.238-4.598 14.173 1.845 2.086-4.276-12.163-5.972 2.044-4.204 28.437 13.967-4.792 9.844c-1.331 2.728-3.224 3.888-5.63 3.822-1.8-.038-3.138-.564-5.465-1.703-2.182-1.073-3.596-2.081-4.44-3.075M310.648 288.116L290.574 270.876 293.475 267.145 313.549 284.385 317.553 279.233 320.815 282.033 309.877 296.097 306.615 293.296zM247.046 305.542c4.547-2.485 8.867-2.169 11.305 2.326.22.403 11.186 20.614 11.186 20.614l-3.975 2.173-10.93-20.145c-1.19-2.196-3.166-2.695-5.623-1.353-2.189 1.197-2.98 3.206-1.807 5.368l10.95 20.175-4.009 2.192s-11.06-20.381-11.262-20.75c-2.238-4.126-.418-8.097 4.165-10.6M221.627 345.455L214.315 319.715 219.028 318.468 226.343 344.205 232.847 342.482 234.037 346.658 216.267 351.368 215.081 347.188zM190.492 322.601L192.686 353.574 188.282 353.947 186.091 322.97zM168.296 322.846L165.02 354 160.662 353.457 163.483 326.654 153.833 325.451 154.288 321.1zM134.111 318.556L125.298 347.42 120.963 346.016 129.776 317.152zM92.98 328.998L105.133 305.309 109.13 307.563 96.973 331.252 102.493 334.364 100.519 338.208 85.463 329.709 87.434 325.868zM72.496 293.463L79.479 285.569 82.833 288.572 75.902 296.411 68.907 315.836 65.523 312.807 71.021 298.39 57.204 305.363 53.907 302.411zM42.077 236.19l-1.822 1.181c1.598.255 3.4 1.422 4.736 4.325 1.535 3.333 1.39 6.228-.708 8.828-1.745 2.159-4.295 3.97-9.33 6.504-4.352 2.19-7.896 3.574-10.448 3.536-2.72-.044-5.649-1.177-7.579-5.368-2.009-4.372-1.133-7.416.718-9.451 1.16-1.333 3.92-3.03 4.776-3.464l1.914 4.16c-.992.499-2.418 1.525-3.406 2.682-1.018 1.177-1.008 2.492-.28 4.07.774 1.683 1.9 2.572 3.57 2.527 1.858-.093 4.796-1.133 8.738-3.116 3.976-2 6.706-3.595 7.885-5.158 1.008-1.302 1.114-2.81.27-4.638-1.086-2.366-2.98-3.264-4.91-2.693-.498.207-5.33 2.638-5.33 2.638l2.392 5.196-3.531 1.776-4.223-9.172s6.683-3.364 8.363-4.208c3.221-1.622 6.633-3.381 6.703-3.416l1.502 3.261zM36.815 216.008L6.035 222.401 2.63 207.849 6.928 206.956 9.324 217.205 18.191 215.365 15.922 205.663 20.22 204.77 22.489 214.472 31.511 212.596 29.087 202.238 33.385 201.346zM7.095 173.888c-.603.143-2.817.34-2.817.34s2.21.302 2.804.469c.338.083 11.615 2.917 11.615 2.917l.091-5.96-11.693 2.234zm22.653 6.52l-.068 4.613-29.682-7.976.094-6.001 29.9-6.404-.075 4.692-7.218 1.459-.12 7.846 7.169 1.771zM11.88 130.911c-1.212.05-2.127.68-2.503 2.035l-1.346 4.859 9.287 2.313s1.391-5.006 1.43-5.153c.21-1.04-.063-1.852-.674-2.317-.587-.418-1.97-.919-2.971-1.17-1.198-.295-2.772-.57-3.224-.567m8.967-1.868c1.149.913 1.787 2.162 1.774 3.255l15.51-1.099-1.295 4.679-14.27.939-1.209 4.348 13.108 3.265-1.183 4.276L2.63 141.07l2.778-10.015c.77-2.774 2.402-4.204 4.777-4.59 1.77-.301 3.192-.066 5.698.56 2.35.585 3.938 1.252 4.963 2.018M31.432 110.543L27.611 108.515 32.993 97.383 36.815 99.411zM69.571 78.15L54.63 65.122 66.442 81.91 63.75 85.146 45.77 76.006 60.621 88.909 57.952 92.119 35.5 72.536 39.349 67.908 59.002 77.966 46.13 59.754 49.86 55.271 72.315 74.855zM94.246 55.754c-4.235 2.97-8.535 3.109-11.405-1.151-.257-.384-13.156-19.538-13.156-19.538l3.704-2.598s12.424 18.451 12.856 19.09c1.401 2.083 3.4 2.376 5.696.771 2.038-1.43 2.612-3.53 1.233-5.583-.409-.605-12.879-19.12-12.879-19.12l3.734-2.621 13.248 19.668c2.632 3.907 1.24 8.09-3.031 11.082M129.568 38.918L114.325 22.332 121.695 41.875 117.559 43.428 106.5 14.115 111.231 12.337 126.136 28.589 118.916 9.451 123.056 7.896 134.111 37.212zM151.939 31.584L147.259 2.049 151.784 1.316 156.463 30.851zM194.144 25.75c-1.444 3.155-4.113 4.687-8.59 4.503-4.008-.168-6.578-1.658-7.875-4.215-1.23-2.404-1.655-6.829-1.44-11.492.204-4.438.759-7.964 2.134-10.485 1.505-2.74 4.406-4.227 8.689-4.046 4.95.203 7.525 2.44 8.39 5.875.432 1.736.51 3.423.425 5.323l-4.675-.193c.065-1.455-.058-3.103-.36-4.199-.47-1.703-2.084-2.592-4.09-2.676-2.043-.08-3.333.611-4.062 1.926-.946 1.681-1.447 5.77-1.58 8.678-.163 3.504-.05 7.098.538 8.84.692 2.045 2.48 2.604 4.205 2.676 1.808.077 3.174-.54 3.998-2.15.69-1.354.936-3.248.987-4.366l4.675.194c-.075 1.639-.45 3.791-1.37 5.808M209.056 34.396L217.2 5.264 222.204 6.399 214.063 35.532zM256.653 24.612c-.038-.974-.717-1.821-2.053-2.42l-4.512-2.021-4.712 9.308s4.228 1.893 4.408 1.975c1.658.743 2.659.606 3.538-.082.655-.501 1.101-1.3 1.995-3.065.91-1.802 1.333-3.073 1.336-3.695m-1.413 11.286c-1.786.909-3.898.795-6.408-.202-.703-.274-5.343-2.395-5.343-2.395l-5.12 10.127-4.332-1.942 13.662-27.01 9.712 4.35c2.6 1.166 3.83 2.671 4.152 4.401.322 1.727-.26 3.841-1.842 6.966-1.548 3.06-2.94 4.936-4.48 5.705M284.09 44.77c.254-.592 1.458-2.57 1.458-2.57s-1.585 1.655-2.077 2.053c-.27.233-9.365 7.892-9.365 7.892l4.564 3.82 5.42-11.194zm-18.91 14.874l-3.532-2.956 24.336-19.84 4.59 3.846-13.327 29.053-3.59-3.007 3.284-6.963-6.002-5.023-5.759 4.89zM289.259 81.871L313.903 63.167 316.87 66.765 295.667 82.856 302.243 90.825 298.8 93.435zM316.87 99.451L320.637 97.383 326.074 108.478 322.304 110.543z"/>
        </g>
    </g>
</svg>
