<svg width="33px" height="34px" viewBox="0 0 33 34" version="1.1" xmlns="http://www.w3.org/2000/svg" xmlns:xlink="http://www.w3.org/1999/xlink">
    <g id="magnify-icon" stroke="none" stroke-width="1" fill="none" fill-rule="evenodd">
        <g id="Search-Icon" fill="#FFFFFF">
            <polygon id="Fill-1" points="29.1137219 33.3247229 20.0974919 24.3084929 17.9702219 22.1812229 21.7459019 18.4048529 32.8900919 29.5483529"></polygon>
            <polygon id="Fill-2" points="17.9698769 22.1810159 20.0971469 24.3082859 29.1133769 33.3245159 32.8897469 29.5488359 21.7462469 18.4046459"></polygon>
            <polygon id="Fill-3" points="17.9698769 22.1810159 20.0971469 24.3082859 29.1133769 33.3245159 32.8897469 29.5488359 21.7462469 18.4046459"></polygon>
            <path d="M21.8966669,15.1642679 C21.4260869,18.8647379 18.3990569,21.8924579 14.6978969,22.3630379 C12.083487,22.6921679 9.52703697,21.8248379 7.67990697,19.9777079 C5.83208698,18.1298879 4.96268698,15.5720579 5.29457698,12.960408 C5.76584698,9.25924797 8.79287697,6.23152798 12.494037,5.76163798 C12.856977,5.71540798 13.225437,5.69194798 13.588377,5.69194798 C15.8246669,5.69194798 17.9277869,6.56341798 19.5113369,8.14696797 C21.3591569,9.99478797 22.2285569,12.551928 21.8966669,15.1642679 M23.2055969,4.45270798 C20.2068569,1.45327799 16.0634069,0.0415379999 11.835087,0.579047998 C5.80793698,1.344948 0.877886997,6.27499798 0.111987,12.301458 C-0.424832999,16.5290879 0.986906997,20.6732279 3.98564699,23.6719679 C6.55589698,26.2422179 9.96863697,27.6574079 13.595967,27.6574079 C14.180397,27.6574079 14.7724169,27.6201479 15.3561569,27.5456279 C21.3833069,26.7790379 26.3133569,21.8489879 27.0792569,15.8232179 C27.6167669,11.596968 26.2050269,7.45213797 23.2055969,4.45270798" id="Fill-4"></path>
        </g>
    </g>
</svg>