<svg xmlns="http://www.w3.org/2000/svg" width="385" height="385" viewBox="0 0 385 385">
    <g fill="none" fill-rule="evenodd">
        <g fill="#121212">
            <path d="M192.5 22.116c-93.948 0-170.384 76.433-170.384 170.382 0 93.95 76.436 170.386 170.384 170.386 93.948 0 170.384-76.437 170.384-170.386 0-93.95-76.436-170.382-170.384-170.382m0 362.884C86.36 385 0 298.64 0 192.498 0 86.356 86.36 0 192.5 0S385 86.356 385 192.498 298.64 385 192.5 385"/>
            <path d="M253.584 154.075L229.153 178.573 244.023 193.486 294 143.363 291.127 140.473 291.201 140.403 244.932 94 230.063 108.913 254.064 132.984 151.486 132.984 151.261 132.758 121.526 132.758 211.427 222.925 130.42 222.925 154.847 198.427 139.982 183.514 90 233.637 92.877 236.527 92.803 236.597 139.076 283 153.941 268.087 129.94 244.016 232.457 244.016 232.678 244.242 262.417 244.242 172.516 154.075z"/>
        </g>
    </g>
</svg>
