<?xml version="1.0" encoding="utf-8"?>
<!-- Generator: Adobe Illustrator 25.2.3, SVG Export Plug-In . SVG Version: 6.00 Build 0)  -->
<svg version="1.1" id="Layer_1" xmlns="http://www.w3.org/2000/svg" xmlns:xlink="http://www.w3.org/1999/xlink" x="0px" y="0px"
	 viewBox="0 0 512 512" style="enable-background:new 0 0 512 512;" xml:space="preserve">
<style type="text/css">
	.st0{fill:#121212;}
</style>
<path class="st0" d="M474.3,229.3c-8.8,0-16-7.2-16-16c0-61.3-23.8-118.8-67.2-162.2c-6.2-6.2-6.2-16.4,0-22.6s16.4-6.2,22.6,0
	c49.3,49.4,76.5,115,76.5,184.8C490.3,222.2,483.2,229.3,474.3,229.3z"/>
<path class="st0" d="M37,229.3c-8.8,0-16-7.2-16-16c0-69.8,27.2-135.4,76.5-184.8c6.2-6.2,16.4-6.2,22.6,0s6.2,16.4,0,22.6
	C76.9,94.5,53,152.1,53,213.3C53,222.2,45.8,229.3,37,229.3z"/>
<path class="st0" d="M255.7,512c-44.1,0-80-35.9-80-80c0-8.8,7.2-16,16-16s16,7.2,16,16c0,26.5,21.5,48,48,48c26.5,0,48-21.5,48-48
	c0-8.8,7.2-16,16-16s16,7.2,16,16C335.7,476.1,299.8,512,255.7,512z"/>
<path class="st0" d="M431.7,448h-352c-20.6,0-37.3-16.7-37.3-37.3c0-10.9,4.8-21.3,13.1-28.4c32.4-27.4,50.9-67.3,50.9-109.5v-59.5
	c0-82.3,67-149.3,149.3-149.3C338,64,405,131,405,213.3v59.5c0,42.2,18.5,82.1,50.7,109.3c8.5,7.3,13.3,17.6,13.3,28.5
	C469,431.3,452.3,448,431.7,448z M255.7,96c-64.7,0-117.3,52.6-117.3,117.3v59.5c0,51.6-22.6,100.4-62.1,133.8
	c-0.7,0.6-1.9,2-1.9,4.1c0,2.9,2.4,5.3,5.3,5.3h352c2.9,0,5.3-2.4,5.3-5.3c0-2.1-1.2-3.5-1.9-4.1c-39.5-33.4-62.1-82.2-62.1-133.8
	v-59.5C373,148.6,320.4,96,255.7,96z"/>
<path class="st0" d="M255.7,96c-8.8,0-16-7.2-16-16V16c0-8.8,7.2-16,16-16s16,7.2,16,16v64C271.7,88.8,264.5,96,255.7,96z"/>
</svg>
