<svg width="100%" height="100%" viewBox="0 0 40 24" version="1.1" xmlns="http://www.w3.org/2000/svg" xmlns:xlink="http://www.w3.org/1999/xlink" xml:space="preserve" xmlns:serif="http://www.serif.com/" style="fill-rule:evenodd;clip-rule:evenodd;stroke-linejoin:round;stroke-miterlimit:2;">
    <g transform="matrix(0.153391,0,0,0.153985,-0.128757,0.0122943)">
        <rect x="0.839" y="-0.08" width="258.683" height="151.386" style="fill:none;"/>
        <g transform="matrix(6.51928,0,0,6.49413,0.839401,-0.0798411)">
            <path d="M39.59,1.84C39.59,0.919 38.843,0.173 37.923,0.173L12.442,0.173C11.997,0.173 11.571,0.351 11.258,0.667L1.389,10.628C1.077,10.944 0.903,11.37 0.906,11.814C0.91,12.258 1.09,12.682 1.407,12.993L11.276,22.649C11.588,22.954 12.006,23.124 12.442,23.124L37.923,23.124C38.843,23.124 39.59,22.378 39.59,21.458L39.59,1.84ZM36.256,3.506L36.256,19.791C36.256,19.791 13.122,19.791 13.122,19.791C13.122,19.791 4.937,11.783 4.937,11.783C4.937,11.783 13.137,3.506 13.137,3.506L36.256,3.506ZM24.162,9.283L21.4,6.527C20.749,5.877 19.692,5.878 19.043,6.529C18.393,7.18 18.394,8.236 19.045,8.886L21.805,11.64L19.048,14.397C18.397,15.047 18.397,16.103 19.048,16.754C19.698,17.404 20.754,17.404 21.405,16.754L24.164,13.995L26.926,16.751C27.577,17.401 28.633,17.4 29.283,16.749C29.933,16.097 29.932,15.041 29.28,14.392L26.521,11.638L29.278,8.881C29.928,8.231 29.928,7.174 29.278,6.524C28.627,5.874 27.571,5.874 26.921,6.524L24.162,9.283Z"/>
        </g>
    </g>
</svg>
