<svg width="100%" height="100%" viewBox="0 0 25 20" version="1.1" xmlns="http://www.w3.org/2000/svg" xmlns:xlink="http://www.w3.org/1999/xlink" xml:space="preserve" xmlns:serif="http://www.serif.com/" style="fill-rule:evenodd;clip-rule:evenodd;stroke-linejoin:round;stroke-miterlimit:2;">
    <g transform="matrix(0.343592,0,0,0.489352,-78.7744,-92.1101)">
        <rect x="229.267" y="188.229" width="72.761" height="40.87" style="fill:none;"/>
        <g transform="matrix(2.91043,0,0,2.04352,229.267,188.229)">
            <path d="M24.79,16.732L24.79,3.268L6.59,3.291L0.01,10.022L6.591,16.732L24.79,16.732ZM23.79,4.269L23.79,15.732C23.79,15.732 7.011,15.732 7.011,15.732C7.011,15.732 1.409,10.021 1.409,10.021C1.409,10.021 7.011,4.291 7.011,4.291L23.79,4.269ZM16.776,9.29L13.463,5.977L12.756,6.684L16.069,9.997L12.756,13.309L13.463,14.017L16.776,10.704L20.088,14.017L20.795,13.309L17.483,9.997L20.795,6.684L20.088,5.977L16.776,9.29Z"/>
        </g>
    </g>
</svg>
