<?xml version="1.0" encoding="utf-8"?>
<!-- Generator: Adobe Illustrator 24.0.0, SVG Export Plug-In . SVG Version: 6.00 Build 0)  -->
<svg version="1.1" id="Layer_1" xmlns="http://www.w3.org/2000/svg" xmlns:xlink="http://www.w3.org/1999/xlink" x="0px" y="0px"
	 viewBox="0 0 900 225" style="enable-background:new 0 0 900 225;" xml:space="preserve">
<style type="text/css">
	.st0{fill:#FFFFFF;}
</style>
<g>
	<g>
		<path class="st0" d="M264.4,76.1l0-1.1h-15.5v43.1c0,13.3-4.5,18.5-16.2,18.5c-11.4,0-16.9-6-16.9-18.4V75.1h-15.3l0,42.8
			c0,0.5-0.8,13.5,7.9,22.8c5.6,5.9,13.7,8.9,24.1,8.9c10.4,0,18.5-2.9,24-8.5c7.5-7.7,8.1-18.5,7.9-23
			C264.5,116.6,264.4,76.1,264.4,76.1z"/>
		<path class="st0" d="M623.6,75.1c-0.7,0-12.5,0-21.8,0.1l-13.9,0v74.4h15v-23.4c9.3,0,14-0.1,18.3-0.1c4.2,0,11.5,0.5,18.2-5.9
			c4.7-4.5,7.1-11.1,7.1-19.8c0-8.6-2.3-15.2-6.8-19.6c-5.4-5.2-12.3-5.8-16-5.7 M632.2,100.3c0,8.6-4.5,12.7-14.1,12.7h-15.2V87.8
			h15.2C628.4,87.8,632.2,91.2,632.2,100.3z"/>
		<rect x="538.8" y="75.1" class="st0" width="15" height="74.5"/>
		<rect x="396.9" y="75.1" class="st0" width="15" height="74.5"/>
		<path class="st0" d="M704.5,75.1h-14.7l-30.2,74.5h15.1l5.4-13.2h34.1l5.4,13.2h15.3L704.5,75.1z M709.1,124.1h-24l12-29.6
			L709.1,124.1z"/>
		<polygon class="st0" points="776,136.5 776,75.1 761,75.1 761,149.6 816.5,149.6 816.5,136.5 		"/>
		<polygon class="st0" points="347.7,75.1 347.7,125.8 315.2,75.1 298.6,75.1 298.6,149.6 313.7,149.6 313.7,99 346,149.6 
			362.7,149.6 362.7,75.1 		"/>
		<polygon class="st0" points="147.2,75.1 124.9,130.2 102.6,75.1 83.4,75.1 83.4,149.6 98.4,149.6 98.4,102.2 117.6,149.6 
			132.2,149.6 151.4,102.2 151.4,149.6 166.4,149.6 166.4,75.1 		"/>
		<path class="st0" d="M476.8,136.6c-11.6,0-18-6.5-18-18.4v-11.7c0-11.9,6.4-18.4,18-18.4c9.7,0,15.1,0.9,19.9,10.4
			c4.2-2.4,12.2-6.2,12.2-6.2l-0.5-0.9c-5.3-8.9-11.4-16.2-31.7-16.2c-10.4,0-18.7,3-24.4,8.9c-9,9.3-8.7,22.2-8.7,22.7v11.1
			c0,0.5-0.3,13.5,8.7,22.7c5.8,5.9,14,8.9,24.4,8.9c20.3,0,26.4-7.3,31.7-16.2l0.5-0.9c0,0-8.6-4.3-12.2-6.4
			C492.4,133.6,486.5,136.6,476.8,136.6z"/>
	</g>
</g>
</svg>
