<svg width="100%" height="100%" viewBox="0 0 738 79" version="1.1" xmlns="http://www.w3.org/2000/svg" xmlns:xlink="http://www.w3.org/1999/xlink" xml:space="preserve" xmlns:serif="http://www.serif.com/" style="fill-rule:evenodd;clip-rule:evenodd;stroke-linejoin:round;stroke-miterlimit:2;">
    <g id="Artboard1" transform="matrix(7.0931,0,0,0.756217,0,0)">
        <g transform="matrix(0.140982,0,0,1.32237,-11.4117,-96.5314)">
            <g>
                <path d="M264.4,76.1L264.4,75L248.9,75L248.9,118.1C248.9,131.4 244.4,136.6 232.7,136.6C221.3,136.6 215.8,130.6 215.8,118.2L215.8,75.1L200.5,75.1L200.5,117.9C200.5,118.4 199.7,131.4 208.4,140.7C214,146.6 222.1,149.6 232.5,149.6C242.9,149.6 251,146.7 256.5,141.1C264,133.4 264.6,122.6 264.4,118.1C264.5,116.6 264.4,76.1 264.4,76.1Z" style="fill:#ffffff;fill-rule:nonzero;"/>
                <path d="M623.6,75.1C622.9,75.1 611.1,75.1 601.8,75.2L587.9,75.2L587.9,149.6L602.9,149.6L602.9,126.2C612.2,126.2 616.9,126.1 621.2,126.1C625.4,126.1 632.7,126.6 639.4,120.2C644.1,115.7 646.5,109.1 646.5,100.4C646.5,91.8 644.2,85.2 639.7,80.8C634.3,75.6 627.4,75 623.7,75.1M632.2,100.3C632.2,108.9 627.7,113 618.1,113L602.9,113L602.9,87.8L618.1,87.8C628.4,87.8 632.2,91.2 632.2,100.3Z" style="fill:#ffffff;fill-rule:nonzero;"/>
                <rect x="538.8" y="75.1" width="15" height="74.5" style="fill:#ffffff;"/>
                <rect x="396.9" y="75.1" width="15" height="74.5" style="fill:#ffffff;"/>
                <path d="M704.5,75.1L689.8,75.1L659.6,149.6L674.7,149.6L680.1,136.4L714.2,136.4L719.6,149.6L734.9,149.6L704.5,75.1ZM709.1,124.1L685.1,124.1L697.1,94.5L709.1,124.1Z" style="fill:#ffffff;fill-rule:nonzero;"/>
                <path d="M776,136.5L776,75.1L761,75.1L761,149.6L816.5,149.6L816.5,136.5L776,136.5Z" style="fill:#ffffff;fill-rule:nonzero;"/>
                <path d="M347.7,75.1L347.7,125.8L315.2,75.1L298.6,75.1L298.6,149.6L313.7,149.6L313.7,99L346,149.6L362.7,149.6L362.7,75.1L347.7,75.1Z" style="fill:#ffffff;fill-rule:nonzero;"/>
                <path d="M147.2,75.1L124.9,130.2L102.6,75.1L83.4,75.1L83.4,149.6L98.4,149.6L98.4,102.2L117.6,149.6L132.2,149.6L151.4,102.2L151.4,149.6L166.4,149.6L166.4,75.1L147.2,75.1Z" style="fill:#ffffff;fill-rule:nonzero;"/>
                <path d="M476.8,136.6C465.2,136.6 458.8,130.1 458.8,118.2L458.8,106.5C458.8,94.6 465.2,88.1 476.8,88.1C486.5,88.1 491.9,89 496.7,98.5C500.9,96.1 508.9,92.3 508.9,92.3L508.4,91.4C503.1,82.5 497,75.2 476.7,75.2C466.3,75.2 458,78.2 452.3,84.1C443.3,93.4 443.6,106.3 443.6,106.8L443.6,117.9C443.6,118.4 443.3,131.4 452.3,140.6C458.1,146.5 466.3,149.5 476.7,149.5C497,149.5 503.1,142.2 508.4,133.3L508.9,132.4C508.9,132.4 500.3,128.1 496.7,126C492.4,133.6 486.5,136.6 476.8,136.6Z" style="fill:#ffffff;fill-rule:nonzero;"/>
            </g>
        </g>
    </g>
</svg>
