<?xml version="1.0" standalone="no"?>
<!DOCTYPE svg PUBLIC "-//W3C//DTD SVG 1.1//EN" "http://www.w3.org/Graphics/SVG/1.1/DTD/svg11.dtd" >
<svg xmlns="http://www.w3.org/2000/svg" xmlns:xlink="http://www.w3.org/1999/xlink" version="1.1">
<metadata>
Created by FontForge 20201107 at Tue Mar 12 17:03:41 2024
 By 
Oliver Jeschke / ogj type design
</metadata>
<defs>
<font id="SequelSans-MediumHead" horiz-adv-x="1185" >
  <font-face 
    font-family="Sequel Sans Medium Head"
    font-weight="365"
    font-stretch="normal"
    units-per-em="2048"
    panose-1="2 11 6 3 5 0 0 2 0 4"
    ascent="1638"
    descent="-410"
    x-height="1082"
    cap-height="1462"
    bbox="-144 -899 2386 2189"
    underline-thickness="102"
    underline-position="-204"
    unicode-range="U+000D-FB02"
  />
<missing-glyph horiz-adv-x="1406" 
d="M1305 -899h-1203v3088h1203v-3088zM256 -764h895v2820h-895v-2820zM598 801l-260 20q26 291 358 291q156 0 254.5 -72.5t98.5 -205.5q0 -80 -36.5 -123t-105.5 -80q-61 -33 -81.5 -53t-20.5 -52v-6h-234v33q0 76 31.5 118t114.5 95q32 20 46.5 39t14.5 45q0 29 -21.5 47
t-62.5 18q-43 0 -69 -29.5t-27 -84.5zM551 442h276v-252h-276v252z" />
    <glyph glyph-name=".notdef" horiz-adv-x="1406" 
d="M1305 -899h-1203v3088h1203v-3088zM256 -764h895v2820h-895v-2820zM598 801l-260 20q26 291 358 291q156 0 254.5 -72.5t98.5 -205.5q0 -80 -36.5 -123t-105.5 -80q-61 -33 -81.5 -53t-20.5 -52v-6h-234v33q0 76 31.5 118t114.5 95q32 20 46.5 39t14.5 45q0 29 -21.5 47
t-62.5 18q-43 0 -69 -29.5t-27 -84.5zM551 442h276v-252h-276v252z" />
    <glyph glyph-name=".null" horiz-adv-x="0" 
 />
    <glyph glyph-name="nonmarkingreturn" horiz-adv-x="682" 
 />
    <glyph glyph-name="CR" unicode="&#xd;" horiz-adv-x="344" 
 />
    <glyph glyph-name="space" unicode=" " horiz-adv-x="430" 
 />
    <glyph glyph-name="exclam" unicode="!" horiz-adv-x="571" 
d="M196 437l-40 647v378h258v-378l-39 -647h-179zM144 278h282v-278h-282v278z" />
    <glyph glyph-name="quotedbl" unicode="&#x22;" horiz-adv-x="868" 
d="M116 902v560h227v-560h-227zM525 902v560h227v-560h-227z" />
    <glyph glyph-name="numbersign" unicode="#" horiz-adv-x="1277" 
d="M988 860l-58 -288h219l-39 -177h-215l-80 -395h-186l80 395h-274l-80 -395h-184l79 395h-215l39 177h212l58 288h-216l36 179h216l80 396h186l-80 -396h273l81 396h184l-80 -396h217l-39 -179h-214zM803 860h-274l-58 -288h274z" />
    <glyph glyph-name="dollar" unicode="$" horiz-adv-x="1228" 
d="M1148 395q0 -101 -39.5 -182t-108 -132t-158 -79t-193.5 -30v-200h-100v203q-212 20 -341 140t-157 328l238 26q14 -135 83.5 -207t176.5 -91v468l-98 27q-61 16 -104.5 32t-94 47t-82 69.5t-53 100t-21.5 138.5q0 178 127 288t326 120v155h100v-156q377 -31 466 -427
l-239 -17q-40 216 -227 249v-419l96 -25q42 -11 67.5 -18.5t64 -21t63 -25.5t56 -32t51.5 -41t41 -51t33 -64t19.5 -78t7.5 -95zM549 872v397q-97 -9 -153 -65.5t-56 -142.5q0 -80 49 -120t144 -65zM649 612v-448q115 4 184 63.5t69 159.5q0 52 -15.5 88.5t-49.5 60.5
t-69 38.5t-93 30.5z" />
    <glyph glyph-name="percent" unicode="%" horiz-adv-x="1912" 
d="M432 1464q159 0 251.5 -105t92.5 -308q0 -204 -92.5 -309t-251.5 -105q-161 0 -252 104.5t-91 309.5q0 204 91 308.5t252 104.5zM1446 1435l-816 -1435h-161l816 1435h161zM432 781q79 0 116.5 63.5t37.5 206.5t-37.5 205.5t-116.5 62.5q-80 0 -116.5 -62t-36.5 -206
t36.5 -207t116.5 -63zM1482 799q159 0 250.5 -105.5t91.5 -309.5t-91 -308.5t-251 -104.5t-251 104.5t-91 308.5t91.5 309.5t250.5 105.5zM1482 118q80 0 116.5 61.5t36.5 204.5q0 144 -36.5 207t-116.5 63q-79 0 -116 -63t-37 -207q0 -143 37 -204.5t116 -61.5z" />
    <glyph glyph-name="ampersand" unicode="&#x26;" horiz-adv-x="1517" 
d="M1208 0l-146 157q-87 -89 -201 -136t-243 -47q-107 0 -201 26.5t-168 77.5t-117 132.5t-43 183.5q0 271 306 420l41 20q-91 105 -127 177.5t-36 150.5q0 142 114 237.5t292 95.5t292 -95.5t114 -237.5q0 -59 -20 -108.5t-60 -90.5t-84 -72t-107 -65l-55 -30l268 -288
q37 116 37 243h214q0 -236 -90 -416l311 -335h-291zM505 1145q0 -46 27.5 -90.5t101.5 -124.5l44 21q90 44 133 87t43 107q0 69 -46.5 120t-128.5 51t-128 -50.5t-46 -120.5zM618 167q178 0 301 144l-353 381l-35 -19q-201 -110 -201 -272q0 -109 79 -171.5t209 -62.5z" />
    <glyph glyph-name="quotesingle" unicode="'" horiz-adv-x="458" 
d="M116 902v560h227v-560h-227z" />
    <glyph glyph-name="parenleft" unicode="(" horiz-adv-x="632" 
d="M337 663q0 -145 23 -272t66 -230t92.5 -183t115.5 -158l-97 -96q-96 85 -169.5 171.5t-139.5 201t-101.5 258t-35.5 308.5t35.5 308.5t101.5 258t139.5 201t169.5 171.5l97 -96q-66 -78 -115.5 -158t-92.5 -183t-66 -230t-23 -272z" />
    <glyph glyph-name="parenright" unicode=")" horiz-adv-x="632" 
d="M297 663q0 145 -23 272t-66 230t-92.5 183t-115.5 158l96 96q76 -67 136.5 -132.5t120.5 -154.5t100 -183t65 -215t25 -254t-25 -254t-65 -215t-100 -183t-120.5 -154.5t-136.5 -132.5l-96 96q66 78 115.5 158t92.5 183t66 230t23 272z" />
    <glyph glyph-name="asterisk" unicode="*" horiz-adv-x="870" 
d="M555 1098l220 -138l-88 -127l-179 134l7 -233h-159l8 233l-180 -134l-88 127l220 138l-220 137l88 128l180 -134l-8 233h159l-7 -233l179 134l88 -128z" />
    <glyph glyph-name="plus" unicode="+" horiz-adv-x="1003" 
d="M943 572h-345v-367h-193v367h-345v188h345v366h193v-366h345v-188z" />
    <glyph glyph-name="comma" unicode="," horiz-adv-x="550" 
d="M416 278v-215q0 -358 -273 -364v126q59 4 86 45.5t27 129.5h-122v278h282z" />
    <glyph glyph-name="hyphen" unicode="-" horiz-adv-x="894" 
d="M135 477v214h625v-214h-625z" />
    <glyph glyph-name="period" unicode="." horiz-adv-x="550" 
d="M134 278h282v-278h-282v278z" />
    <glyph glyph-name="slash" unicode="/" horiz-adv-x="811" 
d="M789 1462l-533 -1462h-235l531 1462h237z" />
    <glyph glyph-name="zero" unicode="0" horiz-adv-x="1314" 
d="M657 1464q95 0 176 -23.5t153.5 -79t123 -140t80 -213t29.5 -291.5t-29.5 -291t-80 -212.5t-123 -140t-153.5 -79t-176 -23.5t-176 23.5t-153 79t-122.5 140t-80 212.5t-29.5 291t29.5 291.5t80 213t122.5 140t153 79t176 23.5zM657 163q52 0 94.5 13t84 50.5t69.5 97.5
t45.5 160t17.5 233q0 134 -17.5 234t-45.5 160.5t-69.5 97.5t-84 50t-94.5 13t-94.5 -13t-84 -50t-69.5 -97.5t-45 -160.5t-17 -234q0 -133 17 -233t45 -160t69.5 -97.5t84 -50.5t94.5 -13z" />
    <glyph glyph-name="one" unicode="1" horiz-adv-x="745" 
d="M590 1435v-1435h-238v1064h-289v166h43q125 0 193.5 58t87.5 147h203z" />
    <glyph glyph-name="two" unicode="2" horiz-adv-x="1177" 
d="M1076 209v-209h-1002v62q0 69 13.5 132t33 110.5t53 93.5t62.5 76.5t73 65t72.5 53.5t72.5 46l187 120q38 25 67.5 48.5t60 57.5t47 77t16.5 91q0 117 -61.5 176t-180.5 59q-118 0 -190 -79t-85 -224l-239 20q14 152 87.5 261.5t183.5 162.5t243 53q101 0 188 -25
t155.5 -75t108 -131.5t39.5 -186.5q0 -42 -6.5 -80.5t-16 -69.5t-27 -61.5t-32.5 -52.5t-40.5 -46.5t-43 -39.5t-47.5 -36t-46.5 -31.5t-47.5 -29.5t-44 -27l-168 -108q-107 -69 -159 -135.5t-57 -117.5h730z" />
    <glyph glyph-name="three" unicode="3" horiz-adv-x="1228" 
d="M460 826h128q117 0 188.5 59.5t71.5 162.5q0 102 -68 162t-172 60q-103 0 -172 -61.5t-83 -176.5l-237 20q21 193 152 301.5t340 108.5q214 0 348.5 -109t134.5 -301q0 -103 -58 -181t-153 -118v-9q114 -37 183.5 -123.5t69.5 -216.5q0 -108 -40.5 -191.5t-112 -135.5
t-166 -78.5t-206.5 -26.5q-227 0 -370.5 112.5t-171.5 334.5l245 22q18 -143 96.5 -210t200.5 -67q119 0 197.5 65t78.5 176q0 122 -79.5 182t-216.5 60h-128v179z" />
    <glyph glyph-name="four" unicode="4" horiz-adv-x="1232" 
d="M981 546h180v-188h-180v-358h-238v358h-672v206l556 871h354v-889zM289 554v-8h454v705h-9z" />
    <glyph glyph-name="five" unicode="5" horiz-adv-x="1187" 
d="M609 977q94 0 179.5 -32t154 -92t109.5 -158t41 -220t-41.5 -219.5t-113 -158.5t-163.5 -93.5t-197 -32.5q-207 0 -345 104.5t-175 294.5l247 26q22 -111 93.5 -171.5t179.5 -60.5q115 0 190.5 81t75.5 231t-77 230t-197 80q-151 0 -263 -108h-224l65 757h850v-203h-659
l-31 -363h8q108 108 293 108z" />
    <glyph glyph-name="six" unicode="6" horiz-adv-x="1257" 
d="M685 926q65 0 131 -17.5t128.5 -55.5t110.5 -91.5t77.5 -131.5t29.5 -169q0 -99 -30.5 -182t-81 -139t-116.5 -95t-136.5 -56.5t-141.5 -17.5q-285 0 -432 200q-128 175 -128 548q0 743 558 743q173 0 302.5 -91.5t180.5 -258.5l-236 -29q-26 84 -89.5 140.5t-157.5 56.5
q-39 0 -74 -8.5t-72.5 -28.5t-67.5 -56.5t-54.5 -88.5t-38 -129.5t-13.5 -173.5v-16h8q64 75 154 111t189 36zM652 153q112 0 191.5 79t79.5 217t-79.5 217t-191.5 79q-122 0 -205 -81t-83 -215t83 -215t205 -81z" />
    <glyph glyph-name="seven" unicode="7" horiz-adv-x="1101" 
d="M1050 1435v-110q0 -72 -26.5 -144t-68.5 -137.5t-92.5 -137.5t-101.5 -157.5t-93 -182t-68.5 -228t-26.5 -278.5v-62h-252v71q0 140 27 273t67 232.5t96 200t105 169t103 147.5t81 129v8h-749v207h999z" />
    <glyph glyph-name="eight" unicode="8" horiz-adv-x="1234" 
d="M617 -29q84 0 160.5 15.5t144.5 49t117.5 83t78 122t28.5 160.5q0 136 -63.5 230t-176.5 136v8q96 41 150 116.5t54 179.5q0 99 -42 176t-112.5 122.5t-156.5 69t-182 23.5t-182 -23.5t-156.5 -69t-112.5 -122.5t-42 -176q0 -104 54 -179.5t150 -116.5v-8
q-113 -42 -176.5 -136t-63.5 -230q0 -88 28.5 -160.5t78 -122t117.5 -83t144.5 -49t160.5 -15.5zM617 1283q109 0 185 -57t76 -163t-75.5 -162.5t-185.5 -56.5q-109 0 -184.5 56.5t-75.5 162.5t75.5 163t184.5 57zM617 674q119 0 202 -67t83 -193t-83 -193.5t-202 -67.5
t-202 67.5t-83 193.5t83 193t202 67z" />
    <glyph glyph-name="nine" unicode="9" horiz-adv-x="1257" 
d="M572 507q-65 0 -130.5 18t-128 56t-110.5 91.5t-77.5 131.5t-29.5 169q0 99 30.5 182t81 138.5t117 94.5t136.5 56.5t141 17.5q286 0 432 -199q128 -175 128 -549q0 -743 -558 -743q-173 0 -302.5 91.5t-180.5 258.5l236 30q26 -84 89.5 -141t157.5 -57q39 0 74 8.5
t72.5 28.5t67.5 56.5t54.5 88.5t38 129.5t13.5 173.5v16h-8q-64 -75 -154.5 -111t-189.5 -36zM606 1280q-112 0 -191.5 -79t-79.5 -217t79.5 -217t191.5 -79q122 0 205 81t83 215t-83 215t-205 81z" />
    <glyph glyph-name="colon" unicode=":" horiz-adv-x="569" 
d="M143 1018h283v-277h-283v277zM143 278h283v-278h-283v278z" />
    <glyph glyph-name="semicolon" unicode=";" horiz-adv-x="569" 
d="M143 1018h283v-277h-283v277zM426 278v-215q0 -358 -274 -364v126q59 4 86 45.5t27 129.5h-122v278h283z" />
    <glyph glyph-name="less" unicode="&#x3c;" horiz-adv-x="1089" 
d="M100 762l880 420v-212l-651 -306v-9l651 -306v-212l-880 420v205z" />
    <glyph glyph-name="equal" unicode="=" horiz-adv-x="1001" 
d="M60 754v188h881v-188h-881zM60 390v189h881v-189h-881z" />
    <glyph glyph-name="greater" unicode="&#x3e;" horiz-adv-x="1089" 
d="M990 557l-880 -420v212l651 306v9l-651 306v212l880 -420v-205z" />
    <glyph glyph-name="question" unicode="?" horiz-adv-x="1165" 
d="M292 1016l-231 44q38 209 178 322t349 113q220 0 358 -107.5t138 -293.5q0 -61 -14 -112.5t-32.5 -85.5t-51.5 -67t-56 -50t-61 -41q-95 -63 -132.5 -124.5t-37.5 -163.5v-13h-227v74q0 126 51 209t165 157q69 45 103.5 95t34.5 131q0 88 -63.5 139t-173.5 51
q-112 0 -188.5 -69t-108.5 -208zM443 278h282v-278h-282v278z" />
    <glyph glyph-name="at" unicode="@" horiz-adv-x="2045" 
d="M1549 -62l63 -104q-241 -152 -566 -152q-203 0 -378 60t-303.5 169.5t-202 273t-73.5 361.5q0 157 48 302.5t136 261.5t205 203.5t263 134.5t302 47q199 0 372 -62t291 -166.5t185 -242t67 -287.5q0 -140 -44.5 -258t-121.5 -197.5t-182 -124t-226 -44.5q-91 0 -140 36.5
t-52 103.5h-8q-44 -69 -125.5 -104.5t-173.5 -35.5q-163 0 -263 111.5t-100 265.5q0 80 18.5 158t58.5 151t96.5 129t140.5 89.5t183 33.5q79 0 144 -35t99 -102h8l18 100h219l-143 -673q-19 -103 99 -103q63 0 125 36t111 98t79 153t30 193q0 134 -55 252t-153.5 205.5
t-245 138.5t-320.5 51q-158 0 -303.5 -63.5t-253.5 -173t-173 -265t-65 -329.5q0 -170 62 -308t172 -228.5t258.5 -139.5t322.5 -49q293 0 495 129zM932 286q57 0 106.5 24t82.5 62t57 86t35 96.5t11 93.5q0 108 -48.5 169t-140.5 61q-71 0 -129 -35.5t-92 -91t-52.5 -116.5
t-18.5 -118q0 -108 49 -169.5t140 -61.5z" />
    <glyph glyph-name="A" unicode="A" horiz-adv-x="1495" 
d="M1060 374h-630l-135 -374h-276l562 1462h332l563 -1462h-280zM985 582l-237 653h-8l-235 -653h480z" />
    <glyph glyph-name="B" unicode="B" horiz-adv-x="1376" 
d="M130 1462h669q215 0 333 -107.5t118 -290.5q0 -206 -183 -283v-9q232 -88 232 -347q0 -196 -124.5 -310.5t-350.5 -114.5h-694v1462zM388 849h368q114 0 173.5 52.5t59.5 149.5t-59.5 149.5t-173.5 52.5h-368v-404zM388 214h393q125 0 190.5 58t65.5 163t-65.5 162.5
t-190.5 57.5h-393v-441z" />
    <glyph glyph-name="C" unicode="C" horiz-adv-x="1509" 
d="M1178 519l258 -35q-16 -77 -50 -150t-90 -140t-128.5 -117t-170.5 -80t-210 -30q-205 0 -362.5 91.5t-246.5 266t-89 408.5q0 174 51.5 317.5t143.5 241t221 150.5t282 53q100 0 191 -25t159.5 -66t124.5 -96t92.5 -114t57.5 -121l-253 -48q-42 113 -138 185t-234 72
q-199 0 -317 -144t-118 -405q0 -264 117.5 -408.5t317.5 -144.5q83 0 151.5 27.5t115.5 75.5t77.5 107t46.5 129z" />
    <glyph glyph-name="D" unicode="D" horiz-adv-x="1492" 
d="M130 1462h565q160 0 289.5 -46t223.5 -135.5t145 -229.5t51 -320t-51 -320t-145 -229.5t-223.5 -135.5t-289.5 -46h-565v1462zM388 211h273q232 0 356.5 131t124.5 389t-124.5 389t-356.5 131h-273v-1040z" />
    <glyph glyph-name="E" unicode="E" horiz-adv-x="1251" 
d="M388 856h745v-206h-745v-432h779v-218h-1037v1462h1037v-211h-779v-395z" />
    <glyph glyph-name="F" unicode="F" horiz-adv-x="1234" 
d="M388 1251v-420h745v-206h-745v-625h-258v1462h1037v-211h-779z" />
    <glyph glyph-name="G" unicode="G" horiz-adv-x="1562" 
d="M1441 0h-197v175q-150 -208 -449 -208q-313 0 -509.5 211.5t-196.5 554.5q0 227 89.5 400.5t249.5 267.5t367 94q232 0 404 -119.5t243 -325.5l-259 -31q-52 127 -151 195t-237 68q-204 0 -323.5 -146t-119.5 -403q0 -259 119.5 -406t323.5 -147q178 0 290 107.5
t121 258.5h-385v206h620v-752z" />
    <glyph glyph-name="H" unicode="H" horiz-adv-x="1478" 
d="M1350 1462v-1462h-258v634h-704v-634h-258v1462h258v-613h704v613h258z" />
    <glyph glyph-name="I" unicode="I" horiz-adv-x="528" 
d="M135 0v1462h258v-1462h-258z" />
    <glyph glyph-name="J" unicode="J" horiz-adv-x="1257" 
d="M1127 1462v-975q0 -133 -41 -234t-115 -163t-171.5 -92.5t-217.5 -30.5q-232 0 -378.5 131.5t-172.5 378.5q-3 46 -1 67l245 23q-3 -30 0 -62q18 -169 95.5 -245t211.5 -76q142 0 213.5 75.5t71.5 245.5v957h260z" />
    <glyph glyph-name="K" unicode="K" horiz-adv-x="1339" 
d="M553 731l-193 -204v-527h-258v1462h258v-639l594 639h306l-522 -556l609 -906h-311z" />
    <glyph glyph-name="L" unicode="L" horiz-adv-x="1218" 
d="M130 0v1462h258v-1241h788v-221h-1046z" />
    <glyph glyph-name="M" unicode="M" horiz-adv-x="1736" 
d="M1607 1462v-1462h-247v1116h-8l-388 -1116h-200l-387 1116h-9v-1116h-238v1462h376l358 -1081h9l357 1081h377z" />
    <glyph glyph-name="N" unicode="N" horiz-adv-x="1490" 
d="M1361 0h-280l-704 1105h-9v-1105h-238v1462h290l695 -1088h8v1088h238v-1462z" />
    <glyph glyph-name="O" unicode="O" horiz-adv-x="1585" 
d="M792 1495q208 0 367 -91.5t247.5 -265.5t88.5 -407t-88.5 -407t-247.5 -265.5t-367 -91.5t-367 91.5t-247.5 265.5t-88.5 407t88.5 407t247.5 265.5t367 91.5zM792 180q202 0 321.5 144t119.5 407t-119.5 407t-321.5 144t-321 -144t-119 -407t119 -407t321 -144z" />
    <glyph glyph-name="P" unicode="P" horiz-adv-x="1355" 
d="M130 1462h652q245 0 379.5 -123.5t134.5 -337.5t-134.5 -337.5t-379.5 -123.5h-394v-540h-258v1462zM388 751h355q141 0 215.5 65t74.5 185t-74.5 185t-215.5 65h-355v-500z" />
    <glyph glyph-name="Q" unicode="Q" horiz-adv-x="1585" 
d="M1293 -58l-103 145q-163 -120 -398 -120q-208 0 -367 91.5t-247.5 265.5t-88.5 407t88.5 407t247.5 265.5t367 91.5t367 -91.5t247.5 -265.5t88.5 -407q0 -290 -132 -474l234 -315h-304zM792 180q202 0 321.5 144t119.5 407t-119.5 407t-321.5 144t-321 -144t-119 -407
t119 -407t321 -144z" />
    <glyph glyph-name="R" unicode="R" horiz-adv-x="1406" 
d="M1063 0l-337 559h-338v-559h-258v1462h692q245 0 380.5 -121t135.5 -330q0 -165 -86 -278t-247 -153l359 -580h-301zM388 770h399q141 0 215 63t74 178t-74 177.5t-215 62.5h-399v-481z" />
    <glyph glyph-name="S" unicode="S" horiz-adv-x="1355" 
d="M1237 1056l-255 -20q-26 127 -113.5 192t-224.5 65q-129 0 -206 -58.5t-77 -151.5q0 -80 56 -119.5t166 -65.5l246 -57q62 -16 96 -25.5t89 -29t85.5 -39.5t68.5 -53.5t58 -73t34 -95.5t14 -124q0 -107 -45.5 -191t-125.5 -136.5t-184 -79.5t-225 -27q-270 0 -438.5 125
t-204.5 359l256 26q8 -67 33 -120t61 -87.5t84 -57.5t100.5 -32.5t112.5 -9.5q141 0 227.5 60t86.5 164q0 42 -13.5 74t-33 53t-57 38t-69.5 27t-86 23l-256 64q-56 14 -97.5 27.5t-91 36t-83.5 51.5t-64 69t-45 95t-15 122q0 192 155 306.5t393 114.5q240 0 388.5 -113
t199.5 -326z" />
    <glyph glyph-name="T" unicode="T" horiz-adv-x="1335" 
d="M1280 1242h-483v-1242h-258v1242h-484v220h1225v-220z" />
    <glyph glyph-name="U" unicode="U" horiz-adv-x="1466" 
d="M1337 1462v-923q0 -139 -46 -249t-127.5 -180t-190.5 -106.5t-239 -36.5t-239.5 36.5t-191 106.5t-127.5 180t-46 249v923h258v-898q0 -199 87.5 -289.5t258.5 -90.5t258 90.5t87 289.5v898h258z" />
    <glyph glyph-name="V" unicode="V" horiz-adv-x="1433" 
d="M1409 1462l-547 -1462h-290l-546 1462h279l409 -1176h8l410 1176h277z" />
    <glyph glyph-name="W" unicode="W" horiz-adv-x="1933" 
d="M1227 0l-257 1106h-8l-253 -1106h-304l-365 1462h264l253 -1137h8l255 1137h287l256 -1137h8l254 1137h267l-368 -1462h-297z" />
    <glyph glyph-name="X" unicode="X" horiz-adv-x="1351" 
d="M1020 0l-351 563l-348 -563h-285l492 757l-455 705h293l312 -512l317 512h284l-459 -700l496 -762h-296z" />
    <glyph glyph-name="Y" unicode="Y" horiz-adv-x="1370" 
d="M1343 1462l-529 -894v-568h-258v567l-529 895h283l377 -675l378 675h278z" />
    <glyph glyph-name="Z" unicode="Z" horiz-adv-x="1269" 
d="M390 221h806v-221h-1132v221l812 1021h-764v220h1086v-220z" />
    <glyph glyph-name="bracketleft" unicode="[" horiz-adv-x="638" 
d="M372 -88h226v-190h-455v1824h455v-190h-226v-1444z" />
    <glyph glyph-name="backslash" unicode="\" horiz-adv-x="811" 
d="M789 0h-235l-533 1462h237z" />
    <glyph glyph-name="bracketright" unicode="]" horiz-adv-x="638" 
d="M41 1356v190h454v-1824h-454v190h226v1444h-226z" />
    <glyph glyph-name="asciicircum" unicode="^" horiz-adv-x="1148" 
d="M810 723l-232 499h-8l-232 -499h-208l342 712h204l342 -712h-208z" />
    <glyph glyph-name="underscore" unicode="_" horiz-adv-x="1050" 
d="M-39 -328v103h1126v-103h-1126z" />
    <glyph glyph-name="grave" unicode="`" horiz-adv-x="657" 
d="M381 1528l166 -322h-186l-243 322h263z" />
    <glyph glyph-name="a" unicode="a" horiz-adv-x="1126" 
d="M1046 0h-235q-32 36 -32 146q-49 -84 -150 -127.5t-211 -43.5q-150 0 -255 88.5t-105 234.5q0 167 113.5 246.5t343.5 103.5q151 16 206.5 44t55.5 80q0 70 -51.5 110t-160.5 40q-85 0 -151.5 -44t-93.5 -129l-221 43q35 147 163 231t311 84q228 0 336 -92t108 -245v-544
q0 -99 5 -146t24 -80zM777 424v123q-16 -16 -62.5 -29t-87 -19.5t-114.5 -16.5q-92 -13 -151 -57t-59 -122q0 -72 46 -110.5t127 -38.5q52 0 103 15.5t96.5 46t73.5 85t28 123.5z" />
    <glyph glyph-name="b" unicode="b" horiz-adv-x="1243" 
d="M690 1107q213 0 348.5 -155.5t135.5 -410.5t-136 -410.5t-350 -155.5q-112 0 -200 43t-133 121h-8v-139h-229v1483h240v-525h8q45 69 129 109t195 40zM635 164q136 0 215.5 100t79.5 277t-79.5 277t-215.5 100q-135 0 -213.5 -100t-78.5 -277t78.5 -277t213.5 -100z" />
    <glyph glyph-name="c" unicode="c" horiz-adv-x="1140" 
d="M593 163q63 0 112.5 21.5t78.5 58t45.5 70.5t26.5 74l243 -33q-14 -53 -37.5 -102t-65.5 -101t-96 -90t-133.5 -62t-173.5 -24q-239 0 -381.5 154t-142.5 412t142.5 412t381.5 154q92 0 171 -23.5t130 -58t91 -81t60.5 -83.5t33.5 -75l-229 -64q-66 197 -257 197
q-129 0 -204 -100t-75 -278t75 -278t204 -100z" />
    <glyph glyph-name="d" unicode="d" horiz-adv-x="1234" 
d="M554 1107q111 0 195 -40t129 -109h8v525h240v-1483h-229v139h-8q-45 -78 -133 -121t-200 -43q-214 0 -350.5 155.5t-136.5 410.5t136 410.5t349 155.5zM608 164q135 0 214 100t79 277t-79 277t-214 100q-136 0 -215 -100t-79 -277t79 -277t215 -100z" />
    <glyph glyph-name="e" unicode="e" horiz-adv-x="1181" 
d="M859 343l244 -25q-19 -64 -54.5 -120t-94 -108.5t-152 -83.5t-210.5 -31q-236 0 -379.5 155t-143.5 409q0 259 140.5 413.5t380.5 154.5q122 0 222 -42t170 -120t104 -196t24 -263h-797q4 -144 79.5 -235.5t199.5 -91.5q62 0 111.5 17.5t79.5 47.5t48 58.5t28 60.5z
M590 925q-121 0 -191.5 -76.5t-81.5 -191.5h549q-11 115 -82 191.5t-194 76.5z" />
    <glyph glyph-name="f" unicode="f" horiz-adv-x="741" 
d="M574 1316q-59 0 -92 -25t-33 -96v-113h232v-172h-232v-910h-240v910h-176v172h176v138q0 154 85 221t240 67q91 0 173 -14v-186q-66 8 -133 8z" />
    <glyph glyph-name="g" unicode="g" horiz-adv-x="1218" 
d="M1109 1082v-1004q0 -128 -40 -222.5t-112 -149.5t-163 -81.5t-203 -26.5q-124 0 -223.5 34.5t-175 114t-108.5 199.5l233 40q28 -106 96.5 -152.5t177.5 -46.5q278 0 278 300v105h-8q-45 -64 -126.5 -99.5t-189.5 -35.5q-209 0 -342 144.5t-133 380.5q0 235 133.5 380
t343.5 145q111 0 195.5 -38.5t129.5 -111.5h8v125h229zM600 243q129 0 206.5 93t77.5 246q0 151 -77.5 243.5t-206.5 92.5q-130 0 -207.5 -92t-77.5 -244q0 -153 77.5 -246t207.5 -93z" />
    <glyph glyph-name="h" unicode="h" 
d="M358 940h8q119 167 333 167q59 0 113 -14t102.5 -44.5t84 -75.5t56 -111t20.5 -146v-716h-240v649q0 140 -55.5 200t-168.5 60q-101 0 -177 -92t-76 -242v-575h-240v1483h240v-543z" />
    <glyph glyph-name="i" unicode="i" horiz-adv-x="475" 
d="M118 1483h240v-236h-240v236zM118 1082h240v-1082h-240v1082z" />
    <glyph glyph-name="j" unicode="j" horiz-adv-x="475" 
d="M118 1483h240v-236h-240v236zM27 -199q46 0 68.5 17t22.5 71v1193h240v-1234q0 -75 -16.5 -124.5t-51.5 -77t-80.5 -38t-113.5 -10.5q-108 0 -156 4v201q29 -2 87 -2z" />
    <glyph glyph-name="k" unicode="k" horiz-adv-x="1103" 
d="M358 385v-385h-240v1483h240v-830l420 429h290l-416 -414l462 -668h-283l-345 510z" />
    <glyph glyph-name="l" unicode="l" horiz-adv-x="485" 
d="M123 1483h240v-1483h-240v1483z" />
    <glyph glyph-name="m" unicode="m" horiz-adv-x="1824" 
d="M1353 1107q57 0 109 -14t99 -44.5t81 -75.5t54 -111t20 -146v-716h-240v649q0 139 -52.5 199.5t-155.5 60.5q-96 0 -163.5 -83t-67.5 -233v-593h-240v649q0 139 -52.5 199.5t-155.5 60.5q-96 0 -163.5 -83t-67.5 -233v-593h-240v1082h229v-144h8q118 169 319 169
q100 0 184 -44.5t130 -132.5q75 89 161 133t204 44z" />
    <glyph glyph-name="n" unicode="n" 
d="M347 940h8q116 167 338 167q77 0 144 -23t121 -69t85.5 -122.5t31.5 -176.5v-716h-240v649q0 140 -55.5 200t-168.5 60q-104 0 -178.5 -83.5t-74.5 -232.5v-593h-240v1082h229v-142z" />
    <glyph glyph-name="o" unicode="o" horiz-adv-x="1210" 
d="M606 1107q244 0 389.5 -154t145.5 -412t-145.5 -412t-389.5 -154q-246 0 -391.5 154t-145.5 412t145.5 412t391.5 154zM606 163q135 0 212.5 99.5t77.5 278.5t-77.5 278.5t-212.5 99.5q-136 0 -214 -99.5t-78 -278.5t78 -278.5t214 -99.5z" />
    <glyph glyph-name="p" unicode="p" horiz-adv-x="1243" 
d="M690 -25q-227 0 -324 149h-8v-501h-240v1459h229v-138h8q46 80 132.5 121.5t200.5 41.5q214 0 350 -155.5t136 -410.5t-135.5 -410.5t-348.5 -155.5zM635 918q-135 0 -213.5 -100t-78.5 -277t78.5 -277t213.5 -100q136 0 215.5 100t79.5 277t-79.5 277t-215.5 100z" />
    <glyph glyph-name="q" unicode="q" horiz-adv-x="1234" 
d="M554 -25q-213 0 -349 155.5t-136 410.5t136.5 410.5t350.5 155.5q114 0 200.5 -41.5t132.5 -121.5h8v138h229v-1459h-240v501h-8q-97 -149 -324 -149zM608 918q-136 0 -215 -100t-79 -277t79 -277t215 -100q135 0 214 100t79 277t-79 277t-214 100z" />
    <glyph glyph-name="r" unicode="r" horiz-adv-x="796" 
d="M347 1082v-163h8q44 84 127 136t195 52q52 0 88 -9v-229q-63 9 -108 9q-139 0 -219 -74t-80 -239v-565h-240v1082h229z" />
    <glyph glyph-name="s" unicode="s" horiz-adv-x="1056" 
d="M975 797l-220 -40q-20 87 -85.5 132.5t-152.5 45.5q-90 0 -143.5 -38.5t-53.5 -107.5q0 -26 11 -45.5t27 -32.5t44.5 -23t54 -16t65.5 -13l108 -17q53 -9 93.5 -19.5t86 -27.5t77 -40.5t59 -56.5t41 -79t13.5 -103q0 -111 -63 -189t-168 -115t-242 -37
q-206 0 -337.5 92.5t-159.5 246.5l222 40q46 -208 279 -208q101 0 162.5 43.5t61.5 118.5q0 62 -54.5 92.5t-162.5 49.5l-112 18q-58 9 -102.5 21.5t-93 36.5t-80.5 56.5t-52.5 84t-20.5 117.5q0 143 124.5 233t316.5 90q179 0 306 -89t151 -221z" />
    <glyph glyph-name="t" unicode="t" horiz-adv-x="731" 
d="M572 196q70 0 99 2v-198q-48 -4 -168 -4q-80 0 -132 10.5t-90 37.5t-55 75t-17 123v668h-176v172h176v304h240v-304h232v-172h-232v-605q0 -70 26.5 -89.5t96.5 -19.5z" />
    <glyph glyph-name="u" unicode="u" 
d="M846 142h-8q-116 -167 -338 -167q-77 0 -144 23t-121 69t-85.5 123t-31.5 177v715h240v-648q0 -140 55.5 -200.5t168.5 -60.5q104 0 178.5 84t74.5 233v592h241v-1082h-230v142z" />
    <glyph glyph-name="v" unicode="v" horiz-adv-x="1091" 
d="M683 0h-279l-398 1082h261l276 -812h8l280 812h255z" />
    <glyph glyph-name="w" unicode="w" horiz-adv-x="1701" 
d="M1696 1082l-351 -1082h-268l-226 776h-8l-227 -776h-258l-352 1082h263l224 -799h9l217 799h273l217 -799h8l225 799h254z" />
    <glyph glyph-name="x" unicode="x" horiz-adv-x="1040" 
d="M753 0l-234 379l-245 -379h-266l367 547l-350 535h274l223 -363l223 363h266l-348 -532l369 -550h-279z" />
    <glyph glyph-name="y" unicode="y" horiz-adv-x="1091" 
d="M1079 1082l-403 -1082q-38 -104 -78 -177t-77.5 -116.5t-83 -68t-87 -32.5t-98.5 -8q-87 0 -145 7v205q4 0 21.5 -3t39 -4.5t49.5 -1.5q78 0 118.5 37t81.5 137l16 37l-435 1070h260l289 -788h8l268 788h256z" />
    <glyph glyph-name="z" unicode="z" horiz-adv-x="1015" 
d="M68 0v208l582 672h-552v202h851v-207l-583 -675h583v-200h-881z" />
    <glyph glyph-name="braceleft" unicode="{" horiz-adv-x="737" 
d="M496 1245v-391q0 -182 -175 -216v-8q175 -35 175 -216v-391q0 -53 20 -82t79 -29h101v-190h-163q-141 0 -204 57t-63 189v411q0 88 -44 122t-118 34v198q74 0 118 34t44 122v411q0 132 63 189t204 57h163v-190h-101q-59 0 -79 -29t-20 -82z" />
    <glyph glyph-name="bar" unicode="|" horiz-adv-x="598" 
d="M416 -465h-234v2101h234v-2101z" />
    <glyph glyph-name="braceright" unicode="}" horiz-adv-x="737" 
d="M242 854v391q0 53 -20 82t-79 29h-102v190h163q141 0 204.5 -57t63.5 -189v-411q0 -88 44 -122t118 -34v-198q-74 0 -118 -34t-44 -122v-411q0 -132 -63.5 -189t-204.5 -57h-163v190h102q59 0 79 29t20 82v391q0 181 175 216v8q-175 34 -175 216z" />
    <glyph glyph-name="asciitilde" unicode="~" horiz-adv-x="1001" 
d="M726 670q55 0 112.5 38t102.5 95v-217q-104 -104 -215 -104q-74 0 -164 45l-143 69q-88 43 -144 43q-55 0 -112.5 -38t-102.5 -95v217q105 105 215 105q72 0 164 -46l143 -69q88 -43 144 -43z" />
    <glyph glyph-name="uni00A0" unicode="&#xa0;" horiz-adv-x="344" 
 />
    <glyph glyph-name="exclamdown" unicode="&#xa1;" horiz-adv-x="563" 
d="M419 1093v-267h-275v267h275zM411 9v-378h-258v378l39 648h179z" />
    <glyph glyph-name="cent" unicode="&#xa2;" horiz-adv-x="1138" 
d="M855 380l242 -33q-14 -50 -35.5 -96t-59.5 -94.5t-87 -85t-119.5 -62.5t-154.5 -32v-182h-98v182q-218 17 -346 169t-128 395t128 395t346 169v155h98v-154q82 -6 152.5 -32t116.5 -59.5t82.5 -78t55.5 -80t31 -70.5l-229 -64q-58 171 -209 194v-750q163 25 214 214z
M314 541q0 -159 61 -257t168 -117v748q-107 -19 -168 -117t-61 -257z" />
    <glyph glyph-name="sterling" unicode="&#xa3;" horiz-adv-x="1286" 
d="M1164 285l80 -194q-86 -120 -240 -120q-101 0 -196.5 44.5t-207.5 122.5q-36 -81 -110.5 -124t-170.5 -43q-117 0 -188.5 62t-71.5 174q0 114 67 173.5t167 59.5q63 0 136 -29q-6 84 -57 173h-302v143h221q-127 180 -127 330q0 98 39 176.5t106 127.5t152 75t180 26
q103 0 190.5 -26.5t159 -81t118 -144.5t60.5 -209h-230q-18 130 -95.5 203t-187.5 73q-118 0 -183 -65t-65 -175q0 -20 4 -41.5t8 -38.5t15 -41t17.5 -37.5t22 -39.5t22.5 -36t26 -39t24 -37h400v-143h-326q48 -85 48 -174q0 -57 -13 -100q5 -3 36 -22t37.5 -23t33 -19.5
t36.5 -20t32.5 -16t35.5 -15t31.5 -9.5t34.5 -8t32 -2q119 0 199 110zM321 117q35 0 65 33t40 99q-66 47 -108 47q-38 0 -62 -24.5t-24 -65.5q0 -40 25 -64.5t64 -24.5z" />
    <glyph glyph-name="currency" unicode="&#xa4;" horiz-adv-x="1253" 
d="M1139 754q0 -162 -94 -296l140 -140l-133 -122l-135 136q-129 -90 -290 -90t-290 90l-135 -136l-133 122l140 140q-94 134 -94 296t94 296l-140 139l133 122l135 -135q129 90 290 90t290 -90l135 135l133 -122l-140 -139q94 -134 94 -296zM627 432q125 0 213 94.5
t88 227.5t-88 227.5t-213 94.5t-213 -94.5t-88 -227.5t88 -227.5t213 -94.5z" />
    <glyph glyph-name="yen" unicode="&#xa5;" horiz-adv-x="1402" 
d="M821 562h387v-141h-387v-421h-240v421h-390v141h389l-84 131h-305v143h215l-379 599h262l415 -675l415 675h257l-381 -599h213v-143h-304z" />
    <glyph glyph-name="brokenbar" unicode="&#xa6;" horiz-adv-x="598" 
d="M416 741h-234v895h234v-895zM416 -465h-234v895h234v-895z" />
    <glyph glyph-name="section" unicode="&#xa7;" horiz-adv-x="1413" 
d="M1283 478q0 -105 -55.5 -182t-154.5 -114q88 -91 89 -247q1 -182 -125 -272t-324 -90q-209 0 -337.5 101t-145.5 293l239 24q16 -235 244 -235q100 0 153.5 43.5t52.5 131.5q-1 44 -13 77t-37.5 55.5t-45 34t-54.5 27.5l-365 159q-66 28 -111.5 56.5t-85 68.5t-58.5 94
t-19 123q0 105 62 177t170 106q-95 93 -95 238q0 163 120.5 254.5t306.5 91.5q192 0 305.5 -91t136.5 -262l-232 -16q-25 187 -210 187q-85 0 -134.5 -42t-49.5 -116q0 -105 119 -156l328 -153q68 -30 110 -52t87.5 -55t70.5 -67t41.5 -83t16.5 -109zM490 482l345 -155
q31 -14 87 -42q56 16 86 63.5t30 107.5q0 122 -148 185l-349 154q-17 8 -34 17q-67 -17 -101.5 -59.5t-34.5 -102.5q0 -59 36 -103t83 -65z" />
    <glyph glyph-name="dieresis" unicode="&#xa8;" horiz-adv-x="868" 
d="M118 1468h223v-221h-223v221zM535 1468h224v-221h-224v221z" />
    <glyph glyph-name="copyright" unicode="&#xa9;" horiz-adv-x="1787" 
d="M894 -33q-155 0 -296.5 60.5t-244 163t-163 244.5t-60.5 298q0 155 60.5 296t163 243t244 162.5t296.5 60.5t296.5 -60.5t243.5 -162.5t162.5 -243t60.5 -296q0 -156 -60.5 -298t-162.5 -244.5t-243.5 -163t-296.5 -60.5zM894 106q170 0 314 83.5t227.5 228t83.5 315.5
q0 169 -83.5 312.5t-227.5 227t-314 83.5t-314 -83.5t-227.5 -227t-83.5 -312.5q0 -171 83.5 -315.5t227.5 -228t314 -83.5zM1060 639l182 -18q-23 -116 -115 -194.5t-231 -78.5q-162 0 -262.5 102.5t-100.5 282.5q0 177 100.5 279t262.5 102q131 0 220.5 -69t114.5 -166
l-180 -24q-39 119 -155 119q-80 0 -129.5 -59.5t-49.5 -181.5q0 -124 49.5 -184t129.5 -60q66 0 107 40t57 110z" />
    <glyph glyph-name="ordfeminine" unicode="&#xaa;" horiz-adv-x="792" 
d="M709 776h-181q-17 20 -20 96q-28 -54 -91 -83t-137 -29q-95 0 -162 56t-67 148q0 107 71 158t215 67q99 12 135 29t36 48q0 40 -30.5 62.5t-90.5 22.5q-49 0 -87 -25.5t-55 -76.5l-167 25q23 98 107 153t208 55q149 0 223 -60t74 -163v-344q0 -106 19 -139zM508 1045v70
q-5 -4 -11.5 -7t-17 -6t-18.5 -5t-23.5 -4.5t-24.5 -4t-27.5 -5t-27.5 -4.5q-121 -20 -121 -106q0 -41 26.5 -64t72.5 -23q66 0 119 40t53 119zM749 0h-705v183h705v-183z" />
    <glyph glyph-name="guillemotleft" unicode="&#xab;" horiz-adv-x="991" 
d="M454 1004v-243l-217 -198v-8l217 -199v-244l-367 318v257zM909 1004v-243l-217 -198v-8l217 -199v-244l-367 318v257z" />
    <glyph glyph-name="logicalnot" unicode="&#xac;" horiz-adv-x="1003" 
d="M943 292h-190v357h-693v188h883v-545z" />
    <glyph glyph-name="registered" unicode="&#xae;" horiz-adv-x="1787" 
d="M894 1495q155 0 296.5 -60.5t243.5 -162.5t162.5 -243t60.5 -296q0 -156 -60.5 -298t-162.5 -244.5t-243.5 -163t-296.5 -60.5t-296.5 60.5t-244 163t-163 244.5t-60.5 298q0 155 60.5 296t163 243t244 162.5t296.5 60.5zM894 106q169 0 313 84t228 228.5t84 314.5
q0 168 -84 311.5t-228 227.5t-313 84t-313 -84t-228 -227.5t-84 -311.5q0 -170 84 -314.5t228 -228.5t313 -84zM1223 860q0 -169 -149 -221l169 -274h-206l-147 256h-129v-256h-178v733h370q127 0 198.5 -63.5t71.5 -174.5zM761 759h158q59 0 90 26.5t31 74.5q0 47 -31 73.5
t-90 26.5h-158v-201z" />
    <glyph glyph-name="macron" unicode="&#xaf;" horiz-adv-x="839" 
d="M118 1279v169h612v-169h-612z" />
    <glyph glyph-name="degree" unicode="&#xb0;" horiz-adv-x="880" 
d="M440 856q-128 0 -219 86.5t-91 216.5q0 131 91 218t219 87t219 -87t91 -218q0 -130 -91 -216.5t-219 -86.5zM440 993q68 0 113 48t45 118t-45 118t-113 48t-113 -48t-45 -118t45 -118t113 -48z" />
    <glyph glyph-name="plusminus" unicode="&#xb1;" horiz-adv-x="1003" 
d="M943 580h-345v-361h-193v361h-345v188h345v358h193v-358h345v-188zM943 188v-188h-883v188h883z" />
    <glyph glyph-name="twosuperior" unicode="&#xb2;" horiz-adv-x="806" 
d="M52 602v33q0 58 16.5 108.5t38 83.5t62.5 69t67.5 54.5t76.5 49.5q5 3 8 5l90 57q37 23 54 34.5t42 32.5t35.5 42.5t10.5 45.5q0 57 -37 87.5t-107 30.5q-71 0 -115 -42t-52 -120l-187 9q11 143 111 220t246 77q149 0 242.5 -66t93.5 -193q0 -27 -4 -51t-15 -46
t-19.5 -38t-28.5 -35l-30 -28.5t-37 -27t-35 -23t-39 -23t-36 -20.5l-91 -54q-122 -74 -131 -117h460v-155h-690z" />
    <glyph glyph-name="threesuperior" unicode="&#xb3;" horiz-adv-x="823" 
d="M302 1108h87q70 0 112.5 31.5t42.5 84.5q0 52 -40.5 82t-102.5 30q-63 0 -104 -32t-51 -93l-183 12q11 120 101.5 188t236.5 68q148 0 239.5 -65.5t91.5 -181.5q0 -64 -39 -108.5t-104 -66.5v-8q75 -19 120.5 -68.5t45.5 -128.5q1 -134 -97 -200t-257 -66
q-158 0 -256.5 68.5t-113.5 206.5l192 14q17 -145 178 -145q70 0 115.5 33.5t45.5 91.5q0 62 -46 93t-127 31h-87v129z" />
    <glyph glyph-name="acute" unicode="&#xb4;" horiz-adv-x="657" 
d="M304 1206h-186l166 322h263z" />
    <glyph glyph-name="paragraph" unicode="&#xb6;" horiz-adv-x="1374" 
d="M1244 -377h-199v1662h-231v-1662h-199v963q-260 0 -403 117t-143 321q0 202 143 320t403 118h629v-1839z" />
    <glyph glyph-name="periodcentered" unicode="&#xb7;" horiz-adv-x="567" 
d="M283 481q-69 0 -117.5 48.5t-48.5 117.5q0 68 48.5 117t117.5 49t118 -49t49 -117q0 -69 -49 -117.5t-118 -48.5z" />
    <glyph glyph-name="cedilla" unicode="&#xb8;" horiz-adv-x="688" 
d="M118 -416l38 121q80 -41 158 -41q34 0 61 19.5t27 57.5q0 63 -88 63q-32 0 -83 -15v123l82 88l74 78l163 11l-82 -89l-65 -71v-10q79 -9 127.5 -54t48.5 -126q0 -100 -69 -151t-184 -51q-121 0 -208 47z" />
    <glyph glyph-name="onesuperior" unicode="&#xb9;" horiz-adv-x="575" 
d="M420 1462v-860h-184v595h-202v120h40q84 0 131 41t61 104h154z" />
    <glyph glyph-name="ordmasculine" unicode="&#xba;" horiz-adv-x="792" 
d="M395 1482q164 0 259 -97.5t95 -264.5q0 -165 -95 -262.5t-259 -97.5q-163 0 -257 97t-94 263q0 167 94 264.5t257 97.5zM395 897q79 0 123 57t44 166q0 110 -44 167.5t-123 57.5q-77 0 -121 -57.5t-44 -167.5q0 -108 44 -165.5t121 -57.5zM749 0h-705v183h705v-183z" />
    <glyph glyph-name="guillemotright" unicode="&#xbb;" horiz-adv-x="991" 
d="M450 430l-367 -318v244l217 199v8l-217 198v243l367 -317v-257zM904 430l-366 -318v244l216 199v8l-216 198v243l366 -317v-257z" />
    <glyph glyph-name="questiondown" unicode="&#xbf;" horiz-adv-x="1165" 
d="M721 816h-282v277h282v-277zM872 77l231 -43q-39 -210 -178.5 -323t-347.5 -113q-220 0 -358.5 107.5t-138.5 293.5q0 61 14 112.5t32.5 85.5t51.5 67t56 50t61 41q95 63 132.5 124.5t37.5 163.5v14h227v-75q0 -126 -51 -208t-165 -157q-69 -44 -103 -95t-34 -132
q0 -88 63 -139t173 -51q112 0 188.5 69t108.5 208z" />
    <glyph glyph-name="Agrave" unicode="&#xc0;" horiz-adv-x="1495" 
d="M654 1568l-244 322h264l166 -322h-186zM1060 374h-630l-135 -374h-276l562 1462h332l563 -1462h-280zM985 582l-237 653h-8l-235 -653h480z" />
    <glyph glyph-name="Aacute" unicode="&#xc1;" horiz-adv-x="1495" 
d="M840 1568h-186l166 322h263zM1060 374h-630l-135 -374h-276l562 1462h332l563 -1462h-280zM985 582l-237 653h-8l-235 -653h480z" />
    <glyph glyph-name="Acircumflex" unicode="&#xc2;" horiz-adv-x="1495" 
d="M605 1562h-240l277 322h210l277 -322h-240l-138 178h-8zM1060 374h-630l-135 -374h-276l562 1462h332l563 -1462h-280zM985 582l-237 653h-8l-235 -653h480z" />
    <glyph glyph-name="Atilde" unicode="&#xc3;" horiz-adv-x="1495" 
d="M614 1701q-59 0 -76 -90l-144 28q17 119 79 175.5t154 56.5q24 0 49 -8.5t37 -15.5t38 -23l48 -31q51 -35 81 -35q59 0 76 91l144 -28q-17 -120 -79 -176.5t-154 -56.5q-54 0 -124 47l-48 31q-51 35 -81 35zM1060 374h-630l-135 -374h-276l562 1462h332l563 -1462h-280z
M985 582l-237 653h-8l-235 -653h480z" />
    <glyph glyph-name="Adieresis" unicode="&#xc4;" horiz-adv-x="1495" 
d="M650 1609h-223v222h223v-222zM1068 1609h-224v222h224v-222zM1060 374h-630l-135 -374h-276l562 1462h332l563 -1462h-280zM985 582l-237 653h-8l-235 -653h480z" />
    <glyph glyph-name="Aring" unicode="&#xc5;" horiz-adv-x="1495" 
d="M749 1541q-100 0 -167.5 65.5t-67.5 161.5t67.5 161.5t167.5 65.5q96 0 163.5 -65.5t67.5 -161.5t-67.5 -161.5t-163.5 -65.5zM749 1875q-46 0 -75 -29.5t-29 -77.5t29 -77.5t75 -29.5q43 0 71.5 30t28.5 77t-28.5 77t-71.5 30zM1060 374h-630l-135 -374h-276l562 1462
h332l563 -1462h-280zM985 582l-237 653h-8l-235 -653h480z" />
    <glyph glyph-name="AE" unicode="&#xc6;" horiz-adv-x="2232" 
d="M1382 1247v-391h730v-212h-730v-428h768v-216h-1017v403h-602l-224 -403h-288l845 1462h1286v-215h-768zM1133 608v639h-133l-355 -639h488z" />
    <glyph glyph-name="Ccedilla" unicode="&#xc7;" horiz-adv-x="1517" 
d="M828 -71v-10q79 -9 128 -54t49 -126q0 -100 -69.5 -151t-184.5 -51q-121 0 -208 47l38 121q80 -41 158 -41q34 0 61.5 19.5t27.5 57.5q0 63 -89 63q-32 0 -83 -15v123l55 59q-282 26 -452 229t-170 533q0 174 51.5 317.5t143.5 241t221 150.5t282 53q100 0 191 -25
t159.5 -66t124.5 -96t92.5 -114t57.5 -121l-253 -48q-42 113 -138 185t-234 72q-199 0 -317 -144t-118 -405q0 -264 117.5 -408.5t317.5 -144.5q83 0 152.5 27.5t117 75.5t79.5 107t50 129l259 -35q-20 -90 -65.5 -173.5t-115.5 -156t-173 -121.5t-224 -61z" />
    <glyph glyph-name="Egrave" unicode="&#xc8;" horiz-adv-x="1251" 
d="M575 1890l167 -322h-187l-243 322h263zM388 856h745v-206h-745v-432h779v-218h-1037v1462h1037v-211h-779v-395z" />
    <glyph glyph-name="Eacute" unicode="&#xc9;" horiz-adv-x="1251" 
d="M742 1568h-187l167 322h263zM388 856h745v-206h-745v-432h779v-218h-1037v1462h1037v-211h-779v-395z" />
    <glyph glyph-name="Ecircumflex" unicode="&#xca;" horiz-adv-x="1251" 
d="M653 1740h-9l-137 -178h-240l276 322h211l277 -322h-240zM388 856h745v-206h-745v-432h779v-218h-1037v1462h1037v-211h-779v-395z" />
    <glyph glyph-name="Edieresis" unicode="&#xcb;" horiz-adv-x="1251" 
d="M328 1831h224v-222h-224v222zM745 1831h224v-222h-224v222zM388 856h745v-206h-745v-432h779v-218h-1037v1462h1037v-211h-779v-395z" />
    <glyph glyph-name="Igrave" unicode="&#xcc;" horiz-adv-x="528" 
d="M191 1890l166 -322h-186l-244 322h264zM135 0v1462h258v-1462h-258z" />
    <glyph glyph-name="Iacute" unicode="&#xcd;" horiz-adv-x="528" 
d="M357 1568h-186l166 322h264zM135 0v1462h258v-1462h-258z" />
    <glyph glyph-name="Icircumflex" unicode="&#xce;" horiz-adv-x="528" 
d="M268 1740h-8l-138 -178h-240l277 322h211l276 -322h-240zM135 0v1462h258v-1462h-258z" />
    <glyph glyph-name="Idieresis" unicode="&#xcf;" horiz-adv-x="528" 
d="M-56 1831h224v-222h-224v222zM361 1831h224v-222h-224v222zM135 0v1462h258v-1462h-258z" />
    <glyph glyph-name="Eth" unicode="&#xd0;" horiz-adv-x="1492" 
d="M130 1462h565q160 0 289.5 -46t223.5 -135.5t145 -229.5t51 -320t-51 -320t-145 -229.5t-223.5 -135.5t-289.5 -46h-565v635h-138v194h138v633zM388 211h273q232 0 356.5 131t124.5 389t-124.5 389t-356.5 131h-273v-422h311v-194h-311v-424z" />
    <glyph glyph-name="Ntilde" unicode="&#xd1;" horiz-adv-x="1490" 
d="M1099 1820l-144 28q-17 -90 -76 -90q-30 0 -81 35l-48 31q-26 16 -38 23t-37 15.5t-49 8.5q-92 0 -154.5 -57t-79.5 -176l144 -28q17 90 77 90q31 0 81 -34l48 -31q70 -47 124 -47q92 0 154 56.5t79 175.5zM1361 0h-280l-704 1105h-9v-1105h-238v1462h290l695 -1088h8
v1088h238v-1462z" />
    <glyph glyph-name="Ograve" unicode="&#xd2;" horiz-adv-x="1585" 
d="M719 1890l166 -322h-186l-244 322h264zM792 1495q208 0 367 -91.5t247.5 -265.5t88.5 -407t-88.5 -407t-247.5 -265.5t-367 -91.5t-367 91.5t-247.5 265.5t-88.5 407t88.5 407t247.5 265.5t367 91.5zM792 180q202 0 321.5 144t119.5 407t-119.5 407t-321.5 144t-321 -144
t-119 -407t119 -407t321 -144z" />
    <glyph glyph-name="Oacute" unicode="&#xd3;" horiz-adv-x="1585" 
d="M885 1568h-186l166 322h264zM792 1495q208 0 367 -91.5t247.5 -265.5t88.5 -407t-88.5 -407t-247.5 -265.5t-367 -91.5t-367 91.5t-247.5 265.5t-88.5 407t88.5 407t247.5 265.5t367 91.5zM792 180q202 0 321.5 144t119.5 407t-119.5 407t-321.5 144t-321 -144t-119 -407
t119 -407t321 -144z" />
    <glyph glyph-name="Ocircumflex" unicode="&#xd4;" horiz-adv-x="1585" 
d="M796 1740h-8l-138 -178h-240l277 322h211l276 -322h-240zM792 1495q208 0 367 -91.5t247.5 -265.5t88.5 -407t-88.5 -407t-247.5 -265.5t-367 -91.5t-367 91.5t-247.5 265.5t-88.5 407t88.5 407t247.5 265.5t367 91.5zM792 180q202 0 321.5 144t119.5 407t-119.5 407
t-321.5 144t-321 -144t-119 -407t119 -407t321 -144z" />
    <glyph glyph-name="Otilde" unicode="&#xd5;" horiz-adv-x="1585" 
d="M1146 1821l-145 28q-17 -91 -76 -91q-30 0 -81 35l-48 31q-26 16 -38 23t-37 15.5t-49 8.5q-92 0 -154 -56.5t-79 -175.5l144 -28q17 90 76 90q30 0 81 -35l48 -31q70 -47 124 -47q92 0 154.5 57t79.5 176zM792 1495q208 0 367 -91.5t247.5 -265.5t88.5 -407t-88.5 -407
t-247.5 -265.5t-367 -91.5t-367 91.5t-247.5 265.5t-88.5 407t88.5 407t247.5 265.5t367 91.5zM792 180q202 0 321.5 144t119.5 407t-119.5 407t-321.5 144t-321 -144t-119 -407t119 -407t321 -144z" />
    <glyph glyph-name="Odieresis" unicode="&#xd6;" horiz-adv-x="1585" 
d="M472 1831h224v-222h-224v222zM889 1831h224v-222h-224v222zM792 1495q208 0 367 -91.5t247.5 -265.5t88.5 -407t-88.5 -407t-247.5 -265.5t-367 -91.5t-367 91.5t-247.5 265.5t-88.5 407t88.5 407t247.5 265.5t367 91.5zM792 180q202 0 321.5 144t119.5 407t-119.5 407
t-321.5 144t-321 -144t-119 -407t119 -407t321 -144z" />
    <glyph glyph-name="multiply" unicode="&#xd7;" horiz-adv-x="1003" 
d="M940 968l-305 -301l308 -304l-135 -130l-307 301l-306 -301l-135 130l308 304l-303 301l134 131l302 -299l305 299z" />
    <glyph glyph-name="Oslash" unicode="&#xd8;" horiz-adv-x="1628" 
d="M1536 1427l-178 -206q137 -196 137 -490q0 -233 -88.5 -407t-247.5 -265.5t-367 -91.5q-241 0 -416 124l-150 -173l-119 111l150 173q-168 204 -168 529q0 233 88.5 407t247.5 265.5t367 91.5q271 0 454 -152l171 197zM352 731q0 -203 72 -336l667 769q-113 118 -299 118
q-202 0 -321 -144t-119 -407zM1233 731q0 166 -50 289l-654 -753q108 -87 263 -87q202 0 321.5 144t119.5 407z" />
    <glyph glyph-name="Ugrave" unicode="&#xd9;" horiz-adv-x="1466" 
d="M660 1890l167 -322h-187l-243 322h263zM1337 1462v-923q0 -139 -46 -249t-127.5 -180t-190.5 -106.5t-239 -36.5t-239.5 36.5t-191 106.5t-127.5 180t-46 249v923h258v-898q0 -199 87.5 -289.5t258.5 -90.5t258 90.5t87 289.5v898h258z" />
    <glyph glyph-name="Uacute" unicode="&#xda;" horiz-adv-x="1466" 
d="M827 1568h-187l167 322h263zM1337 1462v-923q0 -139 -46 -249t-127.5 -180t-190.5 -106.5t-239 -36.5t-239.5 36.5t-191 106.5t-127.5 180t-46 249v923h258v-898q0 -199 87.5 -289.5t258.5 -90.5t258 90.5t87 289.5v898h258z" />
    <glyph glyph-name="Ucircumflex" unicode="&#xdb;" horiz-adv-x="1466" 
d="M738 1739h-8l-138 -177h-240l276 322h211l277 -322h-240zM1337 1462v-923q0 -139 -46 -249t-127.5 -180t-190.5 -106.5t-239 -36.5t-239.5 36.5t-191 106.5t-127.5 180t-46 249v923h258v-898q0 -199 87.5 -289.5t258.5 -90.5t258 90.5t87 289.5v898h258z" />
    <glyph glyph-name="Udieresis" unicode="&#xdc;" horiz-adv-x="1466" 
d="M413 1830h224v-221h-224v221zM830 1830h224v-221h-224v221zM1337 1462v-923q0 -139 -46 -249t-127.5 -180t-190.5 -106.5t-239 -36.5t-239.5 36.5t-191 106.5t-127.5 180t-46 249v923h258v-898q0 -199 87.5 -289.5t258.5 -90.5t258 90.5t87 289.5v898h258z" />
    <glyph glyph-name="Yacute" unicode="&#xdd;" horiz-adv-x="1370" 
d="M781 1568h-187l166 322h264zM1343 1462l-529 -894v-568h-258v567l-529 895h283l377 -675l378 675h278z" />
    <glyph glyph-name="Thorn" unicode="&#xde;" horiz-adv-x="1355" 
d="M388 1201h394q245 0 379.5 -123.5t134.5 -337.5t-134.5 -337.5t-379.5 -123.5h-394v-279h-258v1462h258v-261zM388 490h355q141 0 215.5 65t74.5 185t-74.5 185t-215.5 65h-355v-500z" />
    <glyph glyph-name="germandbls" unicode="&#xdf;" horiz-adv-x="1269" 
d="M822 648l163 -92q46 -26 72 -42.5t57.5 -43t47.5 -52.5t27 -64.5t11 -85.5q0 -144 -104.5 -218.5t-277.5 -74.5q-151 0 -247.5 66t-127.5 179l209 36q38 -113 166 -113q71 0 108.5 28.5t37.5 79.5q0 42 -28 69.5t-87 61.5l-156 87q-94 51 -129 100.5t-35 111.5
q0 46 15 83t39.5 60t56 44t64 35.5t64 34.5t56 41.5t39.5 56t15 77.5q0 77 -61.5 135.5t-165.5 58.5q-57 0 -108 -17.5t-93 -52.5t-67 -95.5t-25 -139.5v-1002h-240v1022q0 105 31 189t82 138.5t120 91t142 52t152 15.5q113 0 205 -33.5t149.5 -89.5t88 -126t30.5 -147
q0 -63 -20 -114t-52.5 -83t-72 -57t-78.5 -41.5t-71.5 -31t-52.5 -31.5t-20 -36q0 -29 71 -70z" />
    <glyph glyph-name="agrave" unicode="&#xe0;" horiz-adv-x="1126" 
d="M499 1528l167 -322h-187l-243 322h263zM1046 0h-235q-32 36 -32 146q-49 -84 -150 -127.5t-211 -43.5q-150 0 -255 88.5t-105 234.5q0 167 113.5 246.5t343.5 103.5q151 16 206.5 44t55.5 80q0 70 -51.5 110t-160.5 40q-85 0 -151.5 -44t-93.5 -129l-221 43
q35 147 163 231t311 84q228 0 336 -92t108 -245v-544q0 -99 5 -146t24 -80zM777 424v123q-16 -16 -62.5 -29t-87 -19.5t-114.5 -16.5q-92 -13 -151 -57t-59 -122q0 -72 46 -110.5t127 -38.5q52 0 103 15.5t96.5 46t73.5 85t28 123.5z" />
    <glyph glyph-name="aacute" unicode="&#xe1;" horiz-adv-x="1126" 
d="M666 1206h-187l167 322h263zM1046 0h-235q-32 36 -32 146q-49 -84 -150 -127.5t-211 -43.5q-150 0 -255 88.5t-105 234.5q0 167 113.5 246.5t343.5 103.5q151 16 206.5 44t55.5 80q0 70 -51.5 110t-160.5 40q-85 0 -151.5 -44t-93.5 -129l-221 43q35 147 163 231t311 84
q228 0 336 -92t108 -245v-544q0 -99 5 -146t24 -80zM777 424v123q-16 -16 -62.5 -29t-87 -19.5t-114.5 -16.5q-92 -13 -151 -57t-59 -122q0 -72 46 -110.5t127 -38.5q52 0 103 15.5t96.5 46t73.5 85t28 123.5z" />
    <glyph glyph-name="acircumflex" unicode="&#xe2;" horiz-adv-x="1126" 
d="M577 1384h-8l-138 -178h-240l276 322h211l277 -322h-240zM1046 0h-235q-32 36 -32 146q-48 -83 -149.5 -127t-211.5 -44q-150 0 -255 88.5t-105 234.5q0 167 113.5 246.5t343.5 103.5q151 16 206.5 44t55.5 80q0 70 -51.5 110t-160.5 40q-85 0 -151.5 -44t-93.5 -129
l-221 43q35 147 163 231t311 84q228 0 336 -92t108 -245v-544q0 -99 5 -146t24 -80zM777 424v123q-16 -16 -62.5 -29t-87 -19.5t-114.5 -16.5q-92 -13 -151 -57t-59 -122q0 -72 46 -110.5t127 -38.5q52 0 103 15.5t96.5 46t73.5 85t28 123.5z" />
    <glyph glyph-name="atilde" unicode="&#xe3;" horiz-adv-x="1126" 
d="M926 1482l-144 28q-17 -90 -76 -90q-31 0 -81 34l-48 31q-26 16 -38 23t-37 15.5t-49 8.5q-92 0 -154.5 -56.5t-79.5 -175.5l144 -28q17 90 77 90q30 0 81 -35l48 -31q70 -47 124 -47q92 0 154 56.5t79 176.5zM1046 0h-235q-32 36 -32 146q-48 -83 -149.5 -127
t-211.5 -44q-150 0 -255 88.5t-105 234.5q0 167 113.5 246.5t343.5 103.5q151 16 206.5 44t55.5 80q0 70 -51.5 110t-160.5 40q-85 0 -151.5 -44t-93.5 -129l-221 43q35 147 163 231t311 84q228 0 336 -92t108 -245v-544q0 -99 5 -146t24 -80zM777 424v123
q-16 -16 -62.5 -29t-87 -19.5t-114.5 -16.5q-92 -13 -151 -57t-59 -122q0 -72 46 -110.5t127 -38.5q52 0 103 15.5t96.5 46t73.5 85t28 123.5z" />
    <glyph glyph-name="adieresis" unicode="&#xe4;" horiz-adv-x="1126" 
d="M252 1468h224v-221h-224v221zM669 1468h224v-221h-224v221zM1046 0h-235q-32 36 -32 146q-48 -83 -149.5 -127t-211.5 -44q-150 0 -255 88.5t-105 234.5q0 167 113.5 246.5t343.5 103.5q151 16 206.5 44t55.5 80q0 70 -51.5 110t-160.5 40q-85 0 -151.5 -44t-93.5 -129
l-221 43q35 147 163 231t311 84q228 0 336 -92t108 -245v-544q0 -99 5 -146t24 -80zM777 424v123q-16 -16 -62.5 -29t-87 -19.5t-114.5 -16.5q-92 -13 -151 -57t-59 -122q0 -72 46 -110.5t127 -38.5q52 0 103 15.5t96.5 46t73.5 85t28 123.5z" />
    <glyph glyph-name="aring" unicode="&#xe5;" horiz-adv-x="1126" 
d="M575 1202q-100 0 -168 65.5t-68 161.5t68 161.5t168 65.5q96 0 163.5 -65.5t67.5 -161.5t-67.5 -161.5t-163.5 -65.5zM575 1322q43 0 71.5 30t28.5 77t-28.5 77t-71.5 30q-46 0 -75.5 -29.5t-29.5 -77.5t29.5 -77.5t75.5 -29.5zM1046 0h-235q-32 36 -32 146
q-49 -84 -150 -127.5t-211 -43.5q-150 0 -255 88.5t-105 234.5q0 167 113.5 246.5t343.5 103.5q151 16 206.5 44t55.5 80q0 70 -51.5 110t-160.5 40q-85 0 -151.5 -44t-93.5 -129l-221 43q35 147 163 231t311 84q228 0 336 -92t108 -245v-544q0 -99 5 -146t24 -80zM777 424
v123q-16 -16 -62.5 -29t-87 -19.5t-114.5 -16.5q-92 -13 -151 -57t-59 -122q0 -72 46 -110.5t127 -38.5q52 0 103 15.5t96.5 46t73.5 85t28 123.5z" />
    <glyph glyph-name="ae" unicode="&#xe6;" horiz-adv-x="1888" 
d="M1297 1107q122 0 222 -42t170 -120t104 -196t24 -263h-797q4 -144 79.5 -235.5t199.5 -91.5q62 0 111 17.5t79.5 47.5t48 58.5t28.5 60.5l244 -25q-19 -64 -54.5 -120t-94 -108.5t-152 -83.5t-210.5 -31q-132 0 -235.5 57.5t-168.5 162.5q-58 -110 -178 -165t-268 -55
q-172 0 -281.5 87.5t-109.5 235.5q0 167 113.5 246.5t343.5 103.5q151 16 206.5 44t55.5 80q0 70 -51.5 110t-160.5 40q-85 0 -151.5 -44t-93.5 -129l-221 43q35 147 163 231t311 84q273 0 381 -141q128 141 343 141zM1024 657h550q-11 115 -82.5 191.5t-194.5 76.5
q-121 0 -191.5 -76.5t-81.5 -191.5zM777 424v123q-16 -16 -62.5 -29t-87 -19.5t-114.5 -16.5q-92 -13 -151 -57t-59 -122q0 -72 46 -110.5t127 -38.5q52 0 103 15.5t96.5 46t73.5 85t28 123.5z" />
    <glyph glyph-name="ccedilla" unicode="&#xe7;" horiz-adv-x="1140" 
d="M638 -71v-10q79 -9 128 -54t49 -126q0 -100 -69.5 -151t-184.5 -51q-121 0 -208 47l38 121q80 -41 158 -41q34 0 61.5 19.5t27.5 57.5q0 63 -89 63q-32 0 -83 -15v123l61 65q-211 22 -334.5 173.5t-123.5 390.5q0 258 142.5 412t381.5 154q92 0 171 -23.5t130 -58t91 -81
t60.5 -83.5t33.5 -75l-229 -64q-66 197 -257 197q-129 0 -204 -100t-75 -278t75 -278t204 -100q63 0 112.5 21.5t78.5 58t45.5 70.5t26.5 74l243 -33q-16 -60 -45 -115.5t-77 -110.5t-123 -94.5t-168 -52.5z" />
    <glyph glyph-name="egrave" unicode="&#xe8;" horiz-adv-x="1181" 
d="M517 1528l166 -322h-187l-243 322h264zM859 343l244 -25q-19 -64 -54.5 -120t-94 -108.5t-152 -83.5t-210.5 -31q-236 0 -379.5 155t-143.5 409q0 259 140.5 413.5t380.5 154.5q122 0 222 -42t170 -120t104 -196t24 -263h-797q4 -144 79.5 -235.5t199.5 -91.5
q62 0 111.5 17.5t79.5 47.5t48 58.5t28 60.5zM590 925q-121 0 -191.5 -76.5t-81.5 -191.5h549q-11 115 -82 191.5t-194 76.5z" />
    <glyph glyph-name="eacute" unicode="&#xe9;" horiz-adv-x="1181" 
d="M683 1206h-187l167 322h263zM859 343l244 -25q-19 -64 -54.5 -120t-94 -108.5t-152 -83.5t-210.5 -31q-236 0 -379.5 155t-143.5 409q0 259 140.5 413.5t380.5 154.5q122 0 222 -42t170 -120t104 -196t24 -263h-797q4 -144 79.5 -235.5t199.5 -91.5q62 0 111.5 17.5
t79.5 47.5t48 58.5t28 60.5zM590 925q-121 0 -191.5 -76.5t-81.5 -191.5h549q-11 115 -82 191.5t-194 76.5z" />
    <glyph glyph-name="ecircumflex" unicode="&#xea;" horiz-adv-x="1181" 
d="M594 1384h-8l-138 -178h-240l276 322h211l277 -322h-240zM859 343l243 -25q-15 -50 -39 -95.5t-66.5 -92t-96.5 -80t-133.5 -54.5t-174.5 -21q-237 0 -380 154.5t-143 409.5q0 259 140.5 413.5t380.5 154.5q122 0 222 -42t170 -120t104 -196t24 -263h-797
q4 -144 79.5 -235.5t199.5 -91.5q62 0 111 17.5t79.5 47.5t48 58.5t28.5 60.5zM590 925q-121 0 -191.5 -76.5t-81.5 -191.5h549q-11 115 -82 191.5t-194 76.5z" />
    <glyph glyph-name="edieresis" unicode="&#xeb;" horiz-adv-x="1181" 
d="M269 1468h224v-221h-224v221zM686 1468h224v-221h-224v221zM859 343l244 -25q-19 -64 -54.5 -120t-94 -108.5t-152 -83.5t-210.5 -31q-236 0 -379.5 155t-143.5 409q0 259 140.5 413.5t380.5 154.5q122 0 222 -42t170 -120t104 -196t24 -263h-797q4 -144 79.5 -235.5
t199.5 -91.5q62 0 111.5 17.5t79.5 47.5t48 58.5t28 60.5zM590 925q-121 0 -191.5 -76.5t-81.5 -191.5h549q-11 115 -82 191.5t-194 76.5z" />
    <glyph glyph-name="igrave" unicode="&#xec;" horiz-adv-x="475" 
d="M164 1528l167 -322h-187l-243 322h263zM118 1082h240v-1082h-240v1082z" />
    <glyph glyph-name="iacute" unicode="&#xed;" horiz-adv-x="475" 
d="M331 1206h-187l167 322h263zM118 1082h240v-1082h-240v1082z" />
    <glyph glyph-name="icircumflex" unicode="&#xee;" horiz-adv-x="475" 
d="M242 1384h-9l-137 -178h-240l276 322h211l277 -322h-240zM118 1082h240v-1082h-240v1082z" />
    <glyph glyph-name="idieresis" unicode="&#xef;" horiz-adv-x="475" 
d="M-83 1468h224v-221h-224v221zM334 1468h224v-221h-224v221zM118 1082h240v-1082h-240v1082z" />
    <glyph glyph-name="eth" unicode="&#xf0;" horiz-adv-x="1214" 
d="M1010 1491l-214 -138q100 -73 170 -165.5t108 -199t54 -214t16 -232.5q0 -260 -146 -412.5t-390 -152.5q-240 0 -389.5 143.5t-149.5 365.5q0 225 147.5 369.5t378.5 144.5q148 0 260 -95q-68 208 -246 328l-233 -151l-120 121l183 118q-125 49 -289 78l87 166
q231 -40 398 -118l255 164zM608 163q132 0 211.5 90t79.5 233q0 144 -79.5 236t-211.5 92q-133 0 -214 -92t-81 -236q0 -142 81 -232.5t214 -90.5z" />
    <glyph glyph-name="ntilde" unicode="&#xf1;" 
d="M950 1482l-144 28q-17 -90 -76 -90q-31 0 -81 34l-48 31q-26 16 -38 23t-37 15.5t-49 8.5q-92 0 -154.5 -56.5t-79.5 -175.5l144 -28q17 90 77 90q29 0 80 -35l49 -31q70 -47 123 -47q92 0 154.5 57t79.5 176zM347 940h8q116 167 338 167q77 0 144 -23t121 -69
t85.5 -122.5t31.5 -176.5v-716h-240v649q0 140 -55.5 200t-168.5 60q-104 0 -178.5 -83.5t-74.5 -232.5v-593h-240v1082h229v-142z" />
    <glyph glyph-name="ograve" unicode="&#xf2;" horiz-adv-x="1210" 
d="M533 1528l166 -322h-186l-244 322h264zM606 1107q244 0 389.5 -154t145.5 -412t-145.5 -412t-389.5 -154q-246 0 -391.5 154t-145.5 412t145.5 412t391.5 154zM606 163q135 0 212.5 99.5t77.5 278.5t-77.5 278.5t-212.5 99.5q-136 0 -214 -99.5t-78 -278.5t78 -278.5
t214 -99.5z" />
    <glyph glyph-name="oacute" unicode="&#xf3;" horiz-adv-x="1210" 
d="M699 1206h-186l166 322h264zM606 1107q244 0 389.5 -154t145.5 -412t-145.5 -412t-389.5 -154q-246 0 -391.5 154t-145.5 412t145.5 412t391.5 154zM606 163q135 0 212.5 99.5t77.5 278.5t-77.5 278.5t-212.5 99.5q-136 0 -214 -99.5t-78 -278.5t78 -278.5t214 -99.5z
" />
    <glyph glyph-name="ocircumflex" unicode="&#xf4;" horiz-adv-x="1210" 
d="M610 1384h-8l-138 -178h-240l277 322h211l276 -322h-240zM606 1107q244 0 389.5 -154t145.5 -412t-145.5 -412t-389.5 -154q-246 0 -391.5 154t-145.5 412t145.5 412t391.5 154zM606 163q135 0 212.5 99.5t77.5 278.5t-77.5 278.5t-212.5 99.5q-136 0 -214 -99.5
t-78 -278.5t78 -278.5t214 -99.5z" />
    <glyph glyph-name="otilde" unicode="&#xf5;" horiz-adv-x="1210" 
d="M960 1482l-145 28q-17 -90 -76 -90q-31 0 -81 34l-48 31q-26 16 -38 23t-37 15.5t-49 8.5q-92 0 -154 -56.5t-79 -175.5l144 -28q17 90 76 90q30 0 81 -35l48 -31q70 -47 124 -47q92 0 154.5 57t79.5 176zM606 1107q244 0 389.5 -154t145.5 -412t-145.5 -412t-389.5 -154
q-246 0 -391.5 154t-145.5 412t145.5 412t391.5 154zM606 163q135 0 212.5 99.5t77.5 278.5t-77.5 278.5t-212.5 99.5q-136 0 -214 -99.5t-78 -278.5t78 -278.5t214 -99.5z" />
    <glyph glyph-name="odieresis" unicode="&#xf6;" horiz-adv-x="1210" 
d="M286 1468h224v-221h-224v221zM703 1468h224v-221h-224v221zM606 1107q244 0 389.5 -154t145.5 -412t-145.5 -412t-389.5 -154q-246 0 -391.5 154t-145.5 412t145.5 412t391.5 154zM606 163q135 0 212.5 99.5t77.5 278.5t-77.5 278.5t-212.5 99.5q-136 0 -214 -99.5
t-78 -278.5t78 -278.5t214 -99.5z" />
    <glyph glyph-name="divide" unicode="&#xf7;" horiz-adv-x="1126" 
d="M564 901q-58 0 -99 41t-41 99t41 99t99 41t98.5 -41t40.5 -99t-40.5 -99t-98.5 -41zM1065 760v-188h-1005v188h1005zM564 152q-58 0 -99 41t-41 99t41 99t99 41t98.5 -41t40.5 -99t-40.5 -99t-98.5 -41z" />
    <glyph glyph-name="oslash" unicode="&#xf8;" horiz-adv-x="1212" 
d="M1031 912q111 -149 111 -371q0 -258 -145.5 -412t-389.5 -154q-189 0 -323 95l-116 -130l-88 79l116 132q-126 151 -126 390q0 258 145.5 412t391.5 154q200 0 338 -108l97 110l90 -82zM607 919q-136 0 -214 -99.5t-78 -278.5q0 -124 38 -211l450 508q-75 81 -196 81z
M607 163q135 0 212.5 99.5t77.5 278.5q0 106 -29 187l-443 -500q73 -65 182 -65z" />
    <glyph glyph-name="ugrave" unicode="&#xf9;" 
d="M523 1528l167 -322h-187l-243 322h263zM846 142h-8q-116 -167 -338 -167q-77 0 -144 23t-121 69t-85.5 123t-31.5 177v715h240v-648q0 -140 55.5 -200.5t168.5 -60.5q104 0 178.5 84t74.5 233v592h240v-1082h-229v142z" />
    <glyph glyph-name="uacute" unicode="&#xfa;" 
d="M690 1206h-187l167 322h263zM846 142h-8q-116 -167 -338 -167q-77 0 -144 23t-121 69t-85.5 123t-31.5 177v715h240v-648q0 -140 55.5 -200.5t168.5 -60.5q104 0 178.5 84t74.5 233v592h241v-1082h-230v142z" />
    <glyph glyph-name="ucircumflex" unicode="&#xfb;" 
d="M601 1384h-9l-138 -178h-239l276 322h211l277 -322h-240zM846 142h-8q-116 -167 -338 -167q-77 0 -144 23t-121 69t-85.5 123t-31.5 177v715h240v-648q0 -140 55.5 -200.5t168.5 -60.5q104 0 178.5 84t74.5 233v592h240v-1082h-229v142z" />
    <glyph glyph-name="udieresis" unicode="&#xfc;" 
d="M276 1468h224v-221h-224v221zM693 1468h224v-221h-224v221zM846 142h-8q-116 -167 -338 -167q-77 0 -144 23t-121 69t-85.5 123t-31.5 177v715h240v-648q0 -140 55.5 -200.5t168.5 -60.5q104 0 178.5 84t74.5 233v592h241v-1082h-230v142z" />
    <glyph glyph-name="yacute" unicode="&#xfd;" horiz-adv-x="1091" 
d="M634 1206h-186l166 322h264zM1079 1082l-403 -1082q-38 -104 -78 -177t-77.5 -116.5t-83 -68t-87 -32.5t-98.5 -8q-87 0 -145 7v205q4 0 21.5 -3t39 -4.5t49.5 -1.5q78 0 118.5 37t81.5 137l16 37l-435 1070h260l289 -788h8l268 788h256z" />
    <glyph glyph-name="thorn" unicode="&#xfe;" horiz-adv-x="1243" 
d="M690 1107q213 0 348.5 -155.5t135.5 -410.5t-135.5 -410.5t-348.5 -155.5q-227 0 -324 149h-8v-501h-240v1860h240v-525h8q46 71 129 110t195 39zM635 164q136 0 215.5 100t79.5 277t-79.5 277t-215.5 100q-135 0 -213.5 -100t-78.5 -277t78.5 -277t213.5 -100z" />
    <glyph glyph-name="ydieresis" unicode="&#xff;" horiz-adv-x="1091" 
d="M221 1468h224v-221h-224v221zM638 1468h224v-221h-224v221zM1079 1082l-403 -1082q-38 -104 -78 -177t-77.5 -116.5t-83 -68t-87 -32.5t-98.5 -8q-87 0 -145 7v205q4 0 21.5 -3t39 -4.5t49.5 -1.5q78 0 118.5 37t81.5 137l16 37l-435 1070h260l289 -788h8l268 788h256z
" />
    <glyph glyph-name="Amacron" unicode="&#x100;" horiz-adv-x="1495" 
d="M1053 1635h-612v170h612v-170zM1060 374h-630l-135 -374h-276l562 1462h332l563 -1462h-280zM985 582l-237 653h-8l-235 -653h480z" />
    <glyph glyph-name="amacron" unicode="&#x101;" horiz-adv-x="1126" 
d="M266 1279v169h613v-169h-613zM1046 0h-235q-32 36 -32 146q-49 -84 -150 -127.5t-211 -43.5q-150 0 -255 88.5t-105 234.5q0 167 113.5 246.5t343.5 103.5q151 16 206.5 44t55.5 80q0 70 -51.5 110t-160.5 40q-85 0 -151.5 -44t-93.5 -129l-221 43q35 147 163 231t311 84
q228 0 336 -92t108 -245v-544q0 -99 5 -146t24 -80zM777 424v123q-16 -16 -62.5 -29t-87 -19.5t-114.5 -16.5q-92 -13 -151 -57t-59 -122q0 -72 46 -110.5t127 -38.5q52 0 103 15.5t96.5 46t73.5 85t28 123.5z" />
    <glyph glyph-name="Abreve" unicode="&#x102;" horiz-adv-x="1495" 
d="M747 1558q-92 0 -169.5 38.5t-126.5 115t-49 176.5h174q9 -79 58.5 -120t112.5 -41t112.5 41t58.5 120h174q0 -149 -102 -239.5t-243 -90.5zM1060 374h-630l-135 -374h-276l562 1462h332l563 -1462h-280zM985 582l-237 653h-8l-235 -653h480z" />
    <glyph glyph-name="abreve" unicode="&#x103;" horiz-adv-x="1126" 
d="M743 1528h175q0 -149 -102 -239t-243 -90q-142 0 -243.5 90t-101.5 239h174q9 -79 58.5 -119.5t112.5 -40.5t112 40.5t58 119.5zM1046 0h-235q-32 36 -32 146q-49 -84 -150 -127.5t-211 -43.5q-150 0 -255 88.5t-105 234.5q0 167 113.5 246.5t343.5 103.5
q151 16 206.5 44t55.5 80q0 70 -51.5 110t-160.5 40q-85 0 -151.5 -44t-93.5 -129l-221 43q35 147 163 231t311 84q228 0 336 -92t108 -245v-544q0 -99 5 -146t24 -80zM777 424v123q-16 -16 -62.5 -29t-87 -19.5t-114.5 -16.5q-92 -13 -151 -57t-59 -122q0 -72 46 -110.5
t127 -38.5q52 0 103 15.5t96.5 46t73.5 85t28 123.5z" />
    <glyph glyph-name="Aogonek" unicode="&#x104;" horiz-adv-x="1495" 
d="M1401 -316q55 0 102 16v-148q-49 -15 -143 -15q-119 0 -189.5 53t-70.5 151q0 79 50.5 148t133.5 111h-88l-136 374h-630l-135 -374h-276l562 1462h332l563 -1462q-187 -110 -187 -232q0 -41 31.5 -62.5t80.5 -21.5zM985 582l-237 653h-8l-235 -653h480z" />
    <glyph glyph-name="aogonek" unicode="&#x105;" horiz-adv-x="1126" 
d="M973 -316q55 0 102 16v-148q-49 -15 -143 -15q-119 0 -189.5 53t-70.5 151q0 79 50.5 148t133.5 111h-45q-32 36 -32 146q-49 -84 -150 -127.5t-211 -43.5q-150 0 -255 88.5t-105 234.5q0 167 113.5 246.5t343.5 103.5q151 16 206.5 44t55.5 80q0 70 -51.5 110t-160.5 40
q-85 0 -151.5 -44t-93.5 -129l-221 43q35 147 163 231t311 84q228 0 336 -92t108 -245v-544q0 -99 5 -146t24 -80q-185 -111 -185 -232q0 -41 31.5 -62.5t80.5 -21.5zM777 424v123q-16 -16 -62.5 -29t-87 -19.5t-114.5 -16.5q-92 -13 -151 -57t-59 -122q0 -72 46 -110.5
t127 -38.5q52 0 103 15.5t96.5 46t73.5 85t28 123.5z" />
    <glyph glyph-name="Cacute" unicode="&#x106;" horiz-adv-x="1509" 
d="M880 1568h-187l167 322h263zM1178 519l258 -35q-16 -77 -50 -150t-90 -140t-128.5 -117t-170.5 -80t-210 -30q-205 0 -362.5 91.5t-246.5 266t-89 408.5q0 174 51.5 317.5t143.5 241t221 150.5t282 53q100 0 191 -25t159.5 -66t124.5 -96t92.5 -114t57.5 -121l-253 -48
q-42 113 -138 185t-234 72q-199 0 -317 -144t-118 -405q0 -264 117.5 -408.5t317.5 -144.5q83 0 151.5 27.5t115.5 75.5t77.5 107t46.5 129z" />
    <glyph glyph-name="cacute" unicode="&#x107;" horiz-adv-x="1140" 
d="M686 1206h-187l167 322h263zM593 163q63 0 112.5 21.5t78.5 58t45.5 70.5t26.5 74l243 -33q-14 -53 -37.5 -102t-65.5 -101t-96 -90t-133.5 -62t-173.5 -24q-239 0 -381.5 154t-142.5 412t142.5 412t381.5 154q92 0 171 -23.5t130 -58t91 -81t60.5 -83.5t33.5 -75
l-229 -64q-66 197 -257 197q-129 0 -204 -100t-75 -278t75 -278t204 -100z" />
    <glyph glyph-name="Ccircumflex" unicode="&#x108;" horiz-adv-x="1509" 
d="M791 1740h-8l-138 -178h-240l276 322h211l277 -322h-240zM1178 519l258 -35q-16 -77 -50 -150t-90 -140t-128.5 -117t-170.5 -80t-210 -30q-205 0 -362.5 91.5t-246.5 266t-89 408.5q0 174 51.5 317.5t143.5 241t221 150.5t282 53q100 0 191 -25t159.5 -66t124.5 -96
t92.5 -114t57.5 -121l-253 -48q-42 113 -138 185t-234 72q-199 0 -317 -144t-118 -405q0 -264 117.5 -408.5t317.5 -144.5q83 0 151.5 27.5t115.5 75.5t77.5 107t46.5 129z" />
    <glyph glyph-name="ccircumflex" unicode="&#x109;" horiz-adv-x="1140" 
d="M597 1384h-8l-138 -178h-240l276 322h211l277 -322h-240zM593 163q63 0 112.5 21.5t78.5 58t45.5 70.5t26.5 74l243 -33q-14 -53 -37.5 -102t-65.5 -101t-96 -90t-133.5 -62t-173.5 -24q-239 0 -381.5 154t-142.5 412t142.5 412t381.5 154q92 0 171 -23.5t130 -58t91 -81
t60.5 -83.5t33.5 -75l-229 -64q-66 197 -257 197q-129 0 -204 -100t-75 -278t75 -278t204 -100z" />
    <glyph glyph-name="Cdotaccent" unicode="&#x10a;" horiz-adv-x="1509" 
d="M667 1845h240v-236h-240v236zM1178 519l258 -35q-16 -77 -50 -150t-90 -140t-128.5 -117t-170.5 -80t-210 -30q-205 0 -362.5 91.5t-246.5 266t-89 408.5q0 174 51.5 317.5t143.5 241t221 150.5t282 53q100 0 191 -25t159.5 -66t124.5 -96t92.5 -114t57.5 -121l-253 -48
q-42 113 -138 185t-234 72q-199 0 -317 -144t-118 -405q0 -264 117.5 -408.5t317.5 -144.5q83 0 151.5 27.5t115.5 75.5t77.5 107t46.5 129z" />
    <glyph glyph-name="cdotaccent" unicode="&#x10b;" horiz-adv-x="1140" 
d="M473 1483h240v-236h-240v236zM593 163q63 0 112.5 21.5t78.5 58t45.5 70.5t26.5 74l243 -33q-14 -53 -37.5 -102t-65.5 -101t-96 -90t-133.5 -62t-173.5 -24q-239 0 -381.5 154t-142.5 412t142.5 412t381.5 154q92 0 171 -23.5t130 -58t91 -81t60.5 -83.5t33.5 -75
l-229 -64q-66 197 -257 197q-129 0 -204 -100t-75 -278t75 -278t204 -100z" />
    <glyph glyph-name="Ccaron" unicode="&#x10c;" horiz-adv-x="1509" 
d="M1169 1887l-277 -321h-211l-276 321h240l138 -177h8l138 177h240zM1178 519l258 -35q-16 -77 -50 -150t-90 -140t-128.5 -117t-170.5 -80t-210 -30q-205 0 -362.5 91.5t-246.5 266t-89 408.5q0 174 51.5 317.5t143.5 241t221 150.5t282 53q100 0 191 -25t159.5 -66
t124.5 -96t92.5 -114t57.5 -121l-253 -48q-42 113 -138 185t-234 72q-199 0 -317 -144t-118 -405q0 -264 117.5 -408.5t317.5 -144.5q83 0 151.5 27.5t115.5 75.5t77.5 107t46.5 129z" />
    <glyph glyph-name="ccaron" unicode="&#x10d;" horiz-adv-x="1140" 
d="M975 1528l-277 -322h-211l-276 322h240l138 -178h8l138 178h240zM593 163q63 0 112.5 21.5t78.5 58t45.5 70.5t26.5 74l243 -33q-14 -53 -37.5 -102t-65.5 -101t-96 -90t-133.5 -62t-173.5 -24q-239 0 -381 154t-142 412t142 412t381 154q92 0 171 -23.5t130 -58t91 -81
t60.5 -83.5t33.5 -75l-229 -64q-66 197 -257 197q-129 0 -204 -100t-75 -278t75 -278t204 -100z" />
    <glyph glyph-name="Dcaron" unicode="&#x10e;" horiz-adv-x="1492" 
d="M1053 1887l-277 -322h-210l-277 322h240l138 -177h8l138 177h240zM130 1462h565q160 0 289.5 -46t223.5 -135.5t145 -229.5t51 -320t-51 -320t-145 -229.5t-223.5 -135.5t-289.5 -46h-565v1462zM388 211h273q232 0 356.5 131t124.5 389t-124.5 389t-356.5 131h-273v-1040
z" />
    <glyph glyph-name="dcaron" unicode="&#x10f;" horiz-adv-x="1495" 
d="M554 1107q111 0 195 -40t129 -109h8v525h240v-1483h-229v139h-8q-45 -78 -133 -121t-200 -43q-214 0 -350.5 155.5t-136.5 410.5t136 410.5t349 155.5zM1493 1483v-175q0 -141 -61.5 -219t-179.5 -81v105q43 2 70 37t27 97h-97v236h241zM608 164q135 0 214 100t79 277
t-79 277t-214 100q-136 0 -215 -100t-79 -277t79 -277t215 -100z" />
    <glyph glyph-name="Dcroat" unicode="&#x110;" horiz-adv-x="1492" 
d="M130 1462h565q160 0 289.5 -46t223.5 -135.5t145 -229.5t51 -320t-51 -320t-145 -229.5t-223.5 -135.5t-289.5 -46h-565v635h-138v194h138v633zM388 211h273q232 0 356.5 131t124.5 389t-124.5 389t-356.5 131h-273v-422h311v-194h-311v-424z" />
    <glyph glyph-name="dcroat" unicode="&#x111;" horiz-adv-x="1243" 
d="M1238 1366v-155h-112v-1211h-229v139h-8q-45 -78 -133 -121t-200 -43q-214 0 -350.5 155.5t-136.5 410.5t136 410.5t349 155.5q111 0 195 -40t129 -109h8v253h-205v155h205v117h240v-117h112zM608 164q135 0 214 100t79 277t-79 277t-214 100q-136 0 -215 -100t-79 -277
t79 -277t215 -100z" />
    <glyph glyph-name="Emacron" unicode="&#x112;" horiz-adv-x="1251" 
d="M342 1635v170h613v-170h-613zM388 856h745v-206h-745v-432h779v-218h-1037v1462h1037v-211h-779v-395z" />
    <glyph glyph-name="emacron" unicode="&#x113;" horiz-adv-x="1181" 
d="M283 1279v169h613v-169h-613zM859 343l243 -25q-15 -50 -39 -95.5t-66.5 -92t-96.5 -80t-133.5 -54.5t-174.5 -21q-237 0 -380 154.5t-143 409.5q0 259 140.5 413.5t380.5 154.5q122 0 222 -42t170 -120t104 -196t24 -263h-797q4 -144 79.5 -235.5t199.5 -91.5
q62 0 111 17.5t79.5 47.5t48 58.5t28.5 60.5zM590 925q-121 0 -191.5 -76.5t-81.5 -191.5h549q-11 115 -82 191.5t-194 76.5z" />
    <glyph glyph-name="Ebreve" unicode="&#x114;" horiz-adv-x="1251" 
d="M819 1888h175q0 -149 -102 -239.5t-243 -90.5q-92 0 -169.5 38.5t-126.5 115t-49 176.5h174q9 -79 58.5 -120t112.5 -41t112 41t58 120zM388 856h745v-206h-745v-432h779v-218h-1037v1462h1037v-211h-779v-395z" />
    <glyph glyph-name="ebreve" unicode="&#x115;" horiz-adv-x="1181" 
d="M761 1528h174q0 -149 -102 -239t-243 -90q-142 0 -243.5 90t-101.5 239h174q9 -79 58.5 -119.5t112.5 -40.5t112.5 40.5t58.5 119.5zM859 343l244 -25q-19 -64 -54.5 -120t-94 -108.5t-152 -83.5t-210.5 -31q-237 0 -379.5 154.5t-142.5 409.5q0 259 140.5 413.5
t379.5 154.5q122 0 222 -42t170 -120t104 -196t24 -263h-797q4 -144 79.5 -235.5t199.5 -91.5q62 0 111 17.5t79.5 47.5t48 58.5t28.5 60.5zM590 925q-121 0 -191.5 -76.5t-81.5 -191.5h549q-11 115 -82 191.5t-194 76.5z" />
    <glyph glyph-name="Edotaccent" unicode="&#x116;" horiz-adv-x="1251" 
d="M529 1845h240v-236h-240v236zM388 856h745v-206h-745v-432h779v-218h-1037v1462h1037v-211h-779v-395z" />
    <glyph glyph-name="edotaccent" unicode="&#x117;" horiz-adv-x="1181" 
d="M470 1483h240v-236h-240v236zM859 343l244 -25q-19 -64 -54.5 -120t-94 -108.5t-152 -83.5t-210.5 -31q-236 0 -379.5 155t-143.5 409q0 259 140.5 413.5t380.5 154.5q122 0 222 -42t170 -120t104 -196t24 -263h-797q4 -144 79.5 -235.5t199.5 -91.5q62 0 111.5 17.5
t79.5 47.5t48 58.5t28 60.5zM590 925q-121 0 -191.5 -76.5t-81.5 -191.5h549q-11 115 -82 191.5t-194 76.5z" />
    <glyph glyph-name="Eogonek" unicode="&#x118;" horiz-adv-x="1251" 
d="M1093 -316q55 0 102 16v-148q-49 -15 -143 -15q-119 0 -190 53t-71 151q0 79 51 148t134 111h-846v1462h1037v-211h-779v-395h745v-206h-745v-432h779v-218q-187 -110 -187 -232q0 -41 32 -62.5t81 -21.5z" />
    <glyph glyph-name="eogonek" unicode="&#x119;" horiz-adv-x="1181" 
d="M590 1107q122 0 222 -42t170 -120t104 -196t24 -263h-797q4 -144 79.5 -235.5t199.5 -91.5q62 0 111 17.5t79.5 47.5t48 58.5t28.5 60.5l244 -25q-50 -173 -199 -264q-61 -37 -100.5 -64.5t-81.5 -64.5t-62.5 -76t-20.5 -81q0 -41 31.5 -62.5t80.5 -21.5q55 0 102 16
v-148q-49 -15 -143 -15q-119 0 -189.5 53t-70.5 151q0 68 38 129.5t103 104.5q-238 2 -380 155.5t-142 408.5q0 259 140.5 413.5t380.5 154.5zM317 657h549q-11 115 -82 191.5t-194 76.5q-121 0 -191.5 -76.5t-81.5 -191.5z" />
    <glyph glyph-name="Ecaron" unicode="&#x11a;" horiz-adv-x="1251" 
d="M1031 1887l-277 -321h-211l-276 321h240l137 -177h9l138 177h240zM388 856h745v-206h-745v-432h779v-218h-1037v1462h1037v-211h-779v-395z" />
    <glyph glyph-name="ecaron" unicode="&#x11b;" horiz-adv-x="1181" 
d="M972 1528l-277 -322h-211l-276 322h240l138 -178h8l138 178h240zM859 343l244 -25q-19 -64 -54.5 -120t-94 -108.5t-152 -83.5t-210.5 -31q-237 0 -379.5 154.5t-142.5 409.5q0 259 140.5 413.5t379.5 154.5q122 0 222 -42t170 -120t104 -196t24 -263h-797
q4 -144 79.5 -235.5t199.5 -91.5q62 0 111 17.5t79.5 47.5t48 58.5t28.5 60.5zM590 925q-121 0 -191.5 -76.5t-81.5 -191.5h549q-11 115 -82 191.5t-194 76.5z" />
    <glyph glyph-name="Gcircumflex" unicode="&#x11c;" horiz-adv-x="1562" 
d="M799 1740h-8l-138 -178h-240l277 322h210l277 -322h-240zM1441 0h-197v175q-150 -208 -449 -208q-313 0 -509.5 211.5t-196.5 554.5q0 227 89.5 400.5t249.5 267.5t367 94q232 0 404 -119.5t243 -325.5l-259 -31q-52 127 -151 195t-237 68q-203 0 -323 -146t-120 -403
q0 -259 119.5 -406t323.5 -147q178 0 290 107.5t121 258.5h-385v206h620v-752z" />
    <glyph glyph-name="gcircumflex" unicode="&#x11d;" horiz-adv-x="1218" 
d="M594 1384h-9l-137 -178h-240l276 322h211l277 -322h-240zM1109 1082v-1004q0 -128 -40 -222.5t-112 -149.5t-163 -81.5t-203 -26.5q-124 0 -223.5 34.5t-175 114t-108.5 199.5l233 40q28 -106 96.5 -152.5t177.5 -46.5q278 0 278 300v105h-8q-45 -64 -126.5 -99.5
t-189.5 -35.5q-209 0 -342 144.5t-133 380.5q0 235 133.5 380t343.5 145q111 0 195.5 -38.5t129.5 -111.5h8v125h229zM600 243q129 0 206.5 93t77.5 246q0 151 -77.5 243.5t-206.5 92.5q-130 0 -207.5 -92.5t-77.5 -243.5q0 -153 77.5 -246t207.5 -93z" />
    <glyph glyph-name="Gbreve" unicode="&#x11e;" horiz-adv-x="1562" 
d="M966 1888h174q0 -149 -102 -239.5t-243 -90.5q-92 0 -169.5 38.5t-126.5 115t-49 176.5h174q9 -79 58.5 -120t112.5 -41t112.5 41t58.5 120zM1441 0h-197v175q-150 -208 -449 -208q-313 0 -509.5 211.5t-196.5 554.5q0 227 89.5 400.5t249.5 267.5t367 94
q232 0 404 -119.5t243 -325.5l-259 -31q-52 127 -151 195t-237 68q-204 0 -323.5 -146t-119.5 -403q0 -259 119.5 -406t323.5 -147q178 0 290 107.5t121 258.5h-385v206h620v-752z" />
    <glyph glyph-name="gbreve" unicode="&#x11f;" horiz-adv-x="1218" 
d="M760 1528h175q0 -149 -102 -239t-243 -90q-142 0 -243.5 90t-101.5 239h174q9 -79 58.5 -119.5t112.5 -40.5t112 40.5t58 119.5zM1109 1082v-1004q0 -128 -40 -222.5t-112 -149.5t-163 -81.5t-203 -26.5q-124 0 -223.5 34.5t-175 114t-108.5 199.5l233 40
q28 -106 96.5 -152.5t177.5 -46.5q278 0 278 300v105h-8q-45 -64 -126.5 -99.5t-189.5 -35.5q-209 0 -342 144.5t-133 380.5q0 235 133.5 380t343.5 145q111 0 195.5 -38.5t129.5 -111.5h8v125h229zM600 243q129 0 206.5 93t77.5 246q0 151 -77.5 243.5t-206.5 92.5
q-130 0 -207.5 -92.5t-77.5 -243.5q0 -153 77.5 -246t207.5 -93z" />
    <glyph glyph-name="Gdotaccent" unicode="&#x120;" horiz-adv-x="1562" 
d="M675 1845h240v-236h-240v236zM1441 0h-197v175q-150 -208 -449 -208q-313 0 -509.5 211.5t-196.5 554.5q0 227 89.5 400.5t249.5 267.5t367 94q232 0 404 -119.5t243 -325.5l-259 -31q-52 127 -151 195t-237 68q-204 0 -323.5 -146t-119.5 -403q0 -259 119.5 -406
t323.5 -147q178 0 290 107.5t121 258.5h-385v206h620v-752z" />
    <glyph glyph-name="gdotaccent" unicode="&#x121;" horiz-adv-x="1218" 
d="M470 1483h240v-236h-240v236zM1109 1082v-1004q0 -128 -40 -222.5t-112 -149.5t-163 -81.5t-203 -26.5q-124 0 -223.5 34.5t-175 114t-108.5 199.5l233 40q28 -106 96.5 -152.5t177.5 -46.5q278 0 278 300v105h-8q-45 -64 -126.5 -99.5t-189.5 -35.5q-209 0 -342 144.5
t-133 380.5q0 235 133.5 380t343.5 145q111 0 195.5 -38.5t129.5 -111.5h8v125h229zM600 243q129 0 206.5 93t77.5 246q0 151 -77.5 243.5t-206.5 92.5q-130 0 -207.5 -92t-77.5 -244q0 -153 77.5 -246t207.5 -93z" />
    <glyph glyph-name="Gcommaaccent" unicode="&#x122;" horiz-adv-x="1562" 
d="M1441 0h-197v175q-150 -208 -449 -208q-313 0 -509.5 211.5t-196.5 554.5q0 227 89.5 400.5t249.5 267.5t367 94q232 0 404 -119.5t243 -325.5l-259 -31q-52 127 -151 195t-237 68q-204 0 -323.5 -146t-119.5 -403q0 -259 119.5 -406t323.5 -147q178 0 290 107.5
t121 258.5h-385v206h620v-752zM914 -124v-174q0 -141 -61 -219.5t-179 -81.5v106q42 2 69 37t27 97h-96v235h240z" />
    <glyph glyph-name="gcommaaccent" unicode="&#x123;" horiz-adv-x="1218" 
d="M470 1206v175q0 141 61.5 219t179.5 81v-105q-43 -2 -70 -37t-27 -97h97v-236h-241zM1109 1082v-1004q0 -128 -40 -222.5t-112 -149.5t-163 -81.5t-203 -26.5q-124 0 -223.5 34.5t-175 114t-108.5 199.5l233 40q28 -106 96.5 -152.5t177.5 -46.5q278 0 278 300v105h-8
q-45 -64 -126.5 -99.5t-189.5 -35.5q-209 0 -342 144.5t-133 380.5q0 235 133.5 380t343.5 145q111 0 195.5 -38.5t129.5 -111.5h8v125h229zM600 243q129 0 206.5 93t77.5 246q0 151 -77.5 243.5t-206.5 92.5q-130 0 -207.5 -92.5t-77.5 -243.5q0 -153 77.5 -246t207.5 -93z
" />
    <glyph glyph-name="Hcircumflex" unicode="&#x124;" horiz-adv-x="1478" 
d="M750 1740h-9l-138 -178h-240l277 322h211l276 -322h-240zM1350 1462v-1462h-258v634h-704v-634h-258v1462h258v-613h704v613h258z" />
    <glyph glyph-name="hcircumflex" unicode="&#x125;" 
d="M601 1760h-9l-138 -177h-239l276 321h211l277 -321h-240zM358 940h8q119 167 333 167q59 0 113 -14t102.5 -44.5t84 -75.5t56 -111t20.5 -146v-716h-240v649q0 140 -55.5 200t-168.5 60q-101 0 -177 -92t-76 -242v-575h-240v1483h240v-543z" />
    <glyph glyph-name="Hbar" unicode="&#x126;" horiz-adv-x="1476" 
d="M1449 1048h-99v-1048h-258v634h-704v-634h-258v1048h-103v185h103v229h258v-229h704v229h258v-229h99v-185zM1092 1048h-704v-199h704v199z" />
    <glyph glyph-name="hbar" unicode="&#x127;" 
d="M699 1107q59 0 113 -14t102.5 -44.5t84 -75.5t56 -111t20.5 -146v-716h-240v649q0 140 -55.5 200t-168.5 60q-101 0 -177 -92t-76 -242v-575h-240v1211h-112v155h112v117h240v-117h205v-155h-205v-271h8q119 167 333 167z" />
    <glyph glyph-name="Itilde" unicode="&#x128;" horiz-adv-x="528" 
d="M618 1821l-144 28q-17 -91 -77 -91q-30 0 -81 35l-48 31q-26 16 -38 23t-37 15.5t-49 8.5q-92 0 -154 -56.5t-79 -175.5l144 -28q17 90 76 90q30 0 81 -35l48 -31q70 -47 124 -47q92 0 154.5 57t79.5 176zM135 0v1462h258v-1462h-258z" />
    <glyph glyph-name="itilde" unicode="&#x129;" horiz-adv-x="475" 
d="M591 1482l-144 28q-17 -90 -76 -90q-31 0 -81 34l-48 31q-26 16 -38 23t-37 15.5t-49 8.5q-92 0 -154.5 -56.5t-79.5 -175.5l144 -28q17 90 77 90q30 0 81 -35l48 -31q70 -47 123 -47q92 0 154.5 57t79.5 176zM118 1082h240v-1082h-240v1082z" />
    <glyph glyph-name="Imacron" unicode="&#x12a;" horiz-adv-x="528" 
d="M-42 1635v170h613v-170h-613zM135 0v1462h258v-1462h-258z" />
    <glyph glyph-name="imacron" unicode="&#x12b;" horiz-adv-x="475" 
d="M-69 1279v169h613v-169h-613zM118 1082h240v-1082h-240v1082z" />
    <glyph glyph-name="Ibreve" unicode="&#x12c;" horiz-adv-x="528" 
d="M435 1888h174q0 -149 -102 -239.5t-243 -90.5q-92 0 -169.5 38.5t-126.5 115t-49 176.5h175q9 -79 58 -120t112 -41t112.5 41t58.5 120zM135 0v1462h258v-1462h-258z" />
    <glyph glyph-name="ibreve" unicode="&#x12d;" horiz-adv-x="475" 
d="M408 1528h175q0 -149 -102 -239t-243 -90q-142 0 -243.5 90t-101.5 239h174q9 -79 58.5 -119.5t112.5 -40.5t112 40.5t58 119.5zM118 1082h240v-1082h-240v1082z" />
    <glyph glyph-name="Iogonek" unicode="&#x12e;" horiz-adv-x="528" 
d="M393 1462v-1462q-186 -110 -186 -232q0 -41 31.5 -62.5t80.5 -21.5q55 0 102 16v-148q-49 -15 -143 -15q-119 0 -189.5 53t-70.5 151q0 79 50.5 148t133.5 111h-67v1462h258z" />
    <glyph glyph-name="iogonek" unicode="&#x12f;" horiz-adv-x="475" 
d="M358 1247h-240v236h240v-236zM385 -300v-148q-49 -15 -142 -15q-119 0 -190 53t-71 151q0 79 51 148t134 111h-49v1082h240v-1082q-187 -110 -187 -232q0 -41 31.5 -62.5t80.5 -21.5q55 0 102 16z" />
    <glyph glyph-name="Idotaccent" unicode="&#x130;" horiz-adv-x="528" 
d="M144 1845h240v-236h-240v236zM135 0v1462h258v-1462h-258z" />
    <glyph glyph-name="dotlessi" unicode="&#x131;" horiz-adv-x="475" 
d="M118 1082h240v-1082h-240v1082z" />
    <glyph glyph-name="IJ" unicode="&#x132;" horiz-adv-x="1785" 
d="M135 0v1462h258v-1462h-258zM1655 1462v-975q0 -133 -40.5 -234t-114.5 -163t-172 -92.5t-217 -30.5q-232 0 -379 131.5t-173 378.5q-3 40 0 67l244 23q-3 -25 1 -62q18 -169 95.5 -245t211.5 -76q142 0 213 75.5t71 245.5v957h260z" />
    <glyph glyph-name="ij" unicode="&#x133;" horiz-adv-x="950" 
d="M118 1483h240v-236h-240v236zM593 1483h240v-236h-240v236zM118 1082h240v-1082h-240v1082zM502 -199q46 0 68.5 17t22.5 71v1193h240v-1234q0 -75 -16.5 -124.5t-51.5 -77t-80.5 -38t-113.5 -10.5q-108 0 -156 4v201q29 -2 87 -2z" />
    <glyph glyph-name="Jcircumflex" unicode="&#x134;" horiz-adv-x="1257" 
d="M1001 1740h-8l-138 -178h-240l276 322h211l277 -322h-240zM1127 1462v-975q0 -133 -41 -234t-115 -163t-171.5 -92.5t-217.5 -30.5q-232 0 -378.5 131.5t-172.5 378.5q-3 46 -1 67l245 23q-3 -30 0 -62q18 -169 95.5 -245t211.5 -76q142 0 213.5 75.5t71.5 245.5v957h260
z" />
    <glyph glyph-name="jcircumflex" unicode="&#x135;" horiz-adv-x="475" 
d="M242 1384h-9l-137 -178h-240l276 322h211l277 -322h-240zM27 -199q46 0 68.5 17t22.5 71v1193h240v-1234q0 -75 -16.5 -124.5t-51.5 -77t-80.5 -38t-113.5 -10.5q-108 0 -156 4v201q29 -2 87 -2z" />
    <glyph glyph-name="Kcommaaccent" unicode="&#x136;" horiz-adv-x="1339" 
d="M553 731l-193 -204v-527h-258v1462h258v-639l594 639h306l-522 -556l609 -906h-311zM818 -124v-174q0 -141 -61.5 -219.5t-179.5 -81.5v106q43 2 70 37t27 97h-97v235h241z" />
    <glyph glyph-name="kcommaaccent" unicode="&#x137;" horiz-adv-x="1103" 
d="M358 385v-385h-240v1483h240v-830l420 429h290l-416 -414l462 -668h-283l-345 510zM714 -124v-174q0 -141 -61.5 -219.5t-179.5 -81.5v106q43 2 70 37t27 97h-97v235h241z" />
    <glyph glyph-name="kgreenlandic" unicode="&#x138;" horiz-adv-x="1103" 
d="M358 385v-385h-240v1082h240v-429l420 429h290l-416 -414l462 -668h-283l-345 510z" />
    <glyph glyph-name="Lacute" unicode="&#x139;" horiz-adv-x="1218" 
d="M352 1568h-186l166 322h264zM130 0v1462h258v-1241h788v-221h-1046z" />
    <glyph glyph-name="lacute" unicode="&#x13a;" horiz-adv-x="485" 
d="M336 1589h-186l166 321h263zM123 1483h240v-1483h-240v1483z" />
    <glyph glyph-name="Lcommaaccent" unicode="&#x13b;" horiz-adv-x="1218" 
d="M130 0v1462h258v-1241h788v-221h-1046zM773 -124v-174q0 -141 -61.5 -219.5t-179.5 -81.5v106q43 2 70 37t27 97h-97v235h241z" />
    <glyph glyph-name="lcommaaccent" unicode="&#x13c;" horiz-adv-x="485" 
d="M123 1483h240v-1483h-240v1483zM362 -124v-174q0 -141 -61 -219.5t-179 -81.5v106q42 2 69 37t27 97h-96v235h240z" />
    <glyph glyph-name="Lcaron" unicode="&#x13d;" horiz-adv-x="1218" 
d="M641 1887l-276 -321h-211l-277 321h240l138 -177h8l138 177h240zM130 0v1462h258v-1241h788v-221h-1046z" />
    <glyph glyph-name="lcaron" unicode="&#x13e;" horiz-adv-x="485" 
d="M625 1928l-277 -321h-210l-277 321h240l138 -177h8l138 177h240zM123 1483h240v-1483h-240v1483z" />
    <glyph glyph-name="Ldot" unicode="&#x13f;" horiz-adv-x="1218" 
d="M130 0v1462h258v-1241h788v-221h-1046zM850 650q-68 0 -116 48t-48 116q0 67 48 115.5t116 48.5t116 -48.5t48 -115.5q0 -68 -48 -116t-116 -48z" />
    <glyph glyph-name="ldot" unicode="&#x140;" horiz-adv-x="837" 
d="M123 1483h240v-1483h-240v1483zM645 587q-67 0 -115 47.5t-48 115.5q0 67 48 115t115 48t115 -48t48 -115q0 -68 -48 -115.5t-115 -47.5z" />
    <glyph glyph-name="Lslash" unicode="&#x141;" horiz-adv-x="1218" 
d="M1176 221v-221h-1046v483l-103 -63v216l103 62v764h258v-607l356 215v-213l-356 -217v-419h788z" />
    <glyph glyph-name="lslash" unicode="&#x142;" horiz-adv-x="503" 
d="M495 999v-213l-123 -75v-711h-241v565l-123 -75v215l123 75v703h241v-558z" />
    <glyph glyph-name="Nacute" unicode="&#x143;" horiz-adv-x="1490" 
d="M839 1568h-187l167 322h263zM1361 0h-280l-704 1105h-9v-1105h-238v1462h290l695 -1088h8v1088h238v-1462z" />
    <glyph glyph-name="nacute" unicode="&#x144;" 
d="M690 1206h-187l167 322h263zM347 940h8q116 167 338 167q77 0 144 -23t121 -69t85.5 -122.5t31.5 -176.5v-716h-240v649q0 140 -55.5 200t-168.5 60q-104 0 -178.5 -83.5t-74.5 -232.5v-593h-240v1082h229v-142z" />
    <glyph glyph-name="Ncommaaccent" unicode="&#x145;" horiz-adv-x="1490" 
d="M1361 0h-280l-704 1105h-9v-1105h-238v1462h290l695 -1088h8v1088h238v-1462zM865 -124v-174q0 -141 -61 -219.5t-179 -81.5v106q42 2 69 37t27 97h-96v235h240z" />
    <glyph glyph-name="ncommaaccent" unicode="&#x146;" 
d="M347 940h8q116 167 338 167q77 0 144 -23t121 -69t85.5 -122.5t31.5 -176.5v-716h-240v649q0 140 -55.5 200t-168.5 60q-104 0 -178.5 -83.5t-74.5 -232.5v-593h-240v1082h229v-142zM716 -124v-174q0 -141 -61.5 -219.5t-179.5 -81.5v106q43 2 70 37t27 97h-97v235h241z
" />
    <glyph glyph-name="Ncaron" unicode="&#x147;" horiz-adv-x="1490" 
d="M1128 1887l-277 -322h-211l-276 322h240l138 -177h8l138 177h240zM1361 0h-280l-704 1105h-9v-1105h-238v1462h290l695 -1088h8v1088h238v-1462z" />
    <glyph glyph-name="ncaron" unicode="&#x148;" 
d="M979 1528l-277 -322h-211l-276 322h240l137 -178h9l138 178h240zM347 940h8q116 167 338 167q77 0 144 -23t121 -69t85.5 -122.5t31.5 -176.5v-716h-240v649q0 140 -55.5 200t-168.5 60q-104 0 -178.5 -83.5t-74.5 -232.5v-593h-240v1082h229v-142z" />
    <glyph glyph-name="napostrophe" unicode="&#x149;" horiz-adv-x="1351" 
d="M244 1483v-175q0 -141 -61.5 -219t-179.5 -81v105q43 2 70 37t27 97h-97v236h241zM514 940h8q116 167 338 167q77 0 144 -23t121.5 -69t86 -122.5t31.5 -176.5v-716h-241v652q0 140 -55.5 200.5t-168.5 60.5q-104 0 -178.5 -84t-74.5 -233v-596h-240v1082h229v-142z" />
    <glyph glyph-name="Eng" unicode="&#x14a;" horiz-adv-x="1490" 
d="M1361 1462v-1504q0 -173 -125 -266.5t-324 -93.5q-198 0 -322.5 100.5t-128.5 255.5l243 2q6 -67 61 -112.5t148 -45.5q100 0 152 50.5t52 121.5v30l-740 1105h-9v-1105h-238v1462h281l704 -1050h8v1050h238z" />
    <glyph glyph-name="eng" unicode="&#x14b;" 
d="M693 1107q77 0 144 -23t121 -69t85.5 -122.5t31.5 -176.5v-868q0 -75 -16.5 -124.5t-51 -77t-80.5 -38t-113 -10.5q-108 0 -156 4v201q29 -2 86 -2q46 0 68.5 17t22.5 71v760q0 140 -55.5 200t-168.5 60q-104 0 -178.5 -83.5t-74.5 -232.5v-593h-240v1082h229v-142h8
q116 167 338 167z" />
    <glyph glyph-name="Omacron" unicode="&#x14c;" horiz-adv-x="1585" 
d="M486 1635v170h613v-170h-613zM792 1495q208 0 367 -91.5t247.5 -265.5t88.5 -407t-88.5 -407t-247.5 -265.5t-367 -91.5t-367 91.5t-247.5 265.5t-88.5 407t88.5 407t247.5 265.5t367 91.5zM792 180q202 0 321.5 144t119.5 407t-119.5 407t-321.5 144t-321 -144
t-119 -407t119 -407t321 -144z" />
    <glyph glyph-name="omacron" unicode="&#x14d;" horiz-adv-x="1210" 
d="M300 1279v169h613v-169h-613zM606 1107q244 0 389.5 -154t145.5 -412t-145.5 -412t-389.5 -154q-246 0 -391.5 154t-145.5 412t145.5 412t391.5 154zM606 163q135 0 212.5 99.5t77.5 278.5t-77.5 278.5t-212.5 99.5q-136 0 -214 -99.5t-78 -278.5t78 -278.5t214 -99.5z
" />
    <glyph glyph-name="Obreve" unicode="&#x14e;" horiz-adv-x="1585" 
d="M963 1888h174q0 -149 -102 -239.5t-243 -90.5q-92 0 -169.5 38.5t-126.5 115t-49 176.5h174q9 -79 58.5 -120t112.5 -41t112.5 41t58.5 120zM792 1495q208 0 367 -91.5t247.5 -265.5t88.5 -407t-88.5 -407t-247.5 -265.5t-367 -91.5t-367 91.5t-247.5 265.5t-88.5 407
t88.5 407t247.5 265.5t367 91.5zM792 180q202 0 321.5 144t119.5 407t-119.5 407t-321.5 144t-321 -144t-119 -407t119 -407t321 -144z" />
    <glyph glyph-name="obreve" unicode="&#x14f;" horiz-adv-x="1210" 
d="M777 1528h174q0 -149 -102 -239t-243 -90q-142 0 -243.5 90t-101.5 239h174q9 -79 58.5 -119.5t112.5 -40.5t112.5 40.5t58.5 119.5zM606 1107q244 0 389.5 -154t145.5 -412t-145.5 -412t-389.5 -154q-246 0 -391.5 154t-145.5 412t145.5 412t391.5 154zM606 163
q135 0 212.5 99.5t77.5 278.5t-77.5 278.5t-212.5 99.5q-136 0 -214 -99.5t-78 -278.5t78 -278.5t214 -99.5z" />
    <glyph glyph-name="Ohungarumlaut" unicode="&#x150;" horiz-adv-x="1585" 
d="M1037 1568h-165l116 322h230zM712 1568h-165l116 322h230zM792 1495q208 0 367 -91.5t247.5 -265.5t88.5 -407t-88.5 -407t-247.5 -265.5t-367 -91.5t-367 91.5t-247.5 265.5t-88.5 407t88.5 407t247.5 265.5t367 91.5zM792 180q202 0 321.5 144t119.5 407t-119.5 407
t-321.5 144t-321 -144t-119 -407t119 -407t321 -144z" />
    <glyph glyph-name="ohungarumlaut" unicode="&#x151;" horiz-adv-x="1210" 
d="M526 1206h-165l116 322h230zM851 1206h-165l116 322h230zM606 1107q244 0 389.5 -154t145.5 -412t-145.5 -412t-389.5 -154q-246 0 -391.5 154t-145.5 412t145.5 412t391.5 154zM606 163q135 0 212.5 99.5t77.5 278.5t-77.5 278.5t-212.5 99.5q-136 0 -214 -99.5
t-78 -278.5t78 -278.5t214 -99.5z" />
    <glyph glyph-name="OE" unicode="&#x152;" horiz-adv-x="2320" 
d="M1484 1247v-391h716v-212h-716v-428h753v-216h-1001v175h-8q-160 -208 -468 -208q-147 0 -270.5 53t-212.5 150.5t-138.5 241.5t-49.5 319t49.5 319t138.5 241.5t212.5 150.5t270.5 53q308 0 468 -208h8v175h1001v-215h-753zM794 180q203 0 322.5 144t119.5 407
t-119.5 407t-322.5 144t-322.5 -144t-119.5 -407t119.5 -407t322.5 -144z" />
    <glyph glyph-name="oe" unicode="&#x153;" horiz-adv-x="2007" 
d="M1685 343l243 -25q-19 -64 -54.5 -120t-94 -108.5t-152 -83.5t-210.5 -31q-135 0 -236.5 54t-162.5 155q-62 -101 -167 -155t-245 -54q-246 0 -391.5 154t-145.5 412t145.5 412t391.5 154q279 0 410 -207q61 99 162.5 153t237.5 54q122 0 222 -42t170 -120t104 -196
t24 -263h-797q4 -144 79 -235.5t199 -91.5q62 0 111.5 17.5t80 47.5t48.5 58.5t28 60.5zM1143 657h549q-11 115 -82 191.5t-194 76.5q-121 0 -191.5 -76.5t-81.5 -191.5zM606 163q135 0 212.5 99.5t77.5 278.5t-77.5 278.5t-212.5 99.5q-136 0 -214 -99.5t-78 -278.5
t78 -278.5t214 -99.5z" />
    <glyph glyph-name="Racute" unicode="&#x154;" horiz-adv-x="1406" 
d="M782 1568h-186l166 322h264zM1063 0l-337 559h-338v-559h-258v1462h692q245 0 380.5 -121t135.5 -330q0 -165 -86 -278t-247 -153l359 -580h-301zM388 770h399q141 0 215 63t74 178t-74 177.5t-215 62.5h-399v-481z" />
    <glyph glyph-name="racute" unicode="&#x155;" horiz-adv-x="796" 
d="M535 1206h-187l167 322h263zM347 1082v-163h8q44 84 127 136t195 52q52 0 88 -9v-229q-63 9 -108 9q-139 0 -219 -74t-80 -239v-565h-240v1082h229z" />
    <glyph glyph-name="Rcommaaccent" unicode="&#x156;" horiz-adv-x="1406" 
d="M1364 0h-301l-337 559h-338v-559h-258v1462h692q245 0 380.5 -121t135.5 -330q0 -165 -86 -278t-247 -153zM388 770h399q141 0 215 63t74 178t-74 177.5t-215 62.5h-399v-481zM845 -124v-174q0 -141 -61 -219.5t-179 -81.5v106q42 2 69 37t27 97h-96v235h240z" />
    <glyph glyph-name="rcommaaccent" unicode="&#x157;" horiz-adv-x="796" 
d="M347 1082v-163h8q44 84 127 136t195 52q52 0 88 -9v-229q-63 9 -108 9q-139 0 -219 -74t-80 -239v-565h-240v1082h229zM357 -124v-174q0 -141 -61.5 -219.5t-179.5 -81.5v106q43 2 70 37t27 97h-97v235h241z" />
    <glyph glyph-name="Rcaron" unicode="&#x158;" horiz-adv-x="1406" 
d="M584 1565l-277 322h240l138 -177h8l138 177h240l-276 -322h-211zM1063 0l-337 559h-338v-559h-258v1462h692q245 0 380.5 -121t135.5 -330q0 -165 -86 -278t-247 -153l359 -580h-301zM388 770h399q141 0 215 63t74 178t-74 177.5t-215 62.5h-399v-481z" />
    <glyph glyph-name="rcaron" unicode="&#x159;" horiz-adv-x="796" 
d="M824 1528l-277 -322h-211l-276 322h240l137 -178h9l138 178h240zM347 1082v-163h8q44 84 127 136t195 52q52 0 88 -9v-229q-63 9 -108 9q-139 0 -219 -74t-80 -239v-565h-240v1082h229z" />
    <glyph glyph-name="Sacute" unicode="&#x15a;" horiz-adv-x="1355" 
d="M742 1568h-187l167 322h263zM1237 1056l-255 -20q-26 127 -113.5 192t-224.5 65q-129 0 -206 -58.5t-77 -151.5q0 -80 56 -119.5t166 -65.5l246 -57q62 -16 96 -25.5t89 -29t85.5 -39.5t68.5 -53.5t58 -73t34 -95.5t14 -124q0 -107 -45.5 -191t-125.5 -136.5t-184 -79.5
t-225 -27q-270 0 -438.5 125t-204.5 359l256 26q8 -67 33 -120t61 -87.5t84 -57.5t100.5 -32.5t112.5 -9.5q141 0 227.5 60t86.5 164q0 42 -13.5 74t-33 53t-57 38t-69.5 27t-86 23l-256 64q-56 14 -97.5 27.5t-91 36t-83.5 51.5t-64 69t-45 95t-15 122q0 192 155 306.5
t393 114.5q240 0 388.5 -113t199.5 -326z" />
    <glyph glyph-name="sacute" unicode="&#x15b;" horiz-adv-x="1056" 
d="M611 1206h-186l166 322h264zM975 797l-220 -40q-20 87 -85.5 132.5t-152.5 45.5q-90 0 -143.5 -38.5t-53.5 -107.5q0 -26 11 -45.5t27 -32.5t44.5 -23t54 -16t65.5 -13l108 -17q53 -9 93.5 -19.5t86 -27.5t77 -40.5t59 -56.5t41 -79t13.5 -103q0 -111 -63 -189t-168 -115
t-242 -37q-206 0 -337.5 92.5t-159.5 246.5l222 40q46 -208 279 -208q101 0 162.5 43.5t61.5 118.5q0 62 -54.5 92.5t-162.5 49.5l-112 18q-58 9 -102.5 21.5t-93 36.5t-80.5 56.5t-52.5 84t-20.5 117.5q0 143 124.5 233t316.5 90q179 0 306 -89t151 -221z" />
    <glyph glyph-name="Scircumflex" unicode="&#x15c;" horiz-adv-x="1355" 
d="M653 1740h-8l-138 -178h-240l276 322h211l277 -322h-240zM1237 1056l-255 -20q-26 127 -113.5 192t-224.5 65q-129 0 -206 -58.5t-77 -151.5q0 -80 56 -119.5t166 -65.5l246 -57q62 -16 96 -25.5t89 -29t85.5 -39.5t68.5 -53.5t58 -73t34 -95.5t14 -124
q0 -107 -45.5 -191t-125.5 -136.5t-184 -79.5t-225 -27q-270 0 -438.5 125t-204.5 359l256 26q8 -67 33 -120t61 -87.5t84 -57.5t100.5 -32.5t112.5 -9.5q141 0 227.5 60t86.5 164q0 42 -13.5 74t-33 53t-57 38t-69.5 27t-86 23l-256 64q-56 14 -97.5 27.5t-91 36
t-83.5 51.5t-64 69t-45 95t-15 122q0 192 155 306.5t393 114.5q240 0 388.5 -113t199.5 -326z" />
    <glyph glyph-name="scircumflex" unicode="&#x15d;" horiz-adv-x="1056" 
d="M522 1384h-8l-138 -178h-240l277 322h211l276 -322h-240zM975 797l-220 -40q-20 87 -85.5 132.5t-152.5 45.5q-90 0 -143.5 -38.5t-53.5 -107.5q0 -26 11 -45.5t27 -32.5t44.5 -23t54 -16t65.5 -13l108 -17q53 -9 93.5 -19.5t86 -27.5t77 -40.5t59 -56.5t41 -79
t13.5 -103q0 -111 -63 -189t-168 -115t-242 -37q-206 0 -337.5 92.5t-159.5 246.5l222 40q46 -208 279 -208q101 0 162.5 43.5t61.5 118.5q0 62 -54.5 92.5t-162.5 49.5l-112 18q-58 9 -102.5 21.5t-93 36.5t-80.5 56.5t-52.5 84t-20.5 117.5q0 143 124.5 233t316.5 90
q179 0 306 -89t151 -221z" />
    <glyph glyph-name="Scedilla" unicode="&#x15e;" horiz-adv-x="1355" 
d="M729 -71v-10q79 -9 128 -54t49 -126q0 -100 -69.5 -151t-184.5 -51q-121 0 -208 47l38 121q80 -41 158 -41q34 0 61.5 19.5t27.5 57.5q0 63 -89 63q-32 0 -83 -15v123l54 58q-236 19 -381.5 142.5t-178.5 338.5l256 26q8 -67 33 -120t61 -87.5t84 -57.5t100.5 -32.5
t112.5 -9.5q140 0 227 60.5t87 163.5q0 42 -13.5 74t-33 53t-57 38t-69.5 27t-86 23l-256 64q-56 14 -97.5 27.5t-91 36t-83.5 51.5t-64 69t-45 95t-15 122q0 192 155 306.5t393 114.5q242 0 389.5 -113t198.5 -326l-255 -20q-26 127 -113.5 192t-224.5 65
q-129 0 -206 -58.5t-77 -151.5q0 -80 56 -119.5t166 -65.5l246 -57q59 -14 96 -24t89 -29t85 -39.5t69.5 -53.5t57 -73t34.5 -96.5t14 -124.5q0 -131 -68.5 -226.5t-181 -144.5t-259.5 -60z" />
    <glyph glyph-name="scedilla" unicode="&#x15f;" horiz-adv-x="1056" 
d="M560 -71v-10q79 -9 128 -54t49 -126q0 -100 -69.5 -151t-184.5 -51q-121 0 -208 47l38 121q80 -41 158 -41q34 0 61.5 19.5t27.5 57.5q0 63 -89 63q-32 0 -83 -15v123l61 67q-174 17 -284 107t-135 228l222 40q46 -208 279 -208q101 0 162.5 43.5t61.5 118.5
q0 62 -54.5 92.5t-162.5 49.5l-112 18q-58 9 -102.5 21.5t-93 36.5t-80.5 56.5t-52.5 84t-20.5 117.5q0 143 124.5 233t316.5 90q179 0 306 -89t151 -221l-220 -40q-20 87 -85.5 132.5t-152.5 45.5q-90 0 -143.5 -38.5t-53.5 -107.5q0 -26 11 -45.5t27 -32.5t44.5 -23
t54 -16t65.5 -13l108 -17q53 -9 93.5 -19.5t86 -27.5t77 -40.5t59 -56.5t41 -79t13.5 -103q0 -148 -108 -234.5t-286 -102.5z" />
    <glyph glyph-name="Scaron" unicode="&#x160;" horiz-adv-x="1355" 
d="M1031 1887l-277 -321h-211l-276 321h240l138 -177h8l138 177h240zM1237 1056l-255 -20q-26 127 -113.5 192t-224.5 65q-129 0 -206 -58.5t-77 -151.5q0 -80 56 -119.5t166 -65.5l246 -57q62 -16 96 -25.5t89 -29t85.5 -39.5t68.5 -53.5t58 -73t34 -95.5t14 -124
q0 -107 -45.5 -191t-125.5 -136.5t-184 -79.5t-225 -27q-270 0 -438.5 125t-204.5 359l256 26q8 -67 33 -120t61 -87.5t84 -57.5t100.5 -32.5t112.5 -9.5q141 0 227.5 60t86.5 164q0 42 -13.5 74t-33 53t-57 38t-69.5 27t-86 23l-256 64q-56 14 -97.5 27.5t-91 36
t-83.5 51.5t-64 69t-45 95t-15 122q0 192 155 306.5t393 114.5q240 0 388.5 -113t199.5 -326z" />
    <glyph glyph-name="scaron" unicode="&#x161;" horiz-adv-x="1056" 
d="M900 1528l-276 -322h-211l-277 322h240l138 -178h8l138 178h240zM975 797l-220 -40q-20 87 -85.5 132.5t-152.5 45.5q-90 0 -143.5 -38.5t-53.5 -107.5q0 -26 11 -45.5t27 -32.5t44.5 -23t54 -16t65.5 -13l108 -17q53 -9 93.5 -19.5t86 -27.5t77 -40.5t59 -56.5t41 -79
t13.5 -103q0 -111 -63 -189t-168 -115t-242 -37q-206 0 -337.5 92.5t-159.5 246.5l222 40q46 -208 279 -208q101 0 162.5 43.5t61.5 118.5q0 62 -54.5 92.5t-162.5 49.5l-112 18q-58 9 -102.5 21.5t-93 36.5t-80.5 56.5t-52.5 84t-20.5 117.5q0 143 124.5 233t316.5 90
q179 0 306 -89t151 -221z" />
    <glyph glyph-name="Tcedilla" unicode="&#x162;" horiz-adv-x="1376" 
d="M716 -71v-10q79 -9 127.5 -54t48.5 -126q0 -100 -69 -151t-184 -51q-121 0 -208 47l38 121q80 -41 158 -41q34 0 61 19.5t27 57.5q0 63 -88 63q-32 0 -83 -15v123l82 88h-67v1242h-504v220h1266v-220h-504v-1242h-36z" />
    <glyph glyph-name="tcedilla" unicode="&#x163;" horiz-adv-x="731" 
d="M33 910v172h176v304h240v-304h232v-172h-232v-605q0 -70 26.5 -89.5t96.5 -19.5t99 2v-198q-8 -1 -25.5 -1.5t-44.5 -1t-46 -1.5l-61 -67v-10q79 -9 128 -54t49 -126q0 -100 -69 -151t-184 -51q-122 0 -209 47l39 121q80 -41 157 -41q34 0 61.5 19.5t27.5 57.5
q0 63 -89 63q-31 0 -82 -15v123l82 88q-102 13 -149 68t-47 175v667h-176z" />
    <glyph glyph-name="Tcaron" unicode="&#x164;" horiz-adv-x="1335" 
d="M1050 1887l-277 -321h-211l-276 321h240l138 -177h8l138 177h240zM1280 1242h-483v-1242h-258v1242h-484v220h1225v-220z" />
    <glyph glyph-name="tcaron" unicode="&#x165;" horiz-adv-x="1007" 
d="M1004 1483v-175q0 -141 -61.5 -219t-179.5 -81v105q43 2 70 37t27 97h-97v236h241zM572 196q70 0 99 2v-198q-48 -4 -168 -4q-80 0 -132 10.5t-90 37.5t-55 75t-17 123v668h-176v172h176v304h240v-304h232v-172h-232v-605q0 -70 26.5 -89.5t96.5 -19.5z" />
    <glyph glyph-name="Tbar" unicode="&#x166;" horiz-adv-x="1376" 
d="M817 812h212v-185h-212v-627h-258v627h-212v185h212v430h-504v220h1266v-220h-504v-430z" />
    <glyph glyph-name="tbar" unicode="&#x167;" horiz-adv-x="731" 
d="M449 910v-157h232v-155h-232v-293q0 -70 26.5 -89.5t96.5 -19.5t99 2v-198q-48 -4 -168 -4q-80 0 -132 10.5t-90 37.5t-55 75t-17 123v356h-176v155h176v157h-176v172h176v304h240v-304h232v-172h-232z" />
    <glyph glyph-name="Utilde" unicode="&#x168;" horiz-adv-x="1466" 
d="M1087 1820l-144 28q-17 -90 -76 -90q-30 0 -81 35l-48 31q-26 16 -38 23t-37 15.5t-49 8.5q-92 0 -154.5 -57t-79.5 -176l144 -28q17 90 77 90q31 0 81 -34l48 -31q70 -47 124 -47q92 0 154 56.5t79 175.5zM1337 1462v-923q0 -139 -46 -249t-127.5 -180t-190.5 -106.5
t-239 -36.5t-239.5 36.5t-191 106.5t-127.5 180t-46 249v923h258v-898q0 -199 87.5 -289.5t258.5 -90.5t258 90.5t87 289.5v898h258z" />
    <glyph glyph-name="utilde" unicode="&#x169;" 
d="M950 1482l-144 28q-17 -90 -76 -90q-31 0 -81 34l-48 31q-26 16 -38 23t-37 15.5t-49 8.5q-92 0 -154.5 -56.5t-79.5 -175.5l144 -28q17 90 77 90q29 0 80 -35l49 -31q70 -47 123 -47q92 0 154.5 57t79.5 176zM846 142h-8q-116 -167 -338 -167q-77 0 -144 23t-121 69
t-85.5 123t-31.5 177v715h240v-648q0 -140 55.5 -200.5t168.5 -60.5q104 0 178.5 84t74.5 233v592h240v-1082h-229v142z" />
    <glyph glyph-name="Umacron" unicode="&#x16a;" horiz-adv-x="1466" 
d="M427 1635v170h613v-170h-613zM1337 1462v-923q0 -139 -46 -249t-127.5 -180t-190.5 -106.5t-239 -36.5t-239.5 36.5t-191 106.5t-127.5 180t-46 249v923h258v-898q0 -199 87.5 -289.5t258.5 -90.5t258 90.5t87 289.5v898h258z" />
    <glyph glyph-name="umacron" unicode="&#x16b;" 
d="M290 1279v169h613v-169h-613zM846 142h-8q-116 -167 -338 -167q-77 0 -144 23t-121 69t-85.5 123t-31.5 177v715h240v-648q0 -140 55.5 -200.5t168.5 -60.5q104 0 178.5 84t74.5 233v592h241v-1082h-230v142z" />
    <glyph glyph-name="Ubreve" unicode="&#x16c;" horiz-adv-x="1466" 
d="M904 1888h175q0 -149 -102 -239.5t-243 -90.5q-92 0 -169.5 38.5t-126.5 115t-49 176.5h174q9 -79 58.5 -120t112.5 -41t112 41t58 120zM1338 1462v-923q0 -139 -46 -249t-127.5 -180t-191 -106.5t-239.5 -36.5t-239.5 36.5t-191 106.5t-127.5 180t-46 249v923h258v-898
q0 -199 87.5 -289.5t258.5 -90.5t258 90.5t87 289.5v898h259z" />
    <glyph glyph-name="ubreve" unicode="&#x16d;" 
d="M767 1528h175q0 -149 -102 -239t-243 -90q-142 0 -243.5 90t-101.5 239h174q9 -79 58.5 -119.5t112.5 -40.5t112 40.5t58 119.5zM846 142h-8q-116 -167 -338 -167q-77 0 -144 23t-121 69t-85.5 123t-31.5 177v715h240v-648q0 -140 55.5 -200.5t168.5 -60.5
q104 0 178.5 84t74.5 233v592h241v-1082h-230v142z" />
    <glyph glyph-name="Uring" unicode="&#x16e;" horiz-adv-x="1466" 
d="M735 1541q-100 0 -167.5 65.5t-67.5 161.5t67.5 161.5t167.5 65.5q96 0 164 -65.5t68 -161.5t-68 -161.5t-164 -65.5zM735 1661q43 0 72 30t29 77t-29 77t-72 30q-46 0 -75 -29.5t-29 -77.5t29 -77.5t75 -29.5zM1337 1462v-923q0 -139 -46 -249t-127.5 -180
t-190.5 -106.5t-239 -36.5t-239.5 36.5t-191 106.5t-127.5 180t-46 249v923h258v-898q0 -199 87.5 -289.5t258.5 -90.5t258 90.5t87 289.5v898h258z" />
    <glyph glyph-name="uring" unicode="&#x16f;" 
d="M598 1202q-100 0 -167.5 65.5t-67.5 161.5t67.5 161.5t167.5 65.5q96 0 164 -65.5t68 -161.5t-68 -161.5t-164 -65.5zM598 1322q43 0 72 30t29 77t-29 77t-72 30q-46 0 -75 -29.5t-29 -77.5t29 -77.5t75 -29.5zM846 142h-8q-116 -167 -338 -167q-77 0 -144 23t-121 69
t-85.5 123t-31.5 177v715h240v-648q0 -140 55.5 -200.5t168.5 -60.5q104 0 178.5 84t74.5 233v592h241v-1082h-230v142z" />
    <glyph glyph-name="Uhungarumlaut" unicode="&#x170;" horiz-adv-x="1466" 
d="M653 1568h-164l115 322h230zM979 1568h-165l116 322h229zM1337 1462v-923q0 -139 -46 -249t-127.5 -180t-190.5 -106.5t-239 -36.5t-239.5 36.5t-191 106.5t-127.5 180t-46 249v923h258v-898q0 -199 87.5 -289.5t258.5 -90.5t258 90.5t87 289.5v898h258z" />
    <glyph glyph-name="uhungarumlaut" unicode="&#x171;" 
d="M516 1206h-164l115 322h230zM842 1206h-165l115 322h230zM846 142h-8q-116 -167 -338 -167q-77 0 -144 23t-121 69t-85.5 123t-31.5 177v715h240v-648q0 -140 55.5 -200.5t168.5 -60.5q104 0 178.5 84t74.5 233v592h241v-1082h-230v142z" />
    <glyph glyph-name="Uogonek" unicode="&#x172;" horiz-adv-x="1466" 
d="M1337 1462l1 -923q0 -189 -82 -319.5t-227 -195.5q-108 -47 -178 -115t-70 -141q0 -41 31.5 -62.5t80.5 -21.5q55 0 102 16v-148q-49 -15 -143 -15q-119 0 -189.5 53t-70.5 151q0 65 35 124t96 102q-128 2 -235.5 39t-187.5 107t-125 179.5t-45 246.5v923h258v-898
q0 -199 87.5 -289.5t258.5 -90.5t258 90.5t87 289.5v898h258z" />
    <glyph glyph-name="uogonek" unicode="&#x173;" 
d="M1076 1082v-1082q-187 -110 -187 -232q0 -41 31.5 -62.5t80.5 -21.5q55 0 102 16v-148q-49 -15 -143 -15q-119 0 -189.5 53t-70.5 151q0 79 50.5 148t133.5 111h-38v142h-8q-116 -167 -338 -167q-77 0 -144 23t-121 69t-85.5 123t-31.5 177v715h240v-648
q0 -140 55.5 -200.5t168.5 -60.5q104 0 178.5 84t74.5 233v592h241z" />
    <glyph glyph-name="Wcircumflex" unicode="&#x174;" horiz-adv-x="1933" 
d="M968 1740h-8l-138 -178h-240l276 322h211l277 -322h-240zM1227 0l-257 1106h-8l-253 -1106h-305l-364 1462h264l253 -1137h8l255 1137h287l256 -1137h8l254 1137h267l-368 -1462h-297z" />
    <glyph glyph-name="wcircumflex" unicode="&#x175;" horiz-adv-x="1701" 
d="M859 1384h-8l-138 -178h-240l277 322h211l276 -322h-240zM1695 1082l-350 -1082h-268l-226 777h-8l-227 -777h-258l-352 1082h263l224 -799h9l217 799h273l217 -799h8l225 799h253z" />
    <glyph glyph-name="Ycircumflex" unicode="&#x176;" horiz-adv-x="1370" 
d="M692 1740h-9l-138 -178h-240l277 322h211l276 -322h-240zM1343 1462l-529 -894v-568h-258v567l-529 895h283l377 -675l378 675h278z" />
    <glyph glyph-name="ycircumflex" unicode="&#x177;" horiz-adv-x="1091" 
d="M545 1384h-8l-138 -178h-240l277 322h211l276 -322h-240zM1079 1082l-403 -1082q-38 -104 -78 -177t-77.5 -116.5t-83 -68t-87 -32.5t-98.5 -8q-87 0 -145 7v205q4 0 21.5 -3t39 -4.5t49.5 -1.5q78 0 118.5 37t81.5 137l16 37l-435 1070h260l289 -788h8l268 788h256z" />
    <glyph glyph-name="Ydieresis" unicode="&#x178;" horiz-adv-x="1370" 
d="M367 1831h224v-222h-224v222zM784 1831h224v-222h-224v222zM1343 1462l-529 -894v-568h-258v567l-529 895h283l377 -675l378 675h278z" />
    <glyph glyph-name="Zacute" unicode="&#x179;" horiz-adv-x="1269" 
d="M748 1568h-186l166 322h264zM390 221h806v-221h-1132v221l812 1021h-764v220h1086v-220z" />
    <glyph glyph-name="zacute" unicode="&#x17a;" horiz-adv-x="1015" 
d="M618 1206h-187l167 322h263zM68 0v208l582 672h-552v202h851v-207l-583 -675h583v-200h-881z" />
    <glyph glyph-name="Zdotaccent" unicode="&#x17b;" horiz-adv-x="1269" 
d="M535 1845h240v-236h-240v236zM390 221h806v-221h-1132v221l812 1021h-764v220h1086v-220z" />
    <glyph glyph-name="zdotaccent" unicode="&#x17c;" horiz-adv-x="1015" 
d="M405 1483h240v-236h-240v236zM68 0v208l582 672h-552v202h851v-207l-583 -675h583v-200h-881z" />
    <glyph glyph-name="Zcaron" unicode="&#x17d;" horiz-adv-x="1269" 
d="M1037 1887l-276 -321h-211l-277 321h240l138 -177h8l138 177h240zM390 221h806v-221h-1132v221l812 1021h-764v220h1086v-220z" />
    <glyph glyph-name="zcaron" unicode="&#x17e;" horiz-adv-x="1015" 
d="M907 1528l-277 -322h-211l-276 322h240l138 -178h8l138 178h240zM68 0v208l582 672h-552v202h851v-207l-583 -675h583v-200h-881z" />
    <glyph glyph-name="florin" unicode="&#x192;" horiz-adv-x="983" 
d="M836 1313q-58 0 -95 -24t-48 -93l-46 -262h216v-172h-247l-90 -505q-27 -151 -123.5 -216.5t-251.5 -65.5q-53 0 -151 10v192q70 -10 146 -10q60 0 96.5 23t48.5 92l85 480h-182v172h213l51 287q49 284 374 284q52 0 150 -10v-191q-61 9 -146 9z" />
    <glyph glyph-name="Oslashacute" unicode="&#x1fe;" horiz-adv-x="1628" 
d="M885 1568h-186l166 322h264zM1536 1427l-178 -206q137 -196 137 -490q0 -233 -88.5 -407t-247.5 -265.5t-367 -91.5q-241 0 -416 124l-150 -173l-119 111l150 173q-168 204 -168 529q0 233 88.5 407t247.5 265.5t367 91.5q271 0 454 -152l171 197zM352 731
q0 -203 72 -336l667 769q-113 118 -299 118q-202 0 -321 -144t-119 -407zM1233 731q0 166 -50 289l-654 -753q108 -87 263 -87q202 0 321.5 144t119.5 407z" />
    <glyph glyph-name="oslashacute" unicode="&#x1ff;" horiz-adv-x="1212" 
d="M700 1206h-187l167 322h263zM1031 912q111 -149 111 -371q0 -258 -145.5 -412t-389.5 -154q-189 0 -323 95l-116 -130l-88 79l116 132q-126 151 -126 390q0 258 145.5 412t391.5 154q200 0 338 -108l97 110l90 -82zM607 919q-136 0 -214 -99.5t-78 -278.5q0 -124 38 -211
l450 508q-75 81 -196 81zM607 163q135 0 212.5 99.5t77.5 278.5q0 106 -29 187l-443 -500q73 -65 182 -65z" />
    <glyph glyph-name="Scommaaccent" unicode="&#x218;" horiz-adv-x="1355" 
d="M1237 1056l-255 -20q-26 127 -113.5 192t-224.5 65q-129 0 -206 -58.5t-77 -151.5q0 -80 56 -119.5t166 -65.5l246 -57q62 -16 96 -25.5t89 -29t85.5 -39.5t68.5 -53.5t58 -73t34 -95.5t14 -124q0 -107 -45.5 -191t-125.5 -136.5t-184 -79.5t-225 -27q-270 0 -438.5 125
t-204.5 359l256 26q8 -67 33 -120t61 -87.5t84 -57.5t100.5 -32.5t112.5 -9.5q141 0 227.5 60t86.5 164q0 42 -13.5 74t-33 53t-57 38t-69.5 27t-86 23l-256 64q-56 14 -97.5 27.5t-91 36t-83.5 51.5t-64 69t-45 95t-15 122q0 192 155 306.5t393 114.5q240 0 388.5 -113
t199.5 -326zM813 -124v-174q0 -141 -61.5 -219.5t-179.5 -81.5v106q43 2 70 37t27 97h-97v235h241z" />
    <glyph glyph-name="scommaaccent" unicode="&#x219;" horiz-adv-x="1056" 
d="M975 797l-220 -40q-20 87 -85.5 132.5t-152.5 45.5q-90 0 -143.5 -38.5t-53.5 -107.5q0 -26 11 -45.5t27 -32.5t44.5 -23t54 -16t65.5 -13l108 -17q53 -9 93.5 -19.5t86 -27.5t77 -40.5t59 -56.5t41 -79t13.5 -103q0 -111 -63 -189t-168 -115t-242 -37
q-206 0 -337.5 92.5t-159.5 246.5l222 40q46 -208 279 -208q101 0 162.5 43.5t61.5 118.5q0 62 -54.5 92.5t-162.5 49.5l-112 18q-58 9 -102.5 21.5t-93 36.5t-80.5 56.5t-52.5 84t-20.5 117.5q0 143 124.5 233t316.5 90q179 0 306 -89t151 -221zM646 -124v-174
q0 -141 -61 -219.5t-179 -81.5v106q42 2 69 37t27 97h-96v235h240z" />
    <glyph glyph-name="uni021A" unicode="&#x21a;" horiz-adv-x="1335" 
d="M1280 1242h-483v-1242h-258v1242h-484v220h1225v-220zM787 -124v-174q0 -141 -61.5 -219.5t-179.5 -81.5v106q43 2 70 37t27 97h-97v235h241z" />
    <glyph glyph-name="uni021B" unicode="&#x21b;" horiz-adv-x="731" 
d="M572 196q70 0 99 2v-198q-48 -4 -168 -4q-80 0 -132 10.5t-90 37.5t-55 75t-17 123v668h-176v172h176v304h240v-304h232v-172h-232v-605q0 -70 26.5 -89.5t96.5 -19.5zM560 -124v-174q0 -141 -61 -219.5t-179 -81.5v106q42 2 69 37t27 97h-96v235h240z" />
    <glyph glyph-name="dotlessj" unicode="&#x237;" horiz-adv-x="475" 
d="M27 -199q46 0 68.5 17t22.5 71v1193h240v-1234q0 -75 -16.5 -124.5t-51.5 -77t-80.5 -38t-113.5 -10.5q-108 0 -156 4v201q29 -2 87 -2z" />
    <glyph glyph-name="uni02BC" unicode="&#x2bc;" horiz-adv-x="466" 
d="M358 1483v-175q0 -141 -61 -219t-179 -81v105q42 2 69 37t27 97h-96v236h240z" />
    <glyph glyph-name="circumflex" unicode="&#x2c6;" horiz-adv-x="991" 
d="M504 1384h-9l-137 -178h-240l276 322h211l277 -322h-240z" />
    <glyph glyph-name="caron" unicode="&#x2c7;" horiz-adv-x="991" 
d="M882 1528l-277 -322h-211l-276 322h240l137 -178h9l138 178h240z" />
    <glyph glyph-name="breve" unicode="&#x2d8;" horiz-adv-x="917" 
d="M633 1528h175q0 -149 -102 -239t-243 -90q-142 0 -243.5 90t-101.5 239h174q9 -79 58.5 -119.5t112.5 -40.5t112 40.5t58 119.5z" />
    <glyph glyph-name="dotaccent" unicode="&#x2d9;" horiz-adv-x="466" 
d="M118 1483h240v-236h-240v236z" />
    <glyph glyph-name="ring" unicode="&#x2da;" horiz-adv-x="694" 
d="M353 1202q-100 0 -167.5 65.5t-67.5 161.5t67.5 161.5t167.5 65.5q96 0 163.5 -65.5t67.5 -161.5t-67.5 -161.5t-163.5 -65.5zM353 1322q43 0 71.5 30t28.5 77t-28.5 77t-71.5 30q-46 0 -75 -29.5t-29 -77.5t29 -77.5t75 -29.5z" />
    <glyph glyph-name="ogonek" unicode="&#x2db;" horiz-adv-x="630" 
d="M419 -316q55 0 102 16v-148q-49 -15 -143 -15q-119 0 -189.5 53t-70.5 151q0 81 51.5 150t136.5 111h191q-190 -112 -190 -234q0 -41 31.5 -62.5t80.5 -21.5z" />
    <glyph glyph-name="tilde" unicode="&#x2dc;" horiz-adv-x="933" 
d="M824 1482l-144 28q-17 -90 -76 -90q-31 0 -81 34l-48 31q-26 16 -38 23t-37 15.5t-49 8.5q-92 0 -154 -56.5t-79 -175.5l144 -28q17 90 76 90q30 0 81 -35l48 -31q70 -47 124 -47q92 0 154 56.5t79 176.5z" />
    <glyph glyph-name="hungarumlaut" unicode="&#x2dd;" horiz-adv-x="897" 
d="M608 1206h-165l116 322h229zM282 1206h-164l115 322h230z" />
    <glyph glyph-name="uni0326" unicode="&#x326;" horiz-adv-x="0" 
d="M358 -124v-174q0 -141 -61 -219.5t-179 -81.5v106q42 2 69 37t27 97h-96v235h240z" />
    <glyph glyph-name="Wgrave" unicode="&#x1e80;" horiz-adv-x="1933" 
d="M891 1890l166 -322h-187l-243 322h264zM1227 0l-257 1106h-8l-253 -1106h-304l-365 1462h264l253 -1137h8l255 1137h287l256 -1137h8l254 1137h267l-368 -1462h-297z" />
    <glyph glyph-name="wgrave" unicode="&#x1e81;" horiz-adv-x="1701" 
d="M782 1528l166 -322h-186l-244 322h264zM1696 1082l-351 -1082h-268l-226 776h-8l-227 -776h-258l-352 1082h263l224 -799h9l217 799h273l217 -799h8l225 799h254z" />
    <glyph glyph-name="Wacute" unicode="&#x1e82;" horiz-adv-x="1933" 
d="M1057 1568h-187l167 322h263zM1227 0l-257 1106h-8l-253 -1106h-304l-365 1462h264l253 -1137h8l255 1137h287l256 -1137h8l254 1137h267l-368 -1462h-297z" />
    <glyph glyph-name="wacute" unicode="&#x1e83;" horiz-adv-x="1701" 
d="M948 1206h-186l166 322h264zM1696 1082l-351 -1082h-268l-226 776h-8l-227 -776h-258l-352 1082h263l224 -799h9l217 799h273l217 -799h8l225 799h254z" />
    <glyph glyph-name="Wdieresis" unicode="&#x1e84;" horiz-adv-x="1933" 
d="M643 1831h224v-222h-224v222zM1060 1831h224v-222h-224v222zM1227 0l-257 1106h-8l-253 -1106h-304l-365 1462h264l253 -1137h8l255 1137h287l256 -1137h8l254 1137h267l-368 -1462h-297z" />
    <glyph glyph-name="wdieresis" unicode="&#x1e85;" horiz-adv-x="1701" 
d="M535 1468h224v-221h-224v221zM952 1468h224v-221h-224v221zM1696 1082l-351 -1082h-268l-226 777h-8l-227 -777h-258l-352 1082h263l224 -799h9l217 799h273l217 -799h8l225 799h254z" />
    <glyph glyph-name="Ygrave" unicode="&#x1ef2;" horiz-adv-x="1370" 
d="M614 1890l167 -322h-187l-243 322h263zM1343 1462l-529 -894v-568h-258v567l-529 895h283l377 -675l378 675h278z" />
    <glyph glyph-name="ygrave" unicode="&#x1ef3;" horiz-adv-x="1091" 
d="M468 1528l166 -322h-186l-244 322h264zM1079 1082l-403 -1082q-38 -104 -78 -177t-77.5 -116.5t-83 -68t-87 -32.5t-98.5 -8q-87 0 -145 7v205q4 0 21.5 -3t39 -4.5t49.5 -1.5q78 0 118.5 37t81.5 137l16 37l-435 1070h260l289 -788h8l268 788h256z" />
    <glyph glyph-name="uni2007" unicode="&#x2007;" horiz-adv-x="688" 
 />
    <glyph glyph-name="uni2008" unicode="&#x2008;" horiz-adv-x="489" 
 />
    <glyph glyph-name="zerowidthspace" unicode="&#x200b;" horiz-adv-x="0" 
 />
    <glyph glyph-name="endash" unicode="&#x2013;" horiz-adv-x="1361" 
d="M131 457v213h1100v-213h-1100z" />
    <glyph glyph-name="emdash" unicode="&#x2014;" horiz-adv-x="1767" 
d="M131 457v213h1505v-213h-1505z" />
    <glyph glyph-name="quoteleft" unicode="&#x2018;" horiz-adv-x="507" 
d="M116 884v215q0 357 267 363v-125q-59 -4 -86 -45.5t-27 -129.5h122v-278h-276z" />
    <glyph glyph-name="quoteright" unicode="&#x2019;" horiz-adv-x="507" 
d="M392 1462v-214q0 -358 -267 -364v125q59 4 86 46t27 130h-122v277h276z" />
    <glyph glyph-name="quotesinglbase" unicode="&#x201a;" horiz-adv-x="507" 
d="M392 277v-214q0 -358 -267 -364v126q59 4 86 45.5t27 129.5h-122v277h276z" />
    <glyph glyph-name="quotedblleft" unicode="&#x201c;" horiz-adv-x="917" 
d="M116 884v215q0 357 267 363v-125q-59 -4 -86 -45.5t-27 -129.5h122v-278h-276zM525 884v215q0 357 267 363v-125q-59 -4 -86 -45.5t-27 -129.5h122v-278h-276z" />
    <glyph glyph-name="quotedblright" unicode="&#x201d;" horiz-adv-x="917" 
d="M392 1462v-214q0 -358 -267 -364v125q59 4 86 46t27 130h-122v277h276zM801 1462v-214q0 -358 -267 -364v125q59 4 86 46t27 130h-122v277h276z" />
    <glyph glyph-name="quotedblbase" unicode="&#x201e;" horiz-adv-x="917" 
d="M801 277v-214q0 -358 -267 -364v126q59 4 86 45.5t27 129.5h-122v277h276zM392 277v-214q0 -358 -267 -364v126q59 4 86 45.5t27 129.5h-122v277h276z" />
    <glyph glyph-name="dagger" unicode="&#x2020;" horiz-adv-x="1132" 
d="M1073 859h-386v-1244h-240v1244h-387v198h387v405h240v-405h386v-198z" />
    <glyph glyph-name="daggerdbl" unicode="&#x2021;" horiz-adv-x="1132" 
d="M687 859v-641h386v-198h-386v-405h-240v405h-387v198h387v641h-387v198h387v405h240v-405h386v-198h-386z" />
    <glyph glyph-name="bullet" unicode="&#x2022;" horiz-adv-x="1060" 
d="M529 317q-169 0 -290.5 122.5t-121.5 293.5q0 170 121.5 291t290.5 121q172 0 293.5 -120.5t121.5 -291.5q0 -172 -121.5 -294t-293.5 -122z" />
    <glyph glyph-name="ellipsis" unicode="&#x2026;" horiz-adv-x="1585" 
d="M134 278h282v-278h-282v278zM652 278h282v-278h-282v278zM1169 278h283v-278h-283v278z" />
    <glyph glyph-name="perthousand" unicode="&#x2030;" horiz-adv-x="2473" 
d="M406 1464q147 0 231.5 -99.5t84.5 -294.5q0 -196 -84 -296t-232 -100t-232.5 99.5t-84.5 296.5q0 195 84.5 294.5t232.5 99.5zM1348 1435l-814 -1435h-161l814 1435h161zM406 810q74 0 108.5 60.5t34.5 199.5q0 138 -35 198t-108 60q-74 0 -109 -60.5t-35 -197.5
q0 -139 35 -199.5t109 -60.5zM1312 761q149 0 233.5 -100t84.5 -296q0 -195 -84.5 -294.5t-233.5 -99.5q-147 0 -231 99.5t-84 294.5q0 196 84 296t231 100zM2068 761q148 0 233 -100t85 -296q0 -195 -85 -294.5t-233 -99.5t-231.5 99.5t-83.5 294.5q0 196 83.5 296
t231.5 100zM1312 105q76 0 110.5 60.5t34.5 199.5q0 140 -34.5 199.5t-110.5 59.5q-73 0 -106.5 -59.5t-33.5 -199.5q0 -139 33.5 -199.5t106.5 -60.5zM2068 105q73 0 108 61t35 199q0 139 -34.5 199t-108.5 60q-75 0 -108.5 -59.5t-33.5 -199.5q0 -139 34 -199.5t108 -60.5
z" />
    <glyph glyph-name="guilsinglleft" unicode="&#x2039;" horiz-adv-x="536" 
d="M454 1004v-243l-217 -198v-8l217 -199v-244l-367 318v257z" />
    <glyph glyph-name="guilsinglright" unicode="&#x203a;" horiz-adv-x="536" 
d="M450 430l-367 -318v244l217 199v8l-217 198v243l367 -317v-257z" />
    <glyph glyph-name="zerosuperior" unicode="&#x2070;" horiz-adv-x="899" 
d="M448 1479q85 0 153.5 -25t121 -77t81 -140t28.5 -207q0 -230 -103.5 -337t-280.5 -107q-175 0 -277.5 107t-102.5 337q0 233 102.5 341t277.5 108zM448 727q39 0 68.5 11t58 41t43.5 93.5t15 157.5q0 76 -10.5 132.5t-27.5 89.5t-42.5 52.5t-49.5 25.5t-55 6
q-39 0 -68.5 -11.5t-57.5 -42t-43 -94t-15 -158.5q0 -94 15 -157.5t43 -93.5t57.5 -41t68.5 -11z" />
    <glyph glyph-name="foursuperior" unicode="&#x2074;" horiz-adv-x="831" 
d="M788 938v-138h-114v-198h-184v198h-442v156l377 506h249v-524h114zM220 938h270v365h-9l-261 -356v-9z" />
    <glyph glyph-name="fivesuperior" unicode="&#x2075;" horiz-adv-x="808" 
d="M425 1189q58 0 113 -18t102 -53t75 -94.5t28 -134.5q0 -77 -29 -136t-79 -95t-113 -54t-135 -18q-142 0 -236 62t-118 181l190 20q11 -56 54 -88.5t110 -32.5q71 0 116 41.5t45 119.5q0 79 -45.5 120t-118.5 41q-88 0 -156 -62h-177l44 474h584v-149h-434l-18 -189h8
q68 65 190 65z" />
    <glyph glyph-name="sixsuperior" unicode="&#x2076;" horiz-adv-x="864" 
d="M481 1163q77 0 147 -30t119.5 -95t49.5 -153q0 -76 -31.5 -135.5t-83 -94t-111 -52t-121.5 -17.5q-195 0 -292 114q-89 104 -89 334q0 106 24.5 187.5t62.5 129t90 77.5t99.5 40.5t99.5 10.5q119 0 212 -58t124 -160l-183 -19q-17 46 -57 74.5t-97 28.5q-74 0 -131 -63.5
t-57 -186.5v-9h8q37 37 95 57t122 20zM443 719q71 0 120 41.5t49 117.5q0 74 -49.5 115t-119.5 41q-74 0 -124.5 -42t-50.5 -114q0 -73 50.5 -116t124.5 -43z" />
    <glyph glyph-name="sevensuperior" unicode="&#x2077;" horiz-adv-x="729" 
d="M706 1462v-78q0 -46 -17.5 -91t-45.5 -84.5t-61.5 -81.5t-67 -91.5t-61.5 -105.5t-45.5 -131.5t-17.5 -161.5v-35h-200v45q0 97 23.5 186t63.5 159t78.5 121.5t83.5 105.5t62 81v8h-483v154h688z" />
    <glyph glyph-name="eightsuperior" unicode="&#x2078;" horiz-adv-x="864" 
d="M431 1479q93 0 167.5 -23.5t123.5 -78t49 -133.5q0 -122 -134 -175v-9q74 -27 116.5 -81.5t42.5 -134.5q0 -87 -51 -146.5t-131 -85.5t-183 -26t-182.5 26t-130.5 85.5t-51 146.5q0 80 42.5 134.5t116.5 81.5v9q-134 53 -134 175q0 79 48.5 133.5t123 78t167.5 23.5z
M431 1109q67 0 113.5 32.5t46.5 90.5t-46.5 89t-113.5 31t-113 -31t-46 -89t46 -90.5t113 -32.5zM431 719q75 0 126 36t51 104q0 67 -51 103t-126 36t-125.5 -36t-50.5 -103q0 -68 51 -104t125 -36z" />
    <glyph glyph-name="ninesuperior" unicode="&#x2079;" horiz-adv-x="864" 
d="M383 902q-77 0 -147 30t-119.5 95t-49.5 153q0 76 31.5 135.5t83 94t111 52t121.5 17.5q195 0 292 -114q89 -104 89 -335q0 -106 -24.5 -187.5t-62.5 -129t-90 -77t-99.5 -40t-99.5 -10.5q-119 0 -212 57.5t-124 159.5l183 19q17 -46 57 -74.5t97 -28.5q74 0 131 64
t57 187v8h-8q-76 -76 -217 -76zM421 1345q-71 0 -120 -41.5t-49 -116.5q0 -74 49.5 -115.5t119.5 -41.5q74 0 124.5 42.5t50.5 114.5q0 73 -50.5 115.5t-124.5 42.5z" />
    <glyph glyph-name="franc" unicode="&#x20a3;" horiz-adv-x="1435" 
d="M1417 0h-233l-168 314h-155v-314h-206v672h-286v-672h-239v1435h1013v-200h-774v-366h712q143 0 229.5 -77t86.5 -199q0 -88 -46 -153t-129 -97zM861 471h191q64 0 99 32.5t35 85.5q0 51 -35 83.5t-99 32.5h-191v-234z" />
    <glyph glyph-name="Euro" unicode="&#x20ac;" horiz-adv-x="1359" 
d="M888 172q216 0 379 173v-256q-170 -118 -393 -118q-252 0 -425 145t-225 400h-167l77 139h72q-1 22 -1 66q0 41 1 61h-151l76 136h93q53 252 231.5 398t428.5 146q260 0 433 -153l-107 -192q-135 147 -338 147q-149 0 -255 -91t-146 -255h622l-79 -136h-563
q-2 -40 -2 -61q0 -24 2 -66h494l-77 -139h-395q41 -165 149 -254.5t266 -89.5z" />
    <glyph glyph-name="uni2116" unicode="&#x2116;" horiz-adv-x="2283" 
d="M1886 1482q164 0 259 -97.5t95 -264.5q0 -165 -95 -262.5t-259 -97.5q-163 0 -257 97t-94 263q0 167 94 264.5t257 97.5zM1361 0h-280l-704 1105h-9v-1105h-238v1462h290l695 -1088h8v1088h238v-1462zM1886 897q79 0 123 57t44 166q0 110 -44 167.5t-123 57.5
q-77 0 -121 -57.5t-44 -167.5q0 -108 44 -165.5t121 -57.5zM2240 0h-705v183h705v-183z" />
    <glyph glyph-name="trademark" unicode="&#x2122;" horiz-adv-x="1830" 
d="M792 1315h-243v-586h-177v586h-242v147h662v-147zM1700 1462v-733h-166v513h-8l-159 -513h-127l-162 513h-8v-513h-162v733h262l131 -462h9l132 462h258z" />
    <glyph glyph-name="Ohm" unicode="&#x2126;" horiz-adv-x="1456" 
d="M1367 197v-197h-580v332q149 43 238.5 174t89.5 314q0 217 -107 343t-283 126q-172 0 -279 -126.5t-107 -342.5q0 -184 89.5 -315t241.5 -173v-332h-581v197h401v61q-176 62 -286 219.5t-110 379.5q0 142 49 262.5t134 202.5t200.5 127.5t247.5 45.5q180 0 324.5 -77.5
t228.5 -224t84 -336.5q0 -224 -109.5 -380t-286.5 -216v-64h401z" />
    <glyph glyph-name="partialdiff" unicode="&#x2202;" horiz-adv-x="1200" 
d="M541 1495q56 0 109.5 -10t111.5 -34.5t108 -62.5t95 -98.5t77 -137.5t51 -184.5t19 -234.5q0 -387 -145.5 -572.5t-406.5 -185.5q-90 0 -172.5 28t-150 81.5t-108 143.5t-40.5 203q0 125 41.5 223t111.5 155.5t155.5 87t180.5 29.5q167 0 282 -90q-35 467 -343 467
q-174 0 -309 -115l-64 177q157 130 397 130zM561 163q135 0 212.5 121.5t88.5 350.5q-86 105 -248 105q-121 0 -201 -79.5t-80 -229.5q0 -124 64 -196t164 -72z" />
    <glyph glyph-name="emptyset" unicode="&#x2205;" horiz-adv-x="1755" 
d="M1519 1479l-143 -190q117 -105 183 -249.5t66 -308.5q0 -153 -59 -291t-159 -238t-238.5 -159t-291.5 -59q-217 0 -400 115l-87 -115h-154l143 189q-117 105 -183 249.5t-66 308.5q0 153 59 291.5t159 238.5t238 159t291 59q217 0 401 -116l87 116h154zM279 731
q0 -129 49.5 -243.5t137.5 -199.5l726 962q-145 91 -315 91q-122 0 -233 -48.5t-191 -130t-127 -194.5t-47 -237zM877 122q163 0 301 81.5t217.5 221.5t79.5 306q0 129 -49 243.5t-137 199.5l-726 -962q144 -90 314 -90z" />
    <glyph glyph-name="increment" unicode="&#x2206;" horiz-adv-x="1505" 
d="M1486 0h-1467l567 1462h333zM1127 209l-377 1026h-9l-376 -1026h762z" />
    <glyph glyph-name="product" unicode="&#x220f;" horiz-adv-x="1392" 
d="M1008 -303v1531h-624v-1531h-254v1765h1132v-1765h-254z" />
    <glyph glyph-name="summation" unicode="&#x2211;" horiz-adv-x="1353" 
d="M1270 -303h-1140v186l566 699l-537 695v185h1078v-234h-709l476 -620l-554 -681h820v-230z" />
    <glyph glyph-name="minus" unicode="&#x2212;" horiz-adv-x="1003" 
d="M943 760v-188h-883v188h883z" />
    <glyph glyph-name="bulletoperator" unicode="&#x2219;" horiz-adv-x="595" 
d="M298 485q-68 0 -116 47.5t-48 115.5q0 67 48 115.5t116 48.5t115.5 -48.5t47.5 -115.5q0 -68 -47.5 -115.5t-115.5 -47.5z" />
    <glyph glyph-name="radical" unicode="&#x221a;" horiz-adv-x="1058" 
d="M611 -303h-212l-197 691l-139 -70l-53 111l305 153l201 -691h4l389 1544h140z" />
    <glyph glyph-name="infinity" unicode="&#x221e;" horiz-adv-x="1538" 
d="M1088 951q141 0 228.5 -96t87.5 -223q0 -131 -87.5 -230.5t-228.5 -99.5q-191 0 -329 181q-142 -181 -311 -181q-94 0 -167 48.5t-110 123t-37 158.5q0 127 87 223t227 96q191 0 327 -178q140 178 313 178zM1086 451q76 0 119 52t43 129q0 76 -42 124t-120 48
q-70 0 -122 -40t-105 -123q57 -95 110 -142.5t117 -47.5zM452 451q67 0 119 41t104 122q-54 95 -106 142.5t-117 47.5q-79 0 -120.5 -48t-41.5 -124q0 -77 43 -129t119 -52z" />
    <glyph glyph-name="integral" unicode="&#x222b;" horiz-adv-x="796" 
d="M604 1522q94 0 173 -18v-186q-66 12 -133 12q-60 0 -92.5 -24.5t-32.5 -95.5v-1325q0 -154 -85 -220.5t-240 -66.5q-91 0 -174 19l1 185q66 -12 133 -12q59 0 92 25t33 96v1324q0 154 85 220.5t240 66.5z" />
    <glyph glyph-name="approxequal" unicode="&#x2248;" horiz-adv-x="1001" 
d="M726 865q55 0 112.5 38t102.5 95v-201q-105 -104 -215 -104q-45 0 -146 44l-162 70q-7 3 -27 11.5t-29.5 12.5t-26 9.5t-31 7.5t-29.5 2q-55 0 -112.5 -38t-102.5 -95v201q105 104 215 104q45 0 146 -44l162 -70q7 -3 27 -11.5t29.5 -12.5t26 -9.5t31 -7.5t29.5 -2z
M726 514q55 0 112.5 37.5t102.5 94.5v-201q-105 -104 -215 -104q-45 0 -146 44l-162 70q-7 3 -27 11.5t-29.5 12.5t-26 9.5t-31 7.5t-29.5 2q-55 0 -112.5 -38t-102.5 -95v201q105 104 215 104q45 0 146 -44l162 -70q7 -3 23 -10t24 -10t22.5 -8t24.5 -7.5t23 -4.5t26 -2z
" />
    <glyph glyph-name="notequal" unicode="&#x2260;" horiz-adv-x="1001" 
d="M654 781l-131 -223h418v-166h-514l-119 -210l-135 75l79 135h-192v166h288l129 223h-417v165h513l122 210l134 -75l-79 -135h191v-165h-287z" />
    <glyph glyph-name="lessequal" unicode="&#x2264;" horiz-adv-x="1089" 
d="M980 1180v-180l-670 -270v-8l670 -271v-180l-880 368v176zM122 167h858v-167h-858v167z" />
    <glyph glyph-name="greaterequal" unicode="&#x2265;" horiz-adv-x="1089" 
d="M990 639l-880 -368v180l670 271v8l-670 270v180l880 -365v-176zM110 0v167h858v-167h-858z" />
    <glyph glyph-name="lozenge" unicode="&#x25ca;" horiz-adv-x="1091" 
d="M1072 735l-442 -795h-169l-442 795l442 795h169zM886 735l-340 624l-341 -624l341 -624z" />
    <glyph glyph-name="fi" unicode="&#xfb01;" horiz-adv-x="1216" 
d="M574 1316q-59 0 -92 -25t-33 -96v-113h232v-172h-232v-910h-240v910h-176v172h176v138q0 154 85 221t240 67q91 0 173 -14v-186q-66 8 -133 8zM858 1483h240v-236h-240v236zM858 1082h240v-1082h-240v1082z" />
    <glyph glyph-name="fl" unicode="&#xfb02;" horiz-adv-x="1226" 
d="M574 1316q-59 0 -92 -25t-33 -96v-113h232v-172h-232v-910h-240v910h-176v172h176v138q0 154 85 221t240 67q91 0 173 -14v-186q-66 8 -133 8zM864 1483h240v-1483h-240v1483z" />
    <glyph glyph-name="i.loclTRK" horiz-adv-x="475" 
d="M118 1483h240v-236h-240v236zM118 1082h240v-1082h-240v1082z" />
    <glyph glyph-name="f_i" horiz-adv-x="1216" 
d="M574 1316q-59 0 -92 -25t-33 -96v-113h232v-172h-232v-910h-240v910h-176v172h176v138q0 154 85 221t240 67q91 0 173 -14v-186q-66 8 -133 8zM858 1483h240v-236h-240v236zM858 1082h240v-1082h-240v1082z" />
    <glyph glyph-name="f_l" horiz-adv-x="1226" 
d="M574 1316q-59 0 -92 -25t-33 -96v-113h232v-172h-232v-910h-240v910h-176v172h176v138q0 154 85 221t240 67q91 0 173 -14v-186q-66 8 -133 8zM864 1483h240v-1483h-240v1483z" />
    <glyph glyph-name="zero.tf" horiz-adv-x="1228" 
d="M618 1464q93 0 172 -23.5t149.5 -79t119 -140t77 -213t28.5 -291.5t-28.5 -291t-77 -212.5t-119 -140t-149.5 -79t-172 -23.5t-172 23.5t-149.5 79t-119 140t-77 212.5t-28.5 291t28.5 291.5t77 213t119 140t149.5 79t172 23.5zM618 163q50 0 90.5 13t80 50t66 97.5
t42.5 160t16 233.5t-16 234.5t-42.5 160.5t-66 97t-79.5 50t-91 13t-91 -13t-79.5 -50t-66 -97t-42.5 -160.5t-16 -234.5t16 -233.5t42.5 -160t66 -97.5t80 -50t90.5 -13z" />
    <glyph glyph-name="one.tf" horiz-adv-x="1228" 
d="M1134 200v-200h-927v200h344v864h-289v166h43q125 0 193.5 58t87.5 147h204v-1235h344z" />
    <glyph glyph-name="two.tf" horiz-adv-x="1228" 
d="M1119 209v-209h-1003v62q0 69 13.5 132t33 110.5t53 93.5t62.5 76.5t73 65t72.5 53.5t72.5 46l188 120q39 25 68 48.5t59.5 57.5t47.5 77t17 91q0 117 -62 176t-181 59q-118 0 -190.5 -79t-85.5 -224l-239 20q14 152 88 261.5t184 162.5t243 53q101 0 188 -25t155.5 -75
t108 -131.5t39.5 -186.5q0 -42 -6.5 -80.5t-16 -69.5t-27 -61.5t-32.5 -52.5t-40.5 -46.5t-43 -39.5t-47.5 -36t-46.5 -31.5t-47.5 -29.5t-44 -27l-168 -108q-107 -69 -159.5 -135.5t-57.5 -117.5h731z" />
    <glyph glyph-name="three.tf" horiz-adv-x="1228" 
d="M518 826h128q117 0 188.5 59.5t71.5 162.5q0 102 -67.5 162t-171.5 60q-103 0 -172.5 -61.5t-83.5 -176.5l-236 20q21 193 152 301.5t340 108.5q214 0 348.5 -109t134.5 -301q0 -103 -58.5 -181t-153.5 -118v-9q114 -37 183.5 -123.5t69.5 -216.5q0 -108 -40.5 -191.5
t-112 -135.5t-166 -78.5t-206.5 -26.5q-227 0 -370.5 112.5t-171.5 334.5l245 22q18 -143 96.5 -210t200.5 -67q119 0 197.5 65t78.5 176q0 122 -79.5 182t-216.5 60h-128v179z" />
    <glyph glyph-name="four.tf" horiz-adv-x="1228" 
d="M984 546h181v-188h-181v-358h-238v358h-672v206l556 871h354v-889zM293 554v-8h453v705h-8z" />
    <glyph glyph-name="five.tf" horiz-adv-x="1228" 
d="M661 977q94 0 179.5 -32t154 -92t109.5 -158t41 -220t-41.5 -219.5t-113 -158.5t-163.5 -93.5t-197 -32.5q-207 0 -344.5 104.5t-174.5 294.5l246 26q22 -111 93.5 -171.5t179.5 -60.5q115 0 190.5 81t75.5 231t-76.5 230t-196.5 80q-152 0 -264 -108h-224l65 757h850
v-203h-659l-31 -363h9q108 108 292 108z" />
    <glyph glyph-name="six.tf" horiz-adv-x="1228" 
d="M678 926q65 0 130.5 -17.5t128 -55.5t110.5 -91.5t77.5 -131.5t29.5 -169q0 -99 -30.5 -182t-80.5 -139t-116.5 -95t-136.5 -56.5t-141 -17.5q-135 0 -247 49.5t-186 150.5q-127 173 -127 548q0 743 558 743q173 0 302.5 -91.5t180.5 -258.5l-237 -29q-26 84 -89 140.5
t-157 56.5q-47 0 -89 -12t-86 -45t-75 -85t-51 -140t-20 -203v-16h9q64 75 154 111t189 36zM645 153q112 0 191 79t79 217t-79 217t-191 79q-122 0 -205.5 -81t-83.5 -215t83.5 -215t205.5 -81z" />
    <glyph glyph-name="seven.tf" horiz-adv-x="1228" 
d="M1114 1435v-110q0 -72 -26.5 -144t-68.5 -137.5t-92.5 -137.5t-101.5 -157.5t-93 -182t-68.5 -228t-26.5 -278.5v-62h-253v71q0 140 27 273t67 232.5t96 200t105 169t103 147.5t81 129v8h-748v207h999z" />
    <glyph glyph-name="eight.tf" horiz-adv-x="1228" 
d="M627 -29q84 0 160.5 15.5t144.5 49t117.5 83t78 122t28.5 160.5q0 136 -63.5 230t-176.5 136v8q96 41 150 116.5t54 179.5q0 99 -42 176t-112.5 122.5t-156.5 69t-182 23.5t-182 -23.5t-156.5 -69t-112.5 -122.5t-42 -176q0 -104 54 -179.5t150 -116.5v-8
q-113 -42 -176.5 -136t-63.5 -230q0 -88 28.5 -160.5t78 -122t117.5 -83t144.5 -49t160.5 -15.5zM627 1283q109 0 184.5 -57t75.5 -163t-75.5 -162.5t-184.5 -56.5q-110 0 -185.5 56.5t-75.5 162.5t76 163t185 57zM627 674q119 0 202 -67t83 -193t-83 -193.5t-202 -67.5
t-202 67.5t-83 193.5t83 193t202 67z" />
    <glyph glyph-name="nine.tf" horiz-adv-x="1228" 
d="M556 505q-65 0 -130.5 18t-128 56t-110.5 91.5t-77.5 131.5t-29.5 169q0 99 30.5 182t81 138.5t117 94.5t136.5 56.5t141 17.5q286 0 432 -199q127 -173 127 -548q0 -743 -558 -743q-173 0 -302 91t-180 258l236 30q26 -84 89 -140.5t157 -56.5q47 0 89 11.5t86 44.5
t75 85t51 140t20 203v16h-8q-64 -75 -154.5 -111t-189.5 -36zM589 1278q-112 0 -191 -79t-79 -217t79 -217t191 -79q122 0 205.5 81t83.5 215t-83.5 215t-205.5 81z" />
    <glyph glyph-name="caron.alt" horiz-adv-x="499" 
d="M370 1483v-175q0 -141 -61 -219t-179 -81v105q43 2 70 37t27 97h-97v236h240z" />
    <glyph glyph-name="acute.case" horiz-adv-x="657" 
d="M304 1568h-186l166 322h263z" />
    <glyph glyph-name="breve.case" horiz-adv-x="917" 
d="M633 1888h175q0 -149 -102 -239.5t-243 -90.5q-92 0 -169.5 38.5t-126.5 115t-49 176.5h174q9 -79 58.5 -120t112.5 -41t112 41t58 120z" />
    <glyph glyph-name="caron.case" horiz-adv-x="991" 
d="M882 1887l-277 -321h-211l-276 321h240l137 -177h9l138 177h240z" />
    <glyph glyph-name="cedilla.case" horiz-adv-x="688" 
d="M118 -416l38 121q80 -41 158 -41q34 0 61 19.5t27 57.5q0 63 -88 63q-32 0 -83 -15v123l82 88l74 78l163 11l-82 -89l-65 -71v-10q79 -9 127.5 -54t48.5 -126q0 -100 -69 -151t-184 -51q-121 0 -208 47z" />
    <glyph glyph-name="circumflex.case" horiz-adv-x="991" 
d="M504 1740h-9l-137 -178h-240l276 322h211l277 -322h-240z" />
    <glyph glyph-name="dieresis.case" horiz-adv-x="868" 
d="M118 1831h223v-222h-223v222zM535 1831h224v-222h-224v222z" />
    <glyph glyph-name="dotaccent.case" horiz-adv-x="466" 
d="M118 1845h240v-236h-240v236z" />
    <glyph glyph-name="grave.case" horiz-adv-x="657" 
d="M381 1890l166 -322h-186l-243 322h263z" />
    <glyph glyph-name="hungarumlaut.case" horiz-adv-x="897" 
d="M608 1568h-165l116 322h229zM282 1568h-164l115 322h230z" />
    <glyph glyph-name="macron.case" horiz-adv-x="839" 
d="M118 1635v170h612v-170h-612z" />
    <glyph glyph-name="ogonek.case" horiz-adv-x="630" 
d="M419 -316q55 0 102 16v-148q-49 -15 -143 -15q-119 0 -189.5 53t-70.5 151q0 81 51.5 150t136.5 111h191q-190 -112 -190 -234q0 -41 31.5 -62.5t80.5 -21.5z" />
    <glyph glyph-name="ring.case" horiz-adv-x="694" 
d="M353 1541q-100 0 -167.5 65.5t-67.5 161.5t67.5 161.5t167.5 65.5q96 0 163.5 -65.5t67.5 -161.5t-67.5 -161.5t-163.5 -65.5zM353 1661q43 0 71.5 30t28.5 77t-28.5 77t-71.5 30q-46 0 -75 -29.5t-29 -77.5t29 -77.5t75 -29.5z" />
    <glyph glyph-name="tilde.case" horiz-adv-x="933" 
d="M824 1821l-144 28q-17 -91 -76 -91q-30 0 -81 35l-48 31q-26 16 -38 23t-37 15.5t-49 8.5q-92 0 -154 -56.5t-79 -175.5l144 -28q17 90 76 90q30 0 81 -35l48 -31q70 -47 124 -47q92 0 154 56.5t79 176.5z" />
    <glyph glyph-name="uni0326.case" horiz-adv-x="0" 
d="M358 -124v-174q0 -141 -61 -219.5t-179 -81.5v106q42 2 69 37t27 97h-96v235h240z" />
    </font>
</defs>
</svg>
